%TF.GenerationSoftware,KiCad,Pcbnew,(6.0.10-0)*%
%TF.CreationDate,2023-01-20T10:22:19+00:00*%
%TF.ProjectId,fauxmac-plus-plate,66617578-6d61-4632-9d70-6c75732d706c,rev?*%
%TF.SameCoordinates,Original*%
%TF.FileFunction,Profile,NP*%
%FSLAX46Y46*%
G04 Gerber Fmt 4.6, Leading zero omitted, Abs format (unit mm)*
G04 Created by KiCad (PCBNEW (6.0.10-0)) date 2023-01-20 10:22:19*
%MOMM*%
%LPD*%
G01*
G04 APERTURE LIST*
%TA.AperFunction,Profile*%
%ADD10C,0.050000*%
%TD*%
G04 APERTURE END LIST*
D10*
X126500000Y-115000000D02*
X208000000Y-115000000D01*
X210500000Y-112500000D02*
X210500000Y-28500000D01*
X124000000Y-28500000D02*
X124000000Y-112500000D01*
X152400000Y-33400000D02*
X166400000Y-33400000D01*
X166400000Y-33400000D02*
X166400000Y-47400000D01*
X166400000Y-47400000D02*
X152400000Y-47400000D01*
X152400000Y-47400000D02*
X152400000Y-33400000D01*
X124000000Y-112500000D02*
G75*
G03*
X126500000Y-115000000I2500000J0D01*
G01*
X152400000Y-71500000D02*
X166400000Y-71500000D01*
X166400000Y-71500000D02*
X166400000Y-85500000D01*
X166400000Y-85500000D02*
X152400000Y-85500000D01*
X152400000Y-85500000D02*
X152400000Y-71500000D01*
X126500000Y-26000000D02*
G75*
G03*
X124000000Y-28500000I0J-2500000D01*
G01*
X145900000Y-107700000D02*
G75*
G03*
X147400000Y-106200000I0J1500000D01*
G01*
X127600000Y-30800000D02*
X127618034Y-30736068D01*
X171500000Y-52500000D02*
X185500000Y-52500000D01*
X185500000Y-52500000D02*
X185500000Y-66500000D01*
X185500000Y-66500000D02*
X171500000Y-66500000D01*
X171500000Y-66500000D02*
X171500000Y-52500000D01*
X129100000Y-107700000D02*
X145900000Y-107700000D01*
X127600000Y-106200000D02*
X127600000Y-30800000D01*
X171500000Y-71500000D02*
X185500000Y-71500000D01*
X185500000Y-71500000D02*
X185500000Y-85500000D01*
X185500000Y-85500000D02*
X171500000Y-85500000D01*
X171500000Y-85500000D02*
X171500000Y-71500000D01*
X127600000Y-106200000D02*
G75*
G03*
X129100000Y-107700000I1500000J0D01*
G01*
X190500000Y-52500000D02*
X204500000Y-52500000D01*
X204500000Y-52500000D02*
X204500000Y-66500000D01*
X204500000Y-66500000D02*
X190500000Y-66500000D01*
X190500000Y-66500000D02*
X190500000Y-52500000D01*
X171500000Y-33400000D02*
X185500000Y-33400000D01*
X185500000Y-33400000D02*
X185500000Y-47400000D01*
X185500000Y-47400000D02*
X171500000Y-47400000D01*
X171500000Y-47400000D02*
X171500000Y-33400000D01*
X152400000Y-52500000D02*
X166400000Y-52500000D01*
X166400000Y-52500000D02*
X166400000Y-66500000D01*
X166400000Y-66500000D02*
X152400000Y-66500000D01*
X152400000Y-66500000D02*
X152400000Y-52500000D01*
X171500000Y-90600000D02*
X185500000Y-90600000D01*
X185500000Y-90600000D02*
X185500000Y-104600000D01*
X185500000Y-104600000D02*
X171500000Y-104600000D01*
X171500000Y-104600000D02*
X171500000Y-90600000D01*
X208000000Y-115000000D02*
G75*
G03*
X210500000Y-112500000I0J2500000D01*
G01*
X210500000Y-28500000D02*
G75*
G03*
X208000000Y-26000000I-2500000J0D01*
G01*
X147400000Y-26000000D02*
X148200000Y-26000000D01*
X190500000Y-90600000D02*
X204500000Y-90600000D01*
X204500000Y-90600000D02*
X204500000Y-104600000D01*
X204500000Y-104600000D02*
X190500000Y-104600000D01*
X190500000Y-104600000D02*
X190500000Y-90600000D01*
X190500000Y-71500000D02*
X204500000Y-71500000D01*
X204500000Y-71500000D02*
X204500000Y-85500000D01*
X204500000Y-85500000D02*
X190500000Y-85500000D01*
X190500000Y-85500000D02*
X190500000Y-71500000D01*
X147400000Y-106200000D02*
X147400000Y-26000000D01*
X127618034Y-30736068D02*
G75*
G03*
X126500000Y-26000000I-1118034J2236068D01*
G01*
X127631371Y-28500000D02*
G75*
G03*
X127631371Y-28500000I-1131371J0D01*
G01*
X152400000Y-90600000D02*
X166400000Y-90600000D01*
X166400000Y-90600000D02*
X166400000Y-104600000D01*
X166400000Y-104600000D02*
X152400000Y-104600000D01*
X152400000Y-104600000D02*
X152400000Y-90600000D01*
X190500000Y-33400000D02*
X204500000Y-33400000D01*
X204500000Y-33400000D02*
X204500000Y-47400000D01*
X204500000Y-47400000D02*
X190500000Y-47400000D01*
X190500000Y-47400000D02*
X190500000Y-33400000D01*
X148200000Y-26000000D02*
X208000000Y-26000000D01*
M02*
