  0
SECTION
  2
HEADER
  9
$ANGBASE
  50
0.0
  9
$ANGDIR
  70
1
  9
$MEASUREMENT
  70
1
  0
ENDSEC
  0
SECTION
  2
TABLES
  0
TABLE
  2
LTYPE
  70
4
  0
LTYPE
  5
40F
  2
CONTINUOUS
  70
0
  3
Solid line
  72
65
  73
0
  40
0.0
  0
LTYPE
  5
410
  2
DASHDOT
 70
0
  3
Dash Dot ____ _ ____ _
 72
65
 73
4
 40
2.0
 49
1.25
 49
-0.25
 49
0.25
 49
-0.25
  0
LTYPE
  5
411
  2
DASHED
 70
0
  3
Dashed __ __ __ __ __
 72
65
 73
2
 40
0.75
 49
0.5
 49
-0.25
  0
LTYPE
  5
43B
  2
DOTTED
 70
0
  3
Dotted .  .  .  .
 72
65
 73
2
 40
0.2
 49
0.0
 49
-0.2
  0
ENDTAB
  0
TABLE
  2
STYLE
  70
4
  0
STYLE
  2
KICAD
  70
0
  40
0
  41
1
  42
1
  50
0
  71
0
  3
isocp.shx
  0
STYLE
  2
KICADB
  70
0
  40
0
  41
1
  42
1
  50
0
  71
0
  3
isocp.shx
  0
STYLE
  2
KICADI
  70
0
  40
0
  41
1
  42
1
  50
15
  71
0
  3
isocp.shx
  0
STYLE
  2
KICADBI
  70
0
  40
0
  41
1
  42
1
  50
15
  71
0
  3
isocp.shx
  0
ENDTAB
  0
TABLE
  2
LAYER
  70
1
  0
LAYER
  2
BLACK
  70
0
  62
7
  6
CONTINUOUS
  0
ENDTAB
  0
ENDSEC
  0
SECTION
  2
ENTITIES
0
LINE
8
BLACK
6
CONTINUOUS
10
126.196
20
-115.007
11
125.896
21
-114.952
0
LINE
8
BLACK
6
CONTINUOUS
10
125.896
20
-114.952
11
125.605
21
-114.861
0
LINE
8
BLACK
6
CONTINUOUS
10
125.605
20
-114.861
11
125.327
21
-114.736
0
LINE
8
BLACK
6
CONTINUOUS
10
125.327
20
-114.736
11
125.066
21
-114.578
0
LINE
8
BLACK
6
CONTINUOUS
10
125.066
20
-114.578
11
124.826
21
-114.39
0
LINE
8
BLACK
6
CONTINUOUS
10
124.826
20
-114.39
11
124.61
21
-114.174
0
LINE
8
BLACK
6
CONTINUOUS
10
124.61
20
-114.174
11
124.422
21
-113.934
0
LINE
8
BLACK
6
CONTINUOUS
10
124.422
20
-113.934
11
124.264
21
-113.673
0
LINE
8
BLACK
6
CONTINUOUS
10
124.264
20
-113.673
11
124.139
21
-113.395
0
LINE
8
BLACK
6
CONTINUOUS
10
124.139
20
-113.395
11
124.048
21
-113.104
0
LINE
8
BLACK
6
CONTINUOUS
10
124.048
20
-113.104
11
123.993
21
-112.804
0
LINE
8
BLACK
6
CONTINUOUS
10
123.993
20
-112.804
11
123.975
21
-112.5
0
LINE
8
BLACK
6
CONTINUOUS
10
123.975
20
-112.5
11
123.975
21
-28.5
0
LINE
8
BLACK
6
CONTINUOUS
10
123.975
20
-28.5
11
123.993
21
-28.1956
0
LINE
8
BLACK
6
CONTINUOUS
10
123.993
20
-28.1956
11
124.048
21
-27.8957
0
LINE
8
BLACK
6
CONTINUOUS
10
124.048
20
-27.8957
11
124.139
21
-27.6046
0
LINE
8
BLACK
6
CONTINUOUS
10
124.139
20
-27.6046
11
124.264
21
-27.3266
0
LINE
8
BLACK
6
CONTINUOUS
10
124.264
20
-27.3266
11
124.422
21
-27.0656
0
LINE
8
BLACK
6
CONTINUOUS
10
124.422
20
-27.0656
11
124.61
21
-26.8256
0
LINE
8
BLACK
6
CONTINUOUS
10
124.61
20
-26.8256
11
124.826
21
-26.61
0
LINE
8
BLACK
6
CONTINUOUS
10
124.826
20
-26.61
11
125.066
21
-26.422
0
LINE
8
BLACK
6
CONTINUOUS
10
125.066
20
-26.422
11
125.327
21
-26.2642
0
LINE
8
BLACK
6
CONTINUOUS
10
125.327
20
-26.2642
11
125.605
21
-26.1391
0
LINE
8
BLACK
6
CONTINUOUS
10
125.605
20
-26.1391
11
125.896
21
-26.0484
0
LINE
8
BLACK
6
CONTINUOUS
10
125.896
20
-26.0484
11
126.196
21
-25.9934
0
LINE
8
BLACK
6
CONTINUOUS
10
126.196
20
-25.9934
11
126.5
21
-25.975
0
LINE
8
BLACK
6
CONTINUOUS
10
126.5
20
-25.975
11
208
21
-25.975
0
LINE
8
BLACK
6
CONTINUOUS
10
208
20
-25.975
11
208.304
21
-25.9934
0
LINE
8
BLACK
6
CONTINUOUS
10
208.304
20
-25.9934
11
208.604
21
-26.0484
0
LINE
8
BLACK
6
CONTINUOUS
10
208.604
20
-26.0484
11
208.895
21
-26.1391
0
LINE
8
BLACK
6
CONTINUOUS
10
208.895
20
-26.1391
11
209.173
21
-26.2642
0
LINE
8
BLACK
6
CONTINUOUS
10
209.173
20
-26.2642
11
209.434
21
-26.422
0
LINE
8
BLACK
6
CONTINUOUS
10
209.434
20
-26.422
11
209.674
21
-26.61
0
LINE
8
BLACK
6
CONTINUOUS
10
209.674
20
-26.61
11
209.89
21
-26.8256
0
LINE
8
BLACK
6
CONTINUOUS
10
209.89
20
-26.8256
11
210.078
21
-27.0656
0
LINE
8
BLACK
6
CONTINUOUS
10
210.078
20
-27.0656
11
210.236
21
-27.3266
0
LINE
8
BLACK
6
CONTINUOUS
10
210.236
20
-27.3266
11
210.361
21
-27.6046
0
LINE
8
BLACK
6
CONTINUOUS
10
210.361
20
-27.6046
11
210.452
21
-27.8957
0
LINE
8
BLACK
6
CONTINUOUS
10
210.452
20
-27.8957
11
210.507
21
-28.1956
0
LINE
8
BLACK
6
CONTINUOUS
10
210.507
20
-28.1956
11
210.525
21
-28.5
0
LINE
8
BLACK
6
CONTINUOUS
10
210.525
20
-28.5
11
210.525
21
-112.5
0
LINE
8
BLACK
6
CONTINUOUS
10
210.525
20
-112.5
11
210.507
21
-112.804
0
LINE
8
BLACK
6
CONTINUOUS
10
210.507
20
-112.804
11
210.452
21
-113.104
0
LINE
8
BLACK
6
CONTINUOUS
10
210.452
20
-113.104
11
210.361
21
-113.395
0
LINE
8
BLACK
6
CONTINUOUS
10
210.361
20
-113.395
11
210.236
21
-113.673
0
LINE
8
BLACK
6
CONTINUOUS
10
210.236
20
-113.673
11
210.078
21
-113.934
0
LINE
8
BLACK
6
CONTINUOUS
10
210.078
20
-113.934
11
209.89
21
-114.174
0
LINE
8
BLACK
6
CONTINUOUS
10
209.89
20
-114.174
11
209.674
21
-114.39
0
LINE
8
BLACK
6
CONTINUOUS
10
209.674
20
-114.39
11
209.434
21
-114.578
0
LINE
8
BLACK
6
CONTINUOUS
10
209.434
20
-114.578
11
209.173
21
-114.736
0
LINE
8
BLACK
6
CONTINUOUS
10
209.173
20
-114.736
11
208.895
21
-114.861
0
LINE
8
BLACK
6
CONTINUOUS
10
208.895
20
-114.861
11
208.604
21
-114.952
0
LINE
8
BLACK
6
CONTINUOUS
10
208.604
20
-114.952
11
208.304
21
-115.007
0
LINE
8
BLACK
6
CONTINUOUS
10
208.304
20
-115.007
11
208
21
-115.025
0
LINE
8
BLACK
6
CONTINUOUS
10
208
20
-115.025
11
126.5
21
-115.025
0
LINE
8
BLACK
6
CONTINUOUS
10
126.5
20
-115.025
11
126.196
21
-115.007
0
LINE
8
BLACK
6
CONTINUOUS
10
126.49
20
-26.0211
11
126.201
21
-26.0386
0
LINE
8
BLACK
6
CONTINUOUS
10
126.201
20
-26.0386
11
125.907
21
-26.0925
0
LINE
8
BLACK
6
CONTINUOUS
10
125.907
20
-26.0925
11
125.621
21
-26.1816
0
LINE
8
BLACK
6
CONTINUOUS
10
125.621
20
-26.1816
11
125.348
21
-26.3045
0
LINE
8
BLACK
6
CONTINUOUS
10
125.348
20
-26.3045
11
125.091
21
-26.4594
0
LINE
8
BLACK
6
CONTINUOUS
10
125.091
20
-26.4594
11
124.856
21
-26.6441
0
LINE
8
BLACK
6
CONTINUOUS
10
124.856
20
-26.6441
11
124.644
21
-26.8558
0
LINE
8
BLACK
6
CONTINUOUS
10
124.644
20
-26.8558
11
124.459
21
-27.0915
0
LINE
8
BLACK
6
CONTINUOUS
10
124.459
20
-27.0915
11
124.304
21
-27.3477
0
LINE
8
BLACK
6
CONTINUOUS
10
124.304
20
-27.3477
11
124.182
21
-27.6207
0
LINE
8
BLACK
6
CONTINUOUS
10
124.182
20
-27.6207
11
124.093
21
-27.9066
0
LINE
8
BLACK
6
CONTINUOUS
10
124.093
20
-27.9066
11
124.039
21
-28.2011
0
LINE
8
BLACK
6
CONTINUOUS
10
124.039
20
-28.2011
11
124.021
21
-28.4905
0
LINE
8
BLACK
6
CONTINUOUS
10
124.021
20
-28.4905
11
124.025
21
-28.5
0
LINE
8
BLACK
6
CONTINUOUS
10
124.025
20
-28.5
11
124.025
21
-112.5
0
LINE
8
BLACK
6
CONTINUOUS
10
124.025
20
-112.5
11
124.021
21
-112.51
0
LINE
8
BLACK
6
CONTINUOUS
10
124.021
20
-112.51
11
124.039
21
-112.799
0
LINE
8
BLACK
6
CONTINUOUS
10
124.039
20
-112.799
11
124.093
21
-113.093
0
LINE
8
BLACK
6
CONTINUOUS
10
124.093
20
-113.093
11
124.182
21
-113.379
0
LINE
8
BLACK
6
CONTINUOUS
10
124.182
20
-113.379
11
124.304
21
-113.652
0
LINE
8
BLACK
6
CONTINUOUS
10
124.304
20
-113.652
11
124.459
21
-113.909
0
LINE
8
BLACK
6
CONTINUOUS
10
124.459
20
-113.909
11
124.644
21
-114.144
0
LINE
8
BLACK
6
CONTINUOUS
10
124.644
20
-114.144
11
124.856
21
-114.356
0
LINE
8
BLACK
6
CONTINUOUS
10
124.856
20
-114.356
11
125.091
21
-114.541
0
LINE
8
BLACK
6
CONTINUOUS
10
125.091
20
-114.541
11
125.348
21
-114.696
0
LINE
8
BLACK
6
CONTINUOUS
10
125.348
20
-114.696
11
125.621
21
-114.818
0
LINE
8
BLACK
6
CONTINUOUS
10
125.621
20
-114.818
11
125.907
21
-114.907
0
LINE
8
BLACK
6
CONTINUOUS
10
125.907
20
-114.907
11
126.201
21
-114.961
0
LINE
8
BLACK
6
CONTINUOUS
10
126.201
20
-114.961
11
126.49
21
-114.979
0
LINE
8
BLACK
6
CONTINUOUS
10
126.49
20
-114.979
11
126.5
21
-114.975
0
LINE
8
BLACK
6
CONTINUOUS
10
126.5
20
-114.975
11
208
21
-114.975
0
LINE
8
BLACK
6
CONTINUOUS
10
208
20
-114.975
11
208.01
21
-114.979
0
LINE
8
BLACK
6
CONTINUOUS
10
208.01
20
-114.979
11
208.299
21
-114.961
0
LINE
8
BLACK
6
CONTINUOUS
10
208.299
20
-114.961
11
208.593
21
-114.907
0
LINE
8
BLACK
6
CONTINUOUS
10
208.593
20
-114.907
11
208.879
21
-114.818
0
LINE
8
BLACK
6
CONTINUOUS
10
208.879
20
-114.818
11
209.152
21
-114.696
0
LINE
8
BLACK
6
CONTINUOUS
10
209.152
20
-114.696
11
209.409
21
-114.541
0
LINE
8
BLACK
6
CONTINUOUS
10
209.409
20
-114.541
11
209.644
21
-114.356
0
LINE
8
BLACK
6
CONTINUOUS
10
209.644
20
-114.356
11
209.856
21
-114.144
0
LINE
8
BLACK
6
CONTINUOUS
10
209.856
20
-114.144
11
210.041
21
-113.909
0
LINE
8
BLACK
6
CONTINUOUS
10
210.041
20
-113.909
11
210.196
21
-113.652
0
LINE
8
BLACK
6
CONTINUOUS
10
210.196
20
-113.652
11
210.318
21
-113.379
0
LINE
8
BLACK
6
CONTINUOUS
10
210.318
20
-113.379
11
210.407
21
-113.093
0
LINE
8
BLACK
6
CONTINUOUS
10
210.407
20
-113.093
11
210.461
21
-112.799
0
LINE
8
BLACK
6
CONTINUOUS
10
210.461
20
-112.799
11
210.479
21
-112.51
0
LINE
8
BLACK
6
CONTINUOUS
10
210.479
20
-112.51
11
210.475
21
-112.5
0
LINE
8
BLACK
6
CONTINUOUS
10
210.475
20
-112.5
11
210.475
21
-28.5
0
LINE
8
BLACK
6
CONTINUOUS
10
210.475
20
-28.5
11
210.479
21
-28.4905
0
LINE
8
BLACK
6
CONTINUOUS
10
210.479
20
-28.4905
11
210.461
21
-28.2011
0
LINE
8
BLACK
6
CONTINUOUS
10
210.461
20
-28.2011
11
210.407
21
-27.9066
0
LINE
8
BLACK
6
CONTINUOUS
10
210.407
20
-27.9066
11
210.318
21
-27.6207
0
LINE
8
BLACK
6
CONTINUOUS
10
210.318
20
-27.6207
11
210.196
21
-27.3477
0
LINE
8
BLACK
6
CONTINUOUS
10
210.196
20
-27.3477
11
210.041
21
-27.0915
0
LINE
8
BLACK
6
CONTINUOUS
10
210.041
20
-27.0915
11
209.856
21
-26.8558
0
LINE
8
BLACK
6
CONTINUOUS
10
209.856
20
-26.8558
11
209.644
21
-26.6441
0
LINE
8
BLACK
6
CONTINUOUS
10
209.644
20
-26.6441
11
209.409
21
-26.4594
0
LINE
8
BLACK
6
CONTINUOUS
10
209.409
20
-26.4594
11
209.152
21
-26.3045
0
LINE
8
BLACK
6
CONTINUOUS
10
209.152
20
-26.3045
11
208.879
21
-26.1816
0
LINE
8
BLACK
6
CONTINUOUS
10
208.879
20
-26.1816
11
208.593
21
-26.0925
0
LINE
8
BLACK
6
CONTINUOUS
10
208.593
20
-26.0925
11
208.299
21
-26.0386
0
LINE
8
BLACK
6
CONTINUOUS
10
208.299
20
-26.0386
11
208.01
21
-26.0211
0
LINE
8
BLACK
6
CONTINUOUS
10
208.01
20
-26.0211
11
208
21
-26.025
0
LINE
8
BLACK
6
CONTINUOUS
10
208
20
-26.025
11
126.5
21
-26.025
0
LINE
8
BLACK
6
CONTINUOUS
10
126.5
20
-26.025
11
126.49
21
-26.0211
  0
ENDSEC
  0
EOF
