M48
; DRILL file {KiCad (6.0.10-0)} date Friday, 20 January 2023 at 10:40:29
; FORMAT={-:-/ absolute / metric / decimal}
; #@! TF.CreationDate,2023-01-20T10:40:29+00:00
; #@! TF.GenerationSoftware,Kicad,Pcbnew,(6.0.10-0)
; #@! TF.FileFunction,Plated,1,2,PTH
FMAT,2
METRIC
; #@! TA.AperFunction,Plated,PTH,ViaDrill
T1C0.400
; #@! TA.AperFunction,Plated,PTH,ComponentDrill
T2C0.800
; #@! TA.AperFunction,Plated,PTH,ComponentDrill
T3C0.990
; #@! TA.AperFunction,Plated,PTH,ComponentDrill
T4C1.000
; #@! TA.AperFunction,Plated,PTH,ComponentDrill
T5C1.092
; #@! TA.AperFunction,Plated,PTH,ComponentDrill
T6C1.200
; #@! TA.AperFunction,Plated,PTH,ComponentDrill
T7C1.300
; #@! TA.AperFunction,Plated,PTH,ComponentDrill
T8C1.470
%
G90
G05
T1
X129.707Y-108.493
X132.0Y-46.0
X133.07Y-106.201
X133.5Y-49.0
X134.0Y-40.0
X134.893Y-108.007
X135.5Y-40.0
X136.2Y-66.2
X136.5Y-33.5
X141.117Y-33.883
X143.5Y-41.0
X145.0Y-109.05
X145.7Y-30.4
X147.0Y-98.0
X147.0Y-106.95
X147.5Y-39.6
X147.5Y-41.0
X148.5Y-76.5
X150.5Y-58.5
X150.5Y-72.5
X150.632Y-62.132
X151.0Y-57.0
X151.5Y-64.5
X151.632Y-61.132
X152.0Y-67.55
X156.162Y-109.362
X163.0Y-87.5
X167.5Y-45.5
X173.0Y-108.4
X174.3Y-32.375
X175.4Y-31.651
T2
X130.0Y-69.38
X130.0Y-77.0
X130.0Y-81.38
X130.0Y-89.0
X130.0Y-93.88
X130.0Y-101.5
X135.0Y-69.38
X135.0Y-77.0
X135.0Y-81.38
X135.0Y-89.0
X135.0Y-93.88
X135.0Y-101.5
X140.0Y-69.38
X140.0Y-77.0
X140.0Y-81.38
X140.0Y-89.0
X140.0Y-93.88
X140.0Y-101.5
X145.0Y-69.38
X145.0Y-77.0
X145.0Y-81.38
X145.0Y-89.0
X145.0Y-93.88
X145.0Y-101.5
T3
X176.0Y-111.79
X181.0Y-111.79
T4
X130.0Y-106.5
X132.9Y-111.6
X133.68Y-64.0
X136.22Y-64.0
X137.5Y-104.0
X137.5Y-111.6
X138.76Y-64.0
X141.3Y-64.0
X142.1Y-111.6
X145.0Y-106.5
X149.5Y-30.0
X149.5Y-35.0
X157.0Y-90.5
X157.0Y-105.0
X159.5Y-105.0
X162.0Y-90.5
X162.0Y-105.0
X176.0Y-29.0
X178.54Y-29.0
X181.08Y-29.0
X207.0Y-36.5
X207.0Y-55.5
X207.0Y-74.5
X207.0Y-93.5
T5
X129.88Y-32.054
X129.88Y-34.594
X129.88Y-37.134
X129.88Y-39.674
X129.88Y-42.214
X129.88Y-44.754
X129.88Y-47.294
X129.88Y-49.834
X129.88Y-52.374
X129.88Y-54.914
X129.88Y-57.454
X129.88Y-59.994
X145.12Y-32.054
X145.12Y-34.594
X145.12Y-37.134
X145.12Y-39.674
X145.12Y-42.214
X145.12Y-44.754
X145.12Y-47.294
X145.12Y-49.834
X145.12Y-52.374
X145.12Y-54.914
X145.12Y-57.454
X145.12Y-59.994
T6
X159.5Y-34.6
X159.5Y-53.6
X159.5Y-72.6
X159.5Y-91.6
X164.5Y-36.7
X164.5Y-55.7
X164.5Y-74.7
X164.5Y-93.7
X178.5Y-34.6
X178.5Y-53.6
X178.5Y-72.6
X178.5Y-91.6
X183.5Y-36.7
X183.5Y-55.7
X183.5Y-74.7
X183.5Y-93.7
X197.5Y-34.6
X197.5Y-53.6
X197.5Y-72.6
X197.5Y-91.6
X202.5Y-36.7
X202.5Y-55.7
X202.5Y-74.7
X202.5Y-93.7
T7
X174.99Y-109.3
X182.0Y-109.3
T8
X155.69Y-37.96
X155.69Y-56.96
X155.69Y-75.96
X155.69Y-94.96
X157.0Y-36.5
X157.0Y-55.5
X157.0Y-74.5
X157.0Y-93.5
X162.0Y-36.0
X162.0Y-55.0
X162.0Y-74.0
X162.0Y-93.0
X162.04Y-35.42
X162.04Y-54.42
X162.04Y-73.42
X162.04Y-92.42
X174.69Y-37.96
X174.69Y-56.96
X174.69Y-75.96
X174.69Y-94.96
X176.0Y-36.5
X176.0Y-55.5
X176.0Y-74.5
X176.0Y-93.5
X181.0Y-36.0
X181.0Y-55.0
X181.0Y-74.0
X181.0Y-93.0
X181.04Y-35.42
X181.04Y-54.42
X181.04Y-73.42
X181.04Y-92.42
X193.69Y-37.96
X193.69Y-56.96
X193.69Y-75.96
X193.69Y-94.96
X195.0Y-36.5
X195.0Y-55.5
X195.0Y-74.5
X195.0Y-93.5
X200.0Y-36.0
X200.0Y-55.0
X200.0Y-74.0
X200.0Y-93.0
X200.04Y-35.42
X200.04Y-54.42
X200.04Y-73.42
X200.04Y-92.42
T0
M30
