  0
SECTION
  2
HEADER
  9
$ANGBASE
  50
0.0
  9
$ANGDIR
  70
1
  9
$MEASUREMENT
  70
1
  0
ENDSEC
  0
SECTION
  2
TABLES
  0
TABLE
  2
LTYPE
  70
4
  0
LTYPE
  5
40F
  2
CONTINUOUS
  70
0
  3
Solid line
  72
65
  73
0
  40
0.0
  0
LTYPE
  5
410
  2
DASHDOT
 70
0
  3
Dash Dot ____ _ ____ _
 72
65
 73
4
 40
2.0
 49
1.25
 49
-0.25
 49
0.25
 49
-0.25
  0
LTYPE
  5
411
  2
DASHED
 70
0
  3
Dashed __ __ __ __ __
 72
65
 73
2
 40
0.75
 49
0.5
 49
-0.25
  0
LTYPE
  5
43B
  2
DOTTED
 70
0
  3
Dotted .  .  .  .
 72
65
 73
2
 40
0.2
 49
0.0
 49
-0.2
  0
ENDTAB
  0
TABLE
  2
STYLE
  70
4
  0
STYLE
  2
KICAD
  70
0
  40
0
  41
1
  42
1
  50
0
  71
0
  3
isocp.shx
  0
STYLE
  2
KICADB
  70
0
  40
0
  41
1
  42
1
  50
0
  71
0
  3
isocp.shx
  0
STYLE
  2
KICADI
  70
0
  40
0
  41
1
  42
1
  50
15
  71
0
  3
isocp.shx
  0
STYLE
  2
KICADBI
  70
0
  40
0
  41
1
  42
1
  50
15
  71
0
  3
isocp.shx
  0
ENDTAB
  0
TABLE
  2
LAYER
  70
1
  0
LAYER
  2
BLACK
  70
0
  62
7
  6
CONTINUOUS
  0
ENDTAB
  0
ENDSEC
  0
SECTION
  2
ENTITIES
0
LINE
8
BLACK
6
CONTINUOUS
10
126.196
20
-115.007
11
125.896
21
-114.952
0
LINE
8
BLACK
6
CONTINUOUS
10
125.896
20
-114.952
11
125.605
21
-114.861
0
LINE
8
BLACK
6
CONTINUOUS
10
125.605
20
-114.861
11
125.327
21
-114.736
0
LINE
8
BLACK
6
CONTINUOUS
10
125.327
20
-114.736
11
125.066
21
-114.578
0
LINE
8
BLACK
6
CONTINUOUS
10
125.066
20
-114.578
11
124.826
21
-114.39
0
LINE
8
BLACK
6
CONTINUOUS
10
124.826
20
-114.39
11
124.61
21
-114.174
0
LINE
8
BLACK
6
CONTINUOUS
10
124.61
20
-114.174
11
124.422
21
-113.934
0
LINE
8
BLACK
6
CONTINUOUS
10
124.422
20
-113.934
11
124.264
21
-113.673
0
LINE
8
BLACK
6
CONTINUOUS
10
124.264
20
-113.673
11
124.139
21
-113.395
0
LINE
8
BLACK
6
CONTINUOUS
10
124.139
20
-113.395
11
124.048
21
-113.104
0
LINE
8
BLACK
6
CONTINUOUS
10
124.048
20
-113.104
11
123.993
21
-112.804
0
LINE
8
BLACK
6
CONTINUOUS
10
123.993
20
-112.804
11
123.975
21
-112.5
0
LINE
8
BLACK
6
CONTINUOUS
10
123.975
20
-112.5
11
123.975
21
-28.5
0
LINE
8
BLACK
6
CONTINUOUS
10
123.975
20
-28.5
11
123.993
21
-28.1956
0
LINE
8
BLACK
6
CONTINUOUS
10
123.993
20
-28.1956
11
124.048
21
-27.8957
0
LINE
8
BLACK
6
CONTINUOUS
10
124.048
20
-27.8957
11
124.139
21
-27.6046
0
LINE
8
BLACK
6
CONTINUOUS
10
124.139
20
-27.6046
11
124.264
21
-27.3266
0
LINE
8
BLACK
6
CONTINUOUS
10
124.264
20
-27.3266
11
124.422
21
-27.0656
0
LINE
8
BLACK
6
CONTINUOUS
10
124.422
20
-27.0656
11
124.61
21
-26.8256
0
LINE
8
BLACK
6
CONTINUOUS
10
124.61
20
-26.8256
11
124.826
21
-26.61
0
LINE
8
BLACK
6
CONTINUOUS
10
124.826
20
-26.61
11
125.066
21
-26.422
0
LINE
8
BLACK
6
CONTINUOUS
10
125.066
20
-26.422
11
125.327
21
-26.2642
0
LINE
8
BLACK
6
CONTINUOUS
10
125.327
20
-26.2642
11
125.605
21
-26.1391
0
LINE
8
BLACK
6
CONTINUOUS
10
125.605
20
-26.1391
11
125.896
21
-26.0484
0
LINE
8
BLACK
6
CONTINUOUS
10
125.896
20
-26.0484
11
126.196
21
-25.9934
0
LINE
8
BLACK
6
CONTINUOUS
10
126.196
20
-25.9934
11
126.5
21
-25.975
0
LINE
8
BLACK
6
CONTINUOUS
10
126.5
20
-25.975
11
208
21
-25.975
0
LINE
8
BLACK
6
CONTINUOUS
10
208
20
-25.975
11
208.304
21
-25.9934
0
LINE
8
BLACK
6
CONTINUOUS
10
208.304
20
-25.9934
11
208.604
21
-26.0484
0
LINE
8
BLACK
6
CONTINUOUS
10
208.604
20
-26.0484
11
208.895
21
-26.1391
0
LINE
8
BLACK
6
CONTINUOUS
10
208.895
20
-26.1391
11
209.173
21
-26.2642
0
LINE
8
BLACK
6
CONTINUOUS
10
209.173
20
-26.2642
11
209.434
21
-26.422
0
LINE
8
BLACK
6
CONTINUOUS
10
209.434
20
-26.422
11
209.674
21
-26.61
0
LINE
8
BLACK
6
CONTINUOUS
10
209.674
20
-26.61
11
209.89
21
-26.8256
0
LINE
8
BLACK
6
CONTINUOUS
10
209.89
20
-26.8256
11
210.078
21
-27.0656
0
LINE
8
BLACK
6
CONTINUOUS
10
210.078
20
-27.0656
11
210.236
21
-27.3266
0
LINE
8
BLACK
6
CONTINUOUS
10
210.236
20
-27.3266
11
210.361
21
-27.6046
0
LINE
8
BLACK
6
CONTINUOUS
10
210.361
20
-27.6046
11
210.452
21
-27.8957
0
LINE
8
BLACK
6
CONTINUOUS
10
210.452
20
-27.8957
11
210.507
21
-28.1956
0
LINE
8
BLACK
6
CONTINUOUS
10
210.507
20
-28.1956
11
210.525
21
-28.5
0
LINE
8
BLACK
6
CONTINUOUS
10
210.525
20
-28.5
11
210.525
21
-112.5
0
LINE
8
BLACK
6
CONTINUOUS
10
210.525
20
-112.5
11
210.507
21
-112.804
0
LINE
8
BLACK
6
CONTINUOUS
10
210.507
20
-112.804
11
210.452
21
-113.104
0
LINE
8
BLACK
6
CONTINUOUS
10
210.452
20
-113.104
11
210.361
21
-113.395
0
LINE
8
BLACK
6
CONTINUOUS
10
210.361
20
-113.395
11
210.236
21
-113.673
0
LINE
8
BLACK
6
CONTINUOUS
10
210.236
20
-113.673
11
210.078
21
-113.934
0
LINE
8
BLACK
6
CONTINUOUS
10
210.078
20
-113.934
11
209.89
21
-114.174
0
LINE
8
BLACK
6
CONTINUOUS
10
209.89
20
-114.174
11
209.674
21
-114.39
0
LINE
8
BLACK
6
CONTINUOUS
10
209.674
20
-114.39
11
209.434
21
-114.578
0
LINE
8
BLACK
6
CONTINUOUS
10
209.434
20
-114.578
11
209.173
21
-114.736
0
LINE
8
BLACK
6
CONTINUOUS
10
209.173
20
-114.736
11
208.895
21
-114.861
0
LINE
8
BLACK
6
CONTINUOUS
10
208.895
20
-114.861
11
208.604
21
-114.952
0
LINE
8
BLACK
6
CONTINUOUS
10
208.604
20
-114.952
11
208.304
21
-115.007
0
LINE
8
BLACK
6
CONTINUOUS
10
208.304
20
-115.007
11
208
21
-115.025
0
LINE
8
BLACK
6
CONTINUOUS
10
208
20
-115.025
11
126.5
21
-115.025
0
LINE
8
BLACK
6
CONTINUOUS
10
126.5
20
-115.025
11
126.196
21
-115.007
0
LINE
8
BLACK
6
CONTINUOUS
10
126.49
20
-26.0211
11
126.201
21
-26.0386
0
LINE
8
BLACK
6
CONTINUOUS
10
126.201
20
-26.0386
11
125.907
21
-26.0925
0
LINE
8
BLACK
6
CONTINUOUS
10
125.907
20
-26.0925
11
125.621
21
-26.1816
0
LINE
8
BLACK
6
CONTINUOUS
10
125.621
20
-26.1816
11
125.348
21
-26.3045
0
LINE
8
BLACK
6
CONTINUOUS
10
125.348
20
-26.3045
11
125.091
21
-26.4594
0
LINE
8
BLACK
6
CONTINUOUS
10
125.091
20
-26.4594
11
124.856
21
-26.6441
0
LINE
8
BLACK
6
CONTINUOUS
10
124.856
20
-26.6441
11
124.644
21
-26.8558
0
LINE
8
BLACK
6
CONTINUOUS
10
124.644
20
-26.8558
11
124.459
21
-27.0915
0
LINE
8
BLACK
6
CONTINUOUS
10
124.459
20
-27.0915
11
124.304
21
-27.3477
0
LINE
8
BLACK
6
CONTINUOUS
10
124.304
20
-27.3477
11
124.182
21
-27.6207
0
LINE
8
BLACK
6
CONTINUOUS
10
124.182
20
-27.6207
11
124.093
21
-27.9066
0
LINE
8
BLACK
6
CONTINUOUS
10
124.093
20
-27.9066
11
124.039
21
-28.2011
0
LINE
8
BLACK
6
CONTINUOUS
10
124.039
20
-28.2011
11
124.021
21
-28.4905
0
LINE
8
BLACK
6
CONTINUOUS
10
124.021
20
-28.4905
11
124.025
21
-28.5
0
LINE
8
BLACK
6
CONTINUOUS
10
124.025
20
-28.5
11
124.025
21
-112.5
0
LINE
8
BLACK
6
CONTINUOUS
10
124.025
20
-112.5
11
124.021
21
-112.51
0
LINE
8
BLACK
6
CONTINUOUS
10
124.021
20
-112.51
11
124.039
21
-112.799
0
LINE
8
BLACK
6
CONTINUOUS
10
124.039
20
-112.799
11
124.093
21
-113.093
0
LINE
8
BLACK
6
CONTINUOUS
10
124.093
20
-113.093
11
124.182
21
-113.379
0
LINE
8
BLACK
6
CONTINUOUS
10
124.182
20
-113.379
11
124.304
21
-113.652
0
LINE
8
BLACK
6
CONTINUOUS
10
124.304
20
-113.652
11
124.459
21
-113.909
0
LINE
8
BLACK
6
CONTINUOUS
10
124.459
20
-113.909
11
124.644
21
-114.144
0
LINE
8
BLACK
6
CONTINUOUS
10
124.644
20
-114.144
11
124.856
21
-114.356
0
LINE
8
BLACK
6
CONTINUOUS
10
124.856
20
-114.356
11
125.091
21
-114.541
0
LINE
8
BLACK
6
CONTINUOUS
10
125.091
20
-114.541
11
125.348
21
-114.696
0
LINE
8
BLACK
6
CONTINUOUS
10
125.348
20
-114.696
11
125.621
21
-114.818
0
LINE
8
BLACK
6
CONTINUOUS
10
125.621
20
-114.818
11
125.907
21
-114.907
0
LINE
8
BLACK
6
CONTINUOUS
10
125.907
20
-114.907
11
126.201
21
-114.961
0
LINE
8
BLACK
6
CONTINUOUS
10
126.201
20
-114.961
11
126.49
21
-114.979
0
LINE
8
BLACK
6
CONTINUOUS
10
126.49
20
-114.979
11
126.5
21
-114.975
0
LINE
8
BLACK
6
CONTINUOUS
10
126.5
20
-114.975
11
208
21
-114.975
0
LINE
8
BLACK
6
CONTINUOUS
10
208
20
-114.975
11
208.01
21
-114.979
0
LINE
8
BLACK
6
CONTINUOUS
10
208.01
20
-114.979
11
208.299
21
-114.961
0
LINE
8
BLACK
6
CONTINUOUS
10
208.299
20
-114.961
11
208.593
21
-114.907
0
LINE
8
BLACK
6
CONTINUOUS
10
208.593
20
-114.907
11
208.879
21
-114.818
0
LINE
8
BLACK
6
CONTINUOUS
10
208.879
20
-114.818
11
209.152
21
-114.696
0
LINE
8
BLACK
6
CONTINUOUS
10
209.152
20
-114.696
11
209.409
21
-114.541
0
LINE
8
BLACK
6
CONTINUOUS
10
209.409
20
-114.541
11
209.644
21
-114.356
0
LINE
8
BLACK
6
CONTINUOUS
10
209.644
20
-114.356
11
209.856
21
-114.144
0
LINE
8
BLACK
6
CONTINUOUS
10
209.856
20
-114.144
11
210.041
21
-113.909
0
LINE
8
BLACK
6
CONTINUOUS
10
210.041
20
-113.909
11
210.196
21
-113.652
0
LINE
8
BLACK
6
CONTINUOUS
10
210.196
20
-113.652
11
210.318
21
-113.379
0
LINE
8
BLACK
6
CONTINUOUS
10
210.318
20
-113.379
11
210.407
21
-113.093
0
LINE
8
BLACK
6
CONTINUOUS
10
210.407
20
-113.093
11
210.461
21
-112.799
0
LINE
8
BLACK
6
CONTINUOUS
10
210.461
20
-112.799
11
210.479
21
-112.51
0
LINE
8
BLACK
6
CONTINUOUS
10
210.479
20
-112.51
11
210.475
21
-112.5
0
LINE
8
BLACK
6
CONTINUOUS
10
210.475
20
-112.5
11
210.475
21
-28.5
0
LINE
8
BLACK
6
CONTINUOUS
10
210.475
20
-28.5
11
210.479
21
-28.4905
0
LINE
8
BLACK
6
CONTINUOUS
10
210.479
20
-28.4905
11
210.461
21
-28.2011
0
LINE
8
BLACK
6
CONTINUOUS
10
210.461
20
-28.2011
11
210.407
21
-27.9066
0
LINE
8
BLACK
6
CONTINUOUS
10
210.407
20
-27.9066
11
210.318
21
-27.6207
0
LINE
8
BLACK
6
CONTINUOUS
10
210.318
20
-27.6207
11
210.196
21
-27.3477
0
LINE
8
BLACK
6
CONTINUOUS
10
210.196
20
-27.3477
11
210.041
21
-27.0915
0
LINE
8
BLACK
6
CONTINUOUS
10
210.041
20
-27.0915
11
209.856
21
-26.8558
0
LINE
8
BLACK
6
CONTINUOUS
10
209.856
20
-26.8558
11
209.644
21
-26.6441
0
LINE
8
BLACK
6
CONTINUOUS
10
209.644
20
-26.6441
11
209.409
21
-26.4594
0
LINE
8
BLACK
6
CONTINUOUS
10
209.409
20
-26.4594
11
209.152
21
-26.3045
0
LINE
8
BLACK
6
CONTINUOUS
10
209.152
20
-26.3045
11
208.879
21
-26.1816
0
LINE
8
BLACK
6
CONTINUOUS
10
208.879
20
-26.1816
11
208.593
21
-26.0925
0
LINE
8
BLACK
6
CONTINUOUS
10
208.593
20
-26.0925
11
208.299
21
-26.0386
0
LINE
8
BLACK
6
CONTINUOUS
10
208.299
20
-26.0386
11
208.01
21
-26.0211
0
LINE
8
BLACK
6
CONTINUOUS
10
208.01
20
-26.0211
11
208
21
-26.025
0
LINE
8
BLACK
6
CONTINUOUS
10
208
20
-26.025
11
126.5
21
-26.025
0
LINE
8
BLACK
6
CONTINUOUS
10
126.5
20
-26.025
11
126.49
21
-26.0211
0
LINE
8
BLACK
6
CONTINUOUS
10
206.203
20
-112.183
11
206.269
21
-111.921
0
LINE
8
BLACK
6
CONTINUOUS
10
206.269
20
-111.921
11
206.374
21
-111.671
0
LINE
8
BLACK
6
CONTINUOUS
10
206.374
20
-111.671
11
206.514
21
-111.44
0
LINE
8
BLACK
6
CONTINUOUS
10
206.514
20
-111.44
11
206.687
21
-111.232
0
LINE
8
BLACK
6
CONTINUOUS
10
206.687
20
-111.232
11
206.889
21
-111.052
0
LINE
8
BLACK
6
CONTINUOUS
10
206.889
20
-111.052
11
207.115
21
-110.904
0
LINE
8
BLACK
6
CONTINUOUS
10
207.115
20
-110.904
11
207.361
21
-110.791
0
LINE
8
BLACK
6
CONTINUOUS
10
207.361
20
-110.791
11
207.621
21
-110.715
0
LINE
8
BLACK
6
CONTINUOUS
10
207.621
20
-110.715
11
207.889
21
-110.678
0
LINE
8
BLACK
6
CONTINUOUS
10
207.889
20
-110.678
11
208.159
21
-110.682
0
LINE
8
BLACK
6
CONTINUOUS
10
208.159
20
-110.682
11
208.426
21
-110.725
0
LINE
8
BLACK
6
CONTINUOUS
10
208.426
20
-110.725
11
208.684
21
-110.808
0
LINE
8
BLACK
6
CONTINUOUS
10
208.684
20
-110.808
11
208.926
21
-110.928
0
LINE
8
BLACK
6
CONTINUOUS
10
208.926
20
-110.928
11
209.149
21
-111.082
0
LINE
8
BLACK
6
CONTINUOUS
10
209.149
20
-111.082
11
209.346
21
-111.267
0
LINE
8
BLACK
6
CONTINUOUS
10
209.346
20
-111.267
11
209.513
21
-111.479
0
LINE
8
BLACK
6
CONTINUOUS
10
209.513
20
-111.479
11
209.647
21
-111.714
0
LINE
8
BLACK
6
CONTINUOUS
10
209.647
20
-111.714
11
209.745
21
-111.966
0
LINE
8
BLACK
6
CONTINUOUS
10
209.745
20
-111.966
11
209.805
21
-112.23
0
LINE
8
BLACK
6
CONTINUOUS
10
209.805
20
-112.23
11
209.825
21
-112.5
0
LINE
8
BLACK
6
CONTINUOUS
10
209.825
20
-112.5
11
209.822
21
-112.596
0
LINE
8
BLACK
6
CONTINUOUS
10
209.822
20
-112.596
11
209.788
21
-112.864
0
LINE
8
BLACK
6
CONTINUOUS
10
209.788
20
-112.864
11
209.715
21
-113.124
0
LINE
8
BLACK
6
CONTINUOUS
10
209.715
20
-113.124
11
209.604
21
-113.371
0
LINE
8
BLACK
6
CONTINUOUS
10
209.604
20
-113.371
11
209.458
21
-113.598
0
LINE
8
BLACK
6
CONTINUOUS
10
209.458
20
-113.598
11
209.279
21
-113.802
0
LINE
8
BLACK
6
CONTINUOUS
10
209.279
20
-113.802
11
209.073
21
-113.976
0
LINE
8
BLACK
6
CONTINUOUS
10
209.073
20
-113.976
11
208.843
21
-114.119
0
LINE
8
BLACK
6
CONTINUOUS
10
208.843
20
-114.119
11
208.594
21
-114.226
0
LINE
8
BLACK
6
CONTINUOUS
10
208.594
20
-114.226
11
208.333
21
-114.294
0
LINE
8
BLACK
6
CONTINUOUS
10
208.333
20
-114.294
11
208.064
21
-114.324
0
LINE
8
BLACK
6
CONTINUOUS
10
208.064
20
-114.324
11
207.793
21
-114.313
0
LINE
8
BLACK
6
CONTINUOUS
10
207.793
20
-114.313
11
207.528
21
-114.263
0
LINE
8
BLACK
6
CONTINUOUS
10
207.528
20
-114.263
11
207.272
21
-114.174
0
LINE
8
BLACK
6
CONTINUOUS
10
207.272
20
-114.174
11
207.033
21
-114.048
0
LINE
8
BLACK
6
CONTINUOUS
10
207.033
20
-114.048
11
206.815
21
-113.888
0
LINE
8
BLACK
6
CONTINUOUS
10
206.815
20
-113.888
11
206.623
21
-113.697
0
LINE
8
BLACK
6
CONTINUOUS
10
206.623
20
-113.697
11
206.461
21
-113.481
0
LINE
8
BLACK
6
CONTINUOUS
10
206.461
20
-113.481
11
206.333
21
-113.242
0
LINE
8
BLACK
6
CONTINUOUS
10
206.333
20
-113.242
11
206.241
21
-112.988
0
LINE
8
BLACK
6
CONTINUOUS
10
206.241
20
-112.988
11
206.189
21
-112.722
0
LINE
8
BLACK
6
CONTINUOUS
10
206.189
20
-112.722
11
206.176
21
-112.453
0
LINE
8
BLACK
6
CONTINUOUS
10
206.176
20
-112.453
11
206.176
21
-112.452
0
LINE
8
BLACK
6
CONTINUOUS
10
206.176
20
-112.452
11
206.203
21
-112.183
0
LINE
8
BLACK
6
CONTINUOUS
10
206.285
20
-112.976
11
206.374
21
-113.224
0
LINE
8
BLACK
6
CONTINUOUS
10
206.374
20
-113.224
11
206.499
21
-113.456
0
LINE
8
BLACK
6
CONTINUOUS
10
206.499
20
-113.456
11
206.657
21
-113.668
0
LINE
8
BLACK
6
CONTINUOUS
10
206.657
20
-113.668
11
206.844
21
-113.854
0
LINE
8
BLACK
6
CONTINUOUS
10
206.844
20
-113.854
11
207.057
21
-114.01
0
LINE
8
BLACK
6
CONTINUOUS
10
207.057
20
-114.01
11
207.29
21
-114.132
0
LINE
8
BLACK
6
CONTINUOUS
10
207.29
20
-114.132
11
207.539
21
-114.219
0
LINE
8
BLACK
6
CONTINUOUS
10
207.539
20
-114.219
11
207.799
21
-114.269
0
LINE
8
BLACK
6
CONTINUOUS
10
207.799
20
-114.269
11
208.062
21
-114.279
0
LINE
8
BLACK
6
CONTINUOUS
10
208.062
20
-114.279
11
208.324
21
-114.25
0
LINE
8
BLACK
6
CONTINUOUS
10
208.324
20
-114.25
11
208.58
21
-114.183
0
LINE
8
BLACK
6
CONTINUOUS
10
208.58
20
-114.183
11
208.822
21
-114.079
0
LINE
8
BLACK
6
CONTINUOUS
10
208.822
20
-114.079
11
209.046
21
-113.94
0
LINE
8
BLACK
6
CONTINUOUS
10
209.046
20
-113.94
11
209.248
21
-113.77
0
LINE
8
BLACK
6
CONTINUOUS
10
209.248
20
-113.77
11
209.422
21
-113.571
0
LINE
8
BLACK
6
CONTINUOUS
10
209.422
20
-113.571
11
209.564
21
-113.349
0
LINE
8
BLACK
6
CONTINUOUS
10
209.564
20
-113.349
11
209.673
21
-113.109
0
LINE
8
BLACK
6
CONTINUOUS
10
209.673
20
-113.109
11
209.744
21
-112.855
0
LINE
8
BLACK
6
CONTINUOUS
10
209.744
20
-112.855
11
209.778
21
-112.593
0
LINE
8
BLACK
6
CONTINUOUS
10
209.778
20
-112.593
11
209.78
21
-112.5
0
LINE
8
BLACK
6
CONTINUOUS
10
209.78
20
-112.5
11
209.76
21
-112.237
0
LINE
8
BLACK
6
CONTINUOUS
10
209.76
20
-112.237
11
209.702
21
-111.98
0
LINE
8
BLACK
6
CONTINUOUS
10
209.702
20
-111.98
11
209.607
21
-111.734
0
LINE
8
BLACK
6
CONTINUOUS
10
209.607
20
-111.734
11
209.476
21
-111.505
0
LINE
8
BLACK
6
CONTINUOUS
10
209.476
20
-111.505
11
209.312
21
-111.297
0
LINE
8
BLACK
6
CONTINUOUS
10
209.312
20
-111.297
11
209.12
21
-111.117
0
LINE
8
BLACK
6
CONTINUOUS
10
209.12
20
-111.117
11
208.903
21
-110.966
0
LINE
8
BLACK
6
CONTINUOUS
10
208.903
20
-110.966
11
208.667
21
-110.85
0
LINE
8
BLACK
6
CONTINUOUS
10
208.667
20
-110.85
11
208.416
21
-110.769
0
LINE
8
BLACK
6
CONTINUOUS
10
208.416
20
-110.769
11
208.155
21
-110.727
0
LINE
8
BLACK
6
CONTINUOUS
10
208.155
20
-110.727
11
207.891
21
-110.723
0
LINE
8
BLACK
6
CONTINUOUS
10
207.891
20
-110.723
11
207.63
21
-110.759
0
LINE
8
BLACK
6
CONTINUOUS
10
207.63
20
-110.759
11
207.377
21
-110.833
0
LINE
8
BLACK
6
CONTINUOUS
10
207.377
20
-110.833
11
207.137
21
-110.943
0
LINE
8
BLACK
6
CONTINUOUS
10
207.137
20
-110.943
11
206.916
21
-111.088
0
LINE
8
BLACK
6
CONTINUOUS
10
206.916
20
-111.088
11
206.72
21
-111.264
0
LINE
8
BLACK
6
CONTINUOUS
10
206.72
20
-111.264
11
206.551
21
-111.466
0
LINE
8
BLACK
6
CONTINUOUS
10
206.551
20
-111.466
11
206.414
21
-111.692
0
LINE
8
BLACK
6
CONTINUOUS
10
206.414
20
-111.692
11
206.312
21
-111.935
0
LINE
8
BLACK
6
CONTINUOUS
10
206.312
20
-111.935
11
206.247
21
-112.191
0
LINE
8
BLACK
6
CONTINUOUS
10
206.247
20
-112.191
11
206.221
21
-112.453
0
LINE
8
BLACK
6
CONTINUOUS
10
206.221
20
-112.453
11
206.233
21
-112.717
0
LINE
8
BLACK
6
CONTINUOUS
10
206.233
20
-112.717
11
206.285
21
-112.976
0
LINE
8
BLACK
6
CONTINUOUS
10
124.703
20
-112.183
11
124.769
21
-111.921
0
LINE
8
BLACK
6
CONTINUOUS
10
124.769
20
-111.921
11
124.874
21
-111.671
0
LINE
8
BLACK
6
CONTINUOUS
10
124.874
20
-111.671
11
125.014
21
-111.44
0
LINE
8
BLACK
6
CONTINUOUS
10
125.014
20
-111.44
11
125.187
21
-111.232
0
LINE
8
BLACK
6
CONTINUOUS
10
125.187
20
-111.232
11
125.389
21
-111.052
0
LINE
8
BLACK
6
CONTINUOUS
10
125.389
20
-111.052
11
125.615
21
-110.904
0
LINE
8
BLACK
6
CONTINUOUS
10
125.615
20
-110.904
11
125.861
21
-110.791
0
LINE
8
BLACK
6
CONTINUOUS
10
125.861
20
-110.791
11
126.121
21
-110.715
0
LINE
8
BLACK
6
CONTINUOUS
10
126.121
20
-110.715
11
126.389
21
-110.678
0
LINE
8
BLACK
6
CONTINUOUS
10
126.389
20
-110.678
11
126.659
21
-110.682
0
LINE
8
BLACK
6
CONTINUOUS
10
126.659
20
-110.682
11
126.926
21
-110.725
0
LINE
8
BLACK
6
CONTINUOUS
10
126.926
20
-110.725
11
127.184
21
-110.808
0
LINE
8
BLACK
6
CONTINUOUS
10
127.184
20
-110.808
11
127.426
21
-110.928
0
LINE
8
BLACK
6
CONTINUOUS
10
127.426
20
-110.928
11
127.649
21
-111.082
0
LINE
8
BLACK
6
CONTINUOUS
10
127.649
20
-111.082
11
127.846
21
-111.267
0
LINE
8
BLACK
6
CONTINUOUS
10
127.846
20
-111.267
11
128.013
21
-111.479
0
LINE
8
BLACK
6
CONTINUOUS
10
128.013
20
-111.479
11
128.147
21
-111.714
0
LINE
8
BLACK
6
CONTINUOUS
10
128.147
20
-111.714
11
128.245
21
-111.966
0
LINE
8
BLACK
6
CONTINUOUS
10
128.245
20
-111.966
11
128.305
21
-112.23
0
LINE
8
BLACK
6
CONTINUOUS
10
128.305
20
-112.23
11
128.325
21
-112.5
0
LINE
8
BLACK
6
CONTINUOUS
10
128.325
20
-112.5
11
128.322
21
-112.596
0
LINE
8
BLACK
6
CONTINUOUS
10
128.322
20
-112.596
11
128.288
21
-112.864
0
LINE
8
BLACK
6
CONTINUOUS
10
128.288
20
-112.864
11
128.215
21
-113.124
0
LINE
8
BLACK
6
CONTINUOUS
10
128.215
20
-113.124
11
128.104
21
-113.371
0
LINE
8
BLACK
6
CONTINUOUS
10
128.104
20
-113.371
11
127.958
21
-113.598
0
LINE
8
BLACK
6
CONTINUOUS
10
127.958
20
-113.598
11
127.779
21
-113.802
0
LINE
8
BLACK
6
CONTINUOUS
10
127.779
20
-113.802
11
127.573
21
-113.976
0
LINE
8
BLACK
6
CONTINUOUS
10
127.573
20
-113.976
11
127.343
21
-114.119
0
LINE
8
BLACK
6
CONTINUOUS
10
127.343
20
-114.119
11
127.094
21
-114.226
0
LINE
8
BLACK
6
CONTINUOUS
10
127.094
20
-114.226
11
126.833
21
-114.294
0
LINE
8
BLACK
6
CONTINUOUS
10
126.833
20
-114.294
11
126.564
21
-114.324
0
LINE
8
BLACK
6
CONTINUOUS
10
126.564
20
-114.324
11
126.293
21
-114.313
0
LINE
8
BLACK
6
CONTINUOUS
10
126.293
20
-114.313
11
126.028
21
-114.263
0
LINE
8
BLACK
6
CONTINUOUS
10
126.028
20
-114.263
11
125.772
21
-114.174
0
LINE
8
BLACK
6
CONTINUOUS
10
125.772
20
-114.174
11
125.533
21
-114.048
0
LINE
8
BLACK
6
CONTINUOUS
10
125.533
20
-114.048
11
125.315
21
-113.888
0
LINE
8
BLACK
6
CONTINUOUS
10
125.315
20
-113.888
11
125.123
21
-113.697
0
LINE
8
BLACK
6
CONTINUOUS
10
125.123
20
-113.697
11
124.961
21
-113.481
0
LINE
8
BLACK
6
CONTINUOUS
10
124.961
20
-113.481
11
124.833
21
-113.242
0
LINE
8
BLACK
6
CONTINUOUS
10
124.833
20
-113.242
11
124.741
21
-112.988
0
LINE
8
BLACK
6
CONTINUOUS
10
124.741
20
-112.988
11
124.689
21
-112.722
0
LINE
8
BLACK
6
CONTINUOUS
10
124.689
20
-112.722
11
124.676
21
-112.453
0
LINE
8
BLACK
6
CONTINUOUS
10
124.676
20
-112.453
11
124.676
21
-112.452
0
LINE
8
BLACK
6
CONTINUOUS
10
124.676
20
-112.452
11
124.703
21
-112.183
0
LINE
8
BLACK
6
CONTINUOUS
10
124.785
20
-112.976
11
124.874
21
-113.224
0
LINE
8
BLACK
6
CONTINUOUS
10
124.874
20
-113.224
11
124.999
21
-113.456
0
LINE
8
BLACK
6
CONTINUOUS
10
124.999
20
-113.456
11
125.157
21
-113.668
0
LINE
8
BLACK
6
CONTINUOUS
10
125.157
20
-113.668
11
125.344
21
-113.854
0
LINE
8
BLACK
6
CONTINUOUS
10
125.344
20
-113.854
11
125.557
21
-114.01
0
LINE
8
BLACK
6
CONTINUOUS
10
125.557
20
-114.01
11
125.79
21
-114.132
0
LINE
8
BLACK
6
CONTINUOUS
10
125.79
20
-114.132
11
126.039
21
-114.219
0
LINE
8
BLACK
6
CONTINUOUS
10
126.039
20
-114.219
11
126.299
21
-114.269
0
LINE
8
BLACK
6
CONTINUOUS
10
126.299
20
-114.269
11
126.562
21
-114.279
0
LINE
8
BLACK
6
CONTINUOUS
10
126.562
20
-114.279
11
126.824
21
-114.25
0
LINE
8
BLACK
6
CONTINUOUS
10
126.824
20
-114.25
11
127.08
21
-114.183
0
LINE
8
BLACK
6
CONTINUOUS
10
127.08
20
-114.183
11
127.322
21
-114.079
0
LINE
8
BLACK
6
CONTINUOUS
10
127.322
20
-114.079
11
127.546
21
-113.94
0
LINE
8
BLACK
6
CONTINUOUS
10
127.546
20
-113.94
11
127.748
21
-113.77
0
LINE
8
BLACK
6
CONTINUOUS
10
127.748
20
-113.77
11
127.922
21
-113.571
0
LINE
8
BLACK
6
CONTINUOUS
10
127.922
20
-113.571
11
128.064
21
-113.349
0
LINE
8
BLACK
6
CONTINUOUS
10
128.064
20
-113.349
11
128.173
21
-113.109
0
LINE
8
BLACK
6
CONTINUOUS
10
128.173
20
-113.109
11
128.244
21
-112.855
0
LINE
8
BLACK
6
CONTINUOUS
10
128.244
20
-112.855
11
128.278
21
-112.593
0
LINE
8
BLACK
6
CONTINUOUS
10
128.278
20
-112.593
11
128.28
21
-112.5
0
LINE
8
BLACK
6
CONTINUOUS
10
128.28
20
-112.5
11
128.26
21
-112.237
0
LINE
8
BLACK
6
CONTINUOUS
10
128.26
20
-112.237
11
128.202
21
-111.98
0
LINE
8
BLACK
6
CONTINUOUS
10
128.202
20
-111.98
11
128.107
21
-111.734
0
LINE
8
BLACK
6
CONTINUOUS
10
128.107
20
-111.734
11
127.976
21
-111.505
0
LINE
8
BLACK
6
CONTINUOUS
10
127.976
20
-111.505
11
127.812
21
-111.297
0
LINE
8
BLACK
6
CONTINUOUS
10
127.812
20
-111.297
11
127.62
21
-111.117
0
LINE
8
BLACK
6
CONTINUOUS
10
127.62
20
-111.117
11
127.403
21
-110.966
0
LINE
8
BLACK
6
CONTINUOUS
10
127.403
20
-110.966
11
127.167
21
-110.85
0
LINE
8
BLACK
6
CONTINUOUS
10
127.167
20
-110.85
11
126.916
21
-110.769
0
LINE
8
BLACK
6
CONTINUOUS
10
126.916
20
-110.769
11
126.655
21
-110.727
0
LINE
8
BLACK
6
CONTINUOUS
10
126.655
20
-110.727
11
126.391
21
-110.723
0
LINE
8
BLACK
6
CONTINUOUS
10
126.391
20
-110.723
11
126.13
21
-110.759
0
LINE
8
BLACK
6
CONTINUOUS
10
126.13
20
-110.759
11
125.877
21
-110.833
0
LINE
8
BLACK
6
CONTINUOUS
10
125.877
20
-110.833
11
125.637
21
-110.943
0
LINE
8
BLACK
6
CONTINUOUS
10
125.637
20
-110.943
11
125.416
21
-111.088
0
LINE
8
BLACK
6
CONTINUOUS
10
125.416
20
-111.088
11
125.22
21
-111.264
0
LINE
8
BLACK
6
CONTINUOUS
10
125.22
20
-111.264
11
125.051
21
-111.466
0
LINE
8
BLACK
6
CONTINUOUS
10
125.051
20
-111.466
11
124.914
21
-111.692
0
LINE
8
BLACK
6
CONTINUOUS
10
124.914
20
-111.692
11
124.812
21
-111.935
0
LINE
8
BLACK
6
CONTINUOUS
10
124.812
20
-111.935
11
124.747
21
-112.191
0
LINE
8
BLACK
6
CONTINUOUS
10
124.747
20
-112.191
11
124.721
21
-112.453
0
LINE
8
BLACK
6
CONTINUOUS
10
124.721
20
-112.453
11
124.733
21
-112.717
0
LINE
8
BLACK
6
CONTINUOUS
10
124.733
20
-112.717
11
124.785
21
-112.976
0
LINE
8
BLACK
6
CONTINUOUS
10
206.203
20
-28.1831
11
206.269
21
-27.9209
0
LINE
8
BLACK
6
CONTINUOUS
10
206.269
20
-27.9209
11
206.374
21
-27.6715
0
LINE
8
BLACK
6
CONTINUOUS
10
206.374
20
-27.6715
11
206.514
21
-27.4402
0
LINE
8
BLACK
6
CONTINUOUS
10
206.514
20
-27.4402
11
206.687
21
-27.2322
0
LINE
8
BLACK
6
CONTINUOUS
10
206.687
20
-27.2322
11
206.889
21
-27.0521
0
LINE
8
BLACK
6
CONTINUOUS
10
206.889
20
-27.0521
11
207.115
21
-26.9038
0
LINE
8
BLACK
6
CONTINUOUS
10
207.115
20
-26.9038
11
207.361
21
-26.7906
0
LINE
8
BLACK
6
CONTINUOUS
10
207.361
20
-26.7906
11
207.621
21
-26.7149
0
LINE
8
BLACK
6
CONTINUOUS
10
207.621
20
-26.7149
11
207.889
21
-26.6784
0
LINE
8
BLACK
6
CONTINUOUS
10
207.889
20
-26.6784
11
208.159
21
-26.6819
0
LINE
8
BLACK
6
CONTINUOUS
10
208.159
20
-26.6819
11
208.426
21
-26.7254
0
LINE
8
BLACK
6
CONTINUOUS
10
208.426
20
-26.7254
11
208.684
21
-26.8079
0
LINE
8
BLACK
6
CONTINUOUS
10
208.684
20
-26.8079
11
208.926
21
-26.9275
0
LINE
8
BLACK
6
CONTINUOUS
10
208.926
20
-26.9275
11
209.149
21
-27.0817
0
LINE
8
BLACK
6
CONTINUOUS
10
209.149
20
-27.0817
11
209.346
21
-27.267
0
LINE
8
BLACK
6
CONTINUOUS
10
209.346
20
-27.267
11
209.513
21
-27.4795
0
LINE
8
BLACK
6
CONTINUOUS
10
209.513
20
-27.4795
11
209.647
21
-27.7143
0
LINE
8
BLACK
6
CONTINUOUS
10
209.647
20
-27.7143
11
209.745
21
-27.9664
0
LINE
8
BLACK
6
CONTINUOUS
10
209.745
20
-27.9664
11
209.805
21
-28.2302
0
LINE
8
BLACK
6
CONTINUOUS
10
209.805
20
-28.2302
11
209.825
21
-28.5
0
LINE
8
BLACK
6
CONTINUOUS
10
209.825
20
-28.5
11
209.822
21
-28.5955
0
LINE
8
BLACK
6
CONTINUOUS
10
209.822
20
-28.5955
11
209.788
21
-28.8638
0
LINE
8
BLACK
6
CONTINUOUS
10
209.788
20
-28.8638
11
209.715
21
-29.1242
0
LINE
8
BLACK
6
CONTINUOUS
10
209.715
20
-29.1242
11
209.604
21
-29.3708
0
LINE
8
BLACK
6
CONTINUOUS
10
209.604
20
-29.3708
11
209.458
21
-29.5983
0
LINE
8
BLACK
6
CONTINUOUS
10
209.458
20
-29.5983
11
209.279
21
-29.8017
0
LINE
8
BLACK
6
CONTINUOUS
10
209.279
20
-29.8017
11
209.073
21
-29.9765
0
LINE
8
BLACK
6
CONTINUOUS
10
209.073
20
-29.9765
11
208.843
21
-30.1188
0
LINE
8
BLACK
6
CONTINUOUS
10
208.843
20
-30.1188
11
208.594
21
-30.2256
0
LINE
8
BLACK
6
CONTINUOUS
10
208.594
20
-30.2256
11
208.333
21
-30.2944
0
LINE
8
BLACK
6
CONTINUOUS
10
208.333
20
-30.2944
11
208.064
21
-30.3239
0
LINE
8
BLACK
6
CONTINUOUS
10
208.064
20
-30.3239
11
207.793
21
-30.3133
0
LINE
8
BLACK
6
CONTINUOUS
10
207.793
20
-30.3133
11
207.528
21
-30.2628
0
LINE
8
BLACK
6
CONTINUOUS
10
207.528
20
-30.2628
11
207.272
21
-30.1736
0
LINE
8
BLACK
6
CONTINUOUS
10
207.272
20
-30.1736
11
207.033
21
-30.0477
0
LINE
8
BLACK
6
CONTINUOUS
10
207.033
20
-30.0477
11
206.815
21
-29.8877
0
LINE
8
BLACK
6
CONTINUOUS
10
206.815
20
-29.8877
11
206.623
21
-29.6973
0
LINE
8
BLACK
6
CONTINUOUS
10
206.623
20
-29.6973
11
206.461
21
-29.4806
0
LINE
8
BLACK
6
CONTINUOUS
10
206.461
20
-29.4806
11
206.333
21
-29.2423
0
LINE
8
BLACK
6
CONTINUOUS
10
206.333
20
-29.2423
11
206.241
21
-28.9877
0
LINE
8
BLACK
6
CONTINUOUS
10
206.241
20
-28.9877
11
206.189
21
-28.7224
0
LINE
8
BLACK
6
CONTINUOUS
10
206.189
20
-28.7224
11
206.176
21
-28.4534
0
LINE
8
BLACK
6
CONTINUOUS
10
206.176
20
-28.4534
11
206.176
21
-28.4522
0
LINE
8
BLACK
6
CONTINUOUS
10
206.176
20
-28.4522
11
206.203
21
-28.1831
0
LINE
8
BLACK
6
CONTINUOUS
10
206.285
20
-28.9757
11
206.374
21
-29.224
0
LINE
8
BLACK
6
CONTINUOUS
10
206.374
20
-29.224
11
206.499
21
-29.4564
0
LINE
8
BLACK
6
CONTINUOUS
10
206.499
20
-29.4564
11
206.657
21
-29.6678
0
LINE
8
BLACK
6
CONTINUOUS
10
206.657
20
-29.6678
11
206.844
21
-29.8535
0
LINE
8
BLACK
6
CONTINUOUS
10
206.844
20
-29.8535
11
207.057
21
-30.0095
0
LINE
8
BLACK
6
CONTINUOUS
10
207.057
20
-30.0095
11
207.29
21
-30.1323
0
LINE
8
BLACK
6
CONTINUOUS
10
207.29
20
-30.1323
11
207.539
21
-30.2193
0
LINE
8
BLACK
6
CONTINUOUS
10
207.539
20
-30.2193
11
207.799
21
-30.2685
0
LINE
8
BLACK
6
CONTINUOUS
10
207.799
20
-30.2685
11
208.062
21
-30.2789
0
LINE
8
BLACK
6
CONTINUOUS
10
208.062
20
-30.2789
11
208.324
21
-30.2502
0
LINE
8
BLACK
6
CONTINUOUS
10
208.324
20
-30.2502
11
208.58
21
-30.183
0
LINE
8
BLACK
6
CONTINUOUS
10
208.58
20
-30.183
11
208.822
21
-30.0789
0
LINE
8
BLACK
6
CONTINUOUS
10
208.822
20
-30.0789
11
209.046
21
-29.94
0
LINE
8
BLACK
6
CONTINUOUS
10
209.046
20
-29.94
11
209.248
21
-29.7696
0
LINE
8
BLACK
6
CONTINUOUS
10
209.248
20
-29.7696
11
209.422
21
-29.5712
0
LINE
8
BLACK
6
CONTINUOUS
10
209.422
20
-29.5712
11
209.564
21
-29.3493
0
LINE
8
BLACK
6
CONTINUOUS
10
209.564
20
-29.3493
11
209.673
21
-29.1088
0
LINE
8
BLACK
6
CONTINUOUS
10
209.673
20
-29.1088
11
209.744
21
-28.8549
0
LINE
8
BLACK
6
CONTINUOUS
10
209.744
20
-28.8549
11
209.778
21
-28.5932
0
LINE
8
BLACK
6
CONTINUOUS
10
209.778
20
-28.5932
11
209.78
21
-28.5
0
LINE
8
BLACK
6
CONTINUOUS
10
209.78
20
-28.5
11
209.76
21
-28.2369
0
LINE
8
BLACK
6
CONTINUOUS
10
209.76
20
-28.2369
11
209.702
21
-27.9796
0
LINE
8
BLACK
6
CONTINUOUS
10
209.702
20
-27.9796
11
209.607
21
-27.7337
0
LINE
8
BLACK
6
CONTINUOUS
10
209.607
20
-27.7337
11
209.476
21
-27.5046
0
LINE
8
BLACK
6
CONTINUOUS
10
209.476
20
-27.5046
11
209.312
21
-27.2975
0
LINE
8
BLACK
6
CONTINUOUS
10
209.312
20
-27.2975
11
209.12
21
-27.1167
0
LINE
8
BLACK
6
CONTINUOUS
10
209.12
20
-27.1167
11
208.903
21
-26.9663
0
LINE
8
BLACK
6
CONTINUOUS
10
208.903
20
-26.9663
11
208.667
21
-26.8496
0
LINE
8
BLACK
6
CONTINUOUS
10
208.667
20
-26.8496
11
208.416
21
-26.7692
0
LINE
8
BLACK
6
CONTINUOUS
10
208.416
20
-26.7692
11
208.155
21
-26.7268
0
LINE
8
BLACK
6
CONTINUOUS
10
208.155
20
-26.7268
11
207.891
21
-26.7233
0
LINE
8
BLACK
6
CONTINUOUS
10
207.891
20
-26.7233
11
207.63
21
-26.7589
0
LINE
8
BLACK
6
CONTINUOUS
10
207.63
20
-26.7589
11
207.377
21
-26.8327
0
LINE
8
BLACK
6
CONTINUOUS
10
207.377
20
-26.8327
11
207.137
21
-26.9432
0
LINE
8
BLACK
6
CONTINUOUS
10
207.137
20
-26.9432
11
206.916
21
-27.0878
0
LINE
8
BLACK
6
CONTINUOUS
10
206.916
20
-27.0878
11
206.72
21
-27.2635
0
LINE
8
BLACK
6
CONTINUOUS
10
206.72
20
-27.2635
11
206.551
21
-27.4664
0
LINE
8
BLACK
6
CONTINUOUS
10
206.551
20
-27.4664
11
206.414
21
-27.6919
0
LINE
8
BLACK
6
CONTINUOUS
10
206.414
20
-27.6919
11
206.312
21
-27.9352
0
LINE
8
BLACK
6
CONTINUOUS
10
206.312
20
-27.9352
11
206.247
21
-28.1909
0
LINE
8
BLACK
6
CONTINUOUS
10
206.247
20
-28.1909
11
206.221
21
-28.4534
0
LINE
8
BLACK
6
CONTINUOUS
10
206.221
20
-28.4534
11
206.233
21
-28.7169
0
LINE
8
BLACK
6
CONTINUOUS
10
206.233
20
-28.7169
11
206.285
21
-28.9757
0
LINE
8
BLACK
6
CONTINUOUS
10
124.703
20
-28.1831
11
124.769
21
-27.9209
0
LINE
8
BLACK
6
CONTINUOUS
10
124.769
20
-27.9209
11
124.874
21
-27.6715
0
LINE
8
BLACK
6
CONTINUOUS
10
124.874
20
-27.6715
11
125.014
21
-27.4402
0
LINE
8
BLACK
6
CONTINUOUS
10
125.014
20
-27.4402
11
125.187
21
-27.2322
0
LINE
8
BLACK
6
CONTINUOUS
10
125.187
20
-27.2322
11
125.389
21
-27.0521
0
LINE
8
BLACK
6
CONTINUOUS
10
125.389
20
-27.0521
11
125.615
21
-26.9038
0
LINE
8
BLACK
6
CONTINUOUS
10
125.615
20
-26.9038
11
125.861
21
-26.7906
0
LINE
8
BLACK
6
CONTINUOUS
10
125.861
20
-26.7906
11
126.121
21
-26.7149
0
LINE
8
BLACK
6
CONTINUOUS
10
126.121
20
-26.7149
11
126.389
21
-26.6784
0
LINE
8
BLACK
6
CONTINUOUS
10
126.389
20
-26.6784
11
126.659
21
-26.6819
0
LINE
8
BLACK
6
CONTINUOUS
10
126.659
20
-26.6819
11
126.926
21
-26.7254
0
LINE
8
BLACK
6
CONTINUOUS
10
126.926
20
-26.7254
11
127.184
21
-26.8079
0
LINE
8
BLACK
6
CONTINUOUS
10
127.184
20
-26.8079
11
127.426
21
-26.9275
0
LINE
8
BLACK
6
CONTINUOUS
10
127.426
20
-26.9275
11
127.649
21
-27.0817
0
LINE
8
BLACK
6
CONTINUOUS
10
127.649
20
-27.0817
11
127.846
21
-27.267
0
LINE
8
BLACK
6
CONTINUOUS
10
127.846
20
-27.267
11
128.013
21
-27.4795
0
LINE
8
BLACK
6
CONTINUOUS
10
128.013
20
-27.4795
11
128.147
21
-27.7143
0
LINE
8
BLACK
6
CONTINUOUS
10
128.147
20
-27.7143
11
128.245
21
-27.9664
0
LINE
8
BLACK
6
CONTINUOUS
10
128.245
20
-27.9664
11
128.305
21
-28.2302
0
LINE
8
BLACK
6
CONTINUOUS
10
128.305
20
-28.2302
11
128.325
21
-28.5
0
LINE
8
BLACK
6
CONTINUOUS
10
128.325
20
-28.5
11
128.322
21
-28.5955
0
LINE
8
BLACK
6
CONTINUOUS
10
128.322
20
-28.5955
11
128.288
21
-28.8638
0
LINE
8
BLACK
6
CONTINUOUS
10
128.288
20
-28.8638
11
128.215
21
-29.1242
0
LINE
8
BLACK
6
CONTINUOUS
10
128.215
20
-29.1242
11
128.104
21
-29.3708
0
LINE
8
BLACK
6
CONTINUOUS
10
128.104
20
-29.3708
11
127.958
21
-29.5983
0
LINE
8
BLACK
6
CONTINUOUS
10
127.958
20
-29.5983
11
127.779
21
-29.8017
0
LINE
8
BLACK
6
CONTINUOUS
10
127.779
20
-29.8017
11
127.573
21
-29.9765
0
LINE
8
BLACK
6
CONTINUOUS
10
127.573
20
-29.9765
11
127.343
21
-30.1188
0
LINE
8
BLACK
6
CONTINUOUS
10
127.343
20
-30.1188
11
127.094
21
-30.2256
0
LINE
8
BLACK
6
CONTINUOUS
10
127.094
20
-30.2256
11
126.833
21
-30.2944
0
LINE
8
BLACK
6
CONTINUOUS
10
126.833
20
-30.2944
11
126.564
21
-30.3239
0
LINE
8
BLACK
6
CONTINUOUS
10
126.564
20
-30.3239
11
126.293
21
-30.3133
0
LINE
8
BLACK
6
CONTINUOUS
10
126.293
20
-30.3133
11
126.028
21
-30.2628
0
LINE
8
BLACK
6
CONTINUOUS
10
126.028
20
-30.2628
11
125.772
21
-30.1736
0
LINE
8
BLACK
6
CONTINUOUS
10
125.772
20
-30.1736
11
125.533
21
-30.0477
0
LINE
8
BLACK
6
CONTINUOUS
10
125.533
20
-30.0477
11
125.315
21
-29.8877
0
LINE
8
BLACK
6
CONTINUOUS
10
125.315
20
-29.8877
11
125.123
21
-29.6973
0
LINE
8
BLACK
6
CONTINUOUS
10
125.123
20
-29.6973
11
124.961
21
-29.4806
0
LINE
8
BLACK
6
CONTINUOUS
10
124.961
20
-29.4806
11
124.833
21
-29.2423
0
LINE
8
BLACK
6
CONTINUOUS
10
124.833
20
-29.2423
11
124.741
21
-28.9877
0
LINE
8
BLACK
6
CONTINUOUS
10
124.741
20
-28.9877
11
124.689
21
-28.7224
0
LINE
8
BLACK
6
CONTINUOUS
10
124.689
20
-28.7224
11
124.676
21
-28.4534
0
LINE
8
BLACK
6
CONTINUOUS
10
124.676
20
-28.4534
11
124.676
21
-28.4522
0
LINE
8
BLACK
6
CONTINUOUS
10
124.676
20
-28.4522
11
124.703
21
-28.1831
0
LINE
8
BLACK
6
CONTINUOUS
10
124.785
20
-28.9757
11
124.874
21
-29.224
0
LINE
8
BLACK
6
CONTINUOUS
10
124.874
20
-29.224
11
124.999
21
-29.4564
0
LINE
8
BLACK
6
CONTINUOUS
10
124.999
20
-29.4564
11
125.157
21
-29.6678
0
LINE
8
BLACK
6
CONTINUOUS
10
125.157
20
-29.6678
11
125.344
21
-29.8535
0
LINE
8
BLACK
6
CONTINUOUS
10
125.344
20
-29.8535
11
125.557
21
-30.0095
0
LINE
8
BLACK
6
CONTINUOUS
10
125.557
20
-30.0095
11
125.79
21
-30.1323
0
LINE
8
BLACK
6
CONTINUOUS
10
125.79
20
-30.1323
11
126.039
21
-30.2193
0
LINE
8
BLACK
6
CONTINUOUS
10
126.039
20
-30.2193
11
126.299
21
-30.2685
0
LINE
8
BLACK
6
CONTINUOUS
10
126.299
20
-30.2685
11
126.562
21
-30.2789
0
LINE
8
BLACK
6
CONTINUOUS
10
126.562
20
-30.2789
11
126.824
21
-30.2502
0
LINE
8
BLACK
6
CONTINUOUS
10
126.824
20
-30.2502
11
127.08
21
-30.183
0
LINE
8
BLACK
6
CONTINUOUS
10
127.08
20
-30.183
11
127.322
21
-30.0789
0
LINE
8
BLACK
6
CONTINUOUS
10
127.322
20
-30.0789
11
127.546
21
-29.94
0
LINE
8
BLACK
6
CONTINUOUS
10
127.546
20
-29.94
11
127.748
21
-29.7696
0
LINE
8
BLACK
6
CONTINUOUS
10
127.748
20
-29.7696
11
127.922
21
-29.5712
0
LINE
8
BLACK
6
CONTINUOUS
10
127.922
20
-29.5712
11
128.064
21
-29.3493
0
LINE
8
BLACK
6
CONTINUOUS
10
128.064
20
-29.3493
11
128.173
21
-29.1088
0
LINE
8
BLACK
6
CONTINUOUS
10
128.173
20
-29.1088
11
128.244
21
-28.8549
0
LINE
8
BLACK
6
CONTINUOUS
10
128.244
20
-28.8549
11
128.278
21
-28.5932
0
LINE
8
BLACK
6
CONTINUOUS
10
128.278
20
-28.5932
11
128.28
21
-28.5
0
LINE
8
BLACK
6
CONTINUOUS
10
128.28
20
-28.5
11
128.26
21
-28.2369
0
LINE
8
BLACK
6
CONTINUOUS
10
128.26
20
-28.2369
11
128.202
21
-27.9796
0
LINE
8
BLACK
6
CONTINUOUS
10
128.202
20
-27.9796
11
128.107
21
-27.7337
0
LINE
8
BLACK
6
CONTINUOUS
10
128.107
20
-27.7337
11
127.976
21
-27.5046
0
LINE
8
BLACK
6
CONTINUOUS
10
127.976
20
-27.5046
11
127.812
21
-27.2975
0
LINE
8
BLACK
6
CONTINUOUS
10
127.812
20
-27.2975
11
127.62
21
-27.1167
0
LINE
8
BLACK
6
CONTINUOUS
10
127.62
20
-27.1167
11
127.403
21
-26.9663
0
LINE
8
BLACK
6
CONTINUOUS
10
127.403
20
-26.9663
11
127.167
21
-26.8496
0
LINE
8
BLACK
6
CONTINUOUS
10
127.167
20
-26.8496
11
126.916
21
-26.7692
0
LINE
8
BLACK
6
CONTINUOUS
10
126.916
20
-26.7692
11
126.655
21
-26.7268
0
LINE
8
BLACK
6
CONTINUOUS
10
126.655
20
-26.7268
11
126.391
21
-26.7233
0
LINE
8
BLACK
6
CONTINUOUS
10
126.391
20
-26.7233
11
126.13
21
-26.7589
0
LINE
8
BLACK
6
CONTINUOUS
10
126.13
20
-26.7589
11
125.877
21
-26.8327
0
LINE
8
BLACK
6
CONTINUOUS
10
125.877
20
-26.8327
11
125.637
21
-26.9432
0
LINE
8
BLACK
6
CONTINUOUS
10
125.637
20
-26.9432
11
125.416
21
-27.0878
0
LINE
8
BLACK
6
CONTINUOUS
10
125.416
20
-27.0878
11
125.22
21
-27.2635
0
LINE
8
BLACK
6
CONTINUOUS
10
125.22
20
-27.2635
11
125.051
21
-27.4664
0
LINE
8
BLACK
6
CONTINUOUS
10
125.051
20
-27.4664
11
124.914
21
-27.6919
0
LINE
8
BLACK
6
CONTINUOUS
10
124.914
20
-27.6919
11
124.812
21
-27.9352
0
LINE
8
BLACK
6
CONTINUOUS
10
124.812
20
-27.9352
11
124.747
21
-28.1909
0
LINE
8
BLACK
6
CONTINUOUS
10
124.747
20
-28.1909
11
124.721
21
-28.4534
0
LINE
8
BLACK
6
CONTINUOUS
10
124.721
20
-28.4534
11
124.733
21
-28.7169
0
LINE
8
BLACK
6
CONTINUOUS
10
124.733
20
-28.7169
11
124.785
21
-28.9757
  0
ENDSEC
  0
EOF
