%TF.GenerationSoftware,KiCad,Pcbnew,(6.0.11-0)*%
%TF.CreationDate,2023-02-16T11:16:28+00:00*%
%TF.ProjectId,fauxmac-plus,66617578-6d61-4632-9d70-6c75732e6b69,rev?*%
%TF.SameCoordinates,Original*%
%TF.FileFunction,Soldermask,Bot*%
%TF.FilePolarity,Negative*%
%FSLAX46Y46*%
G04 Gerber Fmt 4.6, Leading zero omitted, Abs format (unit mm)*
G04 Created by KiCad (PCBNEW (6.0.11-0)) date 2023-02-16 11:16:28*
%MOMM*%
%LPD*%
G01*
G04 APERTURE LIST*
G04 Aperture macros list*
%AMHorizOval*
0 Thick line with rounded ends*
0 $1 width*
0 $2 $3 position (X,Y) of the first rounded end (center of the circle)*
0 $4 $5 position (X,Y) of the second rounded end (center of the circle)*
0 Add line between two ends*
20,1,$1,$2,$3,$4,$5,0*
0 Add two circle primitives to create the rounded ends*
1,1,$1,$2,$3*
1,1,$1,$4,$5*%
G04 Aperture macros list end*
%ADD10R,1.700000X1.700000*%
%ADD11R,1.600000X1.600000*%
%ADD12O,1.600000X1.600000*%
%ADD13R,2.000000X3.200000*%
%ADD14R,2.000000X2.000000*%
%ADD15C,2.000000*%
%ADD16C,1.700000*%
%ADD17C,1.750000*%
%ADD18C,3.987800*%
%ADD19C,1.200000*%
%ADD20C,2.250000*%
%ADD21HorizOval,2.250000X0.019771X0.290016X-0.019771X-0.290016X0*%
%ADD22HorizOval,2.250000X0.654995X0.730004X-0.654995X-0.730004X0*%
%ADD23O,1.700000X1.700000*%
%ADD24C,2.100000*%
%ADD25R,1.752600X1.752600*%
%ADD26C,1.752600*%
%ADD27R,1.500000X0.900000*%
G04 APERTURE END LIST*
D10*
%TO.C,batt-*%
X149500000Y-35000000D03*
%TD*%
%TO.C,batt+*%
X149500000Y-30000000D03*
%TD*%
%TO.C,col0*%
X130000000Y-106500000D03*
%TD*%
%TO.C,col1*%
X137500000Y-104000000D03*
%TD*%
%TO.C,col2*%
X145000000Y-106500000D03*
%TD*%
D11*
%TO.C,D1*%
X130000000Y-77000000D03*
D12*
X130000000Y-69380000D03*
%TD*%
D11*
%TO.C,D3*%
X140000000Y-77000000D03*
D12*
X140000000Y-69380000D03*
%TD*%
D11*
%TO.C,D5*%
X130000000Y-89000000D03*
D12*
X130000000Y-81380000D03*
%TD*%
D11*
%TO.C,D6*%
X135000000Y-89000000D03*
D12*
X135000000Y-81380000D03*
%TD*%
D11*
%TO.C,D7*%
X140000000Y-89000000D03*
D12*
X140000000Y-81380000D03*
%TD*%
D11*
%TO.C,D8*%
X145000000Y-89000000D03*
D12*
X145000000Y-81380000D03*
%TD*%
D11*
%TO.C,D9*%
X130000000Y-101500000D03*
D12*
X130000000Y-93880000D03*
%TD*%
D11*
%TO.C,D10*%
X135000000Y-101500000D03*
D12*
X135000000Y-93880000D03*
%TD*%
D11*
%TO.C,D12*%
X145000000Y-101500000D03*
D12*
X145000000Y-93880000D03*
%TD*%
D13*
%TO.C,enc1*%
X153900000Y-97500000D03*
X165100000Y-97500000D03*
D14*
X157000000Y-105000000D03*
D15*
X162000000Y-105000000D03*
X159500000Y-105000000D03*
X162000000Y-90500000D03*
X157000000Y-90500000D03*
%TD*%
D16*
%TO.C,K1*%
X154000000Y-40500000D03*
D17*
X164580000Y-40500000D03*
D16*
X165000000Y-40500000D03*
D18*
X159500000Y-40500000D03*
D19*
X154280000Y-44700000D03*
D17*
X154420000Y-40500000D03*
D15*
X164500000Y-36700000D03*
D20*
X162040000Y-35420000D03*
D21*
X162019771Y-35709984D03*
D20*
X157000000Y-36500000D03*
D15*
X159500000Y-34600000D03*
D22*
X156344995Y-37229996D03*
%TD*%
D17*
%TO.C,K2*%
X183580000Y-40500000D03*
D16*
X173000000Y-40500000D03*
D18*
X178500000Y-40500000D03*
D19*
X173280000Y-44700000D03*
D17*
X173420000Y-40500000D03*
D16*
X184000000Y-40500000D03*
D21*
X181019771Y-35709984D03*
D15*
X183500000Y-36700000D03*
D20*
X181040000Y-35420000D03*
X176000000Y-36500000D03*
D15*
X178500000Y-34600000D03*
D22*
X175344995Y-37229996D03*
%TD*%
D19*
%TO.C,K3*%
X192280000Y-44700000D03*
D16*
X203000000Y-40500000D03*
D17*
X192420000Y-40500000D03*
D16*
X192000000Y-40500000D03*
D18*
X197500000Y-40500000D03*
D17*
X202580000Y-40500000D03*
D21*
X200019771Y-35709984D03*
D15*
X202500000Y-36700000D03*
D20*
X200040000Y-35420000D03*
D22*
X194344995Y-37229996D03*
D15*
X197500000Y-34600000D03*
D20*
X195000000Y-36500000D03*
%TD*%
D18*
%TO.C,K4*%
X159500000Y-59500000D03*
D17*
X164580000Y-59500000D03*
D16*
X154000000Y-59500000D03*
X165000000Y-59500000D03*
D17*
X154420000Y-59500000D03*
D19*
X154280000Y-63700000D03*
D20*
X162040000Y-54420000D03*
D15*
X164500000Y-55700000D03*
D21*
X162019771Y-54709984D03*
D20*
X157000000Y-55500000D03*
D15*
X159500000Y-53600000D03*
D22*
X156344995Y-56229996D03*
%TD*%
D17*
%TO.C,K5*%
X173420000Y-59500000D03*
D18*
X178500000Y-59500000D03*
D19*
X173280000Y-63700000D03*
D17*
X183580000Y-59500000D03*
D16*
X184000000Y-59500000D03*
X173000000Y-59500000D03*
D20*
X181040000Y-54420000D03*
D15*
X183500000Y-55700000D03*
D21*
X181019771Y-54709984D03*
D15*
X178500000Y-53600000D03*
D20*
X176000000Y-55500000D03*
D22*
X175344995Y-56229996D03*
%TD*%
D16*
%TO.C,K6*%
X203000000Y-59500000D03*
D19*
X192280000Y-63700000D03*
D17*
X192420000Y-59500000D03*
D16*
X192000000Y-59500000D03*
D17*
X202580000Y-59500000D03*
D18*
X197500000Y-59500000D03*
D15*
X202500000Y-55700000D03*
D21*
X200019771Y-54709984D03*
D20*
X200040000Y-54420000D03*
D22*
X194344995Y-56229996D03*
D20*
X195000000Y-55500000D03*
D15*
X197500000Y-53600000D03*
%TD*%
D17*
%TO.C,K7*%
X164580000Y-78500000D03*
D18*
X159500000Y-78500000D03*
D16*
X154000000Y-78500000D03*
D19*
X154280000Y-82700000D03*
D17*
X154420000Y-78500000D03*
D16*
X165000000Y-78500000D03*
D21*
X162019771Y-73709984D03*
D20*
X162040000Y-73420000D03*
D15*
X164500000Y-74700000D03*
D20*
X157000000Y-74500000D03*
D15*
X159500000Y-72600000D03*
D22*
X156344995Y-75229996D03*
%TD*%
D19*
%TO.C,K8*%
X173280000Y-82700000D03*
D16*
X173000000Y-78500000D03*
X184000000Y-78500000D03*
D17*
X183580000Y-78500000D03*
X173420000Y-78500000D03*
D18*
X178500000Y-78500000D03*
D21*
X181019771Y-73709984D03*
D15*
X183500000Y-74700000D03*
D20*
X181040000Y-73420000D03*
X176000000Y-74500000D03*
D15*
X178500000Y-72600000D03*
D22*
X175344995Y-75229996D03*
%TD*%
D17*
%TO.C,K9*%
X192420000Y-78500000D03*
D16*
X192000000Y-78500000D03*
D17*
X202580000Y-78500000D03*
D19*
X192280000Y-82700000D03*
D16*
X203000000Y-78500000D03*
D18*
X197500000Y-78500000D03*
D21*
X200019771Y-73709984D03*
D15*
X202500000Y-74700000D03*
D20*
X200040000Y-73420000D03*
D22*
X194344995Y-75229996D03*
D20*
X195000000Y-74500000D03*
D15*
X197500000Y-72600000D03*
%TD*%
D19*
%TO.C,K10*%
X154280000Y-101700000D03*
D16*
X165000000Y-97500000D03*
D17*
X164580000Y-97500000D03*
D16*
X154000000Y-97500000D03*
D18*
X159500000Y-97500000D03*
D17*
X154420000Y-97500000D03*
D15*
X164500000Y-93700000D03*
D20*
X162040000Y-92420000D03*
D21*
X162019771Y-92709984D03*
D22*
X156344995Y-94229996D03*
D15*
X159500000Y-91600000D03*
D20*
X157000000Y-93500000D03*
%TD*%
D18*
%TO.C,K11*%
X178500000Y-97500000D03*
D17*
X183580000Y-97500000D03*
X173420000Y-97500000D03*
D16*
X184000000Y-97500000D03*
D19*
X173280000Y-101700000D03*
D16*
X173000000Y-97500000D03*
D21*
X181019771Y-92709984D03*
D15*
X183500000Y-93700000D03*
D20*
X181040000Y-92420000D03*
X176000000Y-93500000D03*
D22*
X175344995Y-94229996D03*
D15*
X178500000Y-91600000D03*
%TD*%
D19*
%TO.C,K12*%
X192280000Y-101700000D03*
D17*
X202580000Y-97500000D03*
D16*
X192000000Y-97500000D03*
X203000000Y-97500000D03*
D18*
X197500000Y-97500000D03*
D17*
X192420000Y-97500000D03*
D15*
X202500000Y-93700000D03*
D20*
X200040000Y-92420000D03*
D21*
X200019771Y-92709984D03*
D20*
X195000000Y-93500000D03*
D22*
X194344995Y-94229996D03*
D15*
X197500000Y-91600000D03*
%TD*%
D10*
%TO.C,row0*%
X207000000Y-36500000D03*
%TD*%
%TO.C,row1*%
X207000000Y-55500000D03*
%TD*%
%TO.C,row2*%
X207000000Y-74500000D03*
%TD*%
%TO.C,row3*%
X207000000Y-93500000D03*
%TD*%
%TO.C,on/off*%
X176000000Y-29000000D03*
D23*
X178540000Y-29000000D03*
X181080000Y-29000000D03*
%TD*%
D19*
%TO.C,reset*%
X178500000Y-113000000D03*
D24*
X174990000Y-109300000D03*
X182000000Y-109300000D03*
D17*
X181000000Y-111790000D03*
X176000000Y-111790000D03*
%TD*%
D11*
%TO.C,D2*%
X135000000Y-77000000D03*
D12*
X135000000Y-69380000D03*
%TD*%
D11*
%TO.C,D4*%
X145000000Y-77000000D03*
D12*
X145000000Y-69380000D03*
%TD*%
D11*
%TO.C,D11*%
X140000000Y-101500000D03*
D12*
X140000000Y-93880000D03*
%TD*%
D10*
%TO.C,vcc*%
X132900000Y-111600000D03*
%TD*%
%TO.C,dout*%
X137500000Y-111600000D03*
%TD*%
%TO.C,oled*%
X141300000Y-64000000D03*
D23*
X138760000Y-64000000D03*
X136220000Y-64000000D03*
X133680000Y-64000000D03*
%TD*%
D10*
%TO.C,gnd*%
X142100000Y-111600000D03*
%TD*%
D25*
%TO.C,U1*%
X145120000Y-32054000D03*
D26*
X145120000Y-34594000D03*
X145120000Y-37134000D03*
X145120000Y-39674000D03*
X145120000Y-42214000D03*
X145120000Y-44754000D03*
X145120000Y-47294000D03*
X145120000Y-49834000D03*
X145120000Y-52374000D03*
X145120000Y-54914000D03*
X145120000Y-57454000D03*
X145120000Y-59994000D03*
X129880000Y-32054000D03*
X129880000Y-34594000D03*
X129880000Y-37134000D03*
X129880000Y-39674000D03*
X129880000Y-42214000D03*
X129880000Y-44754000D03*
X129880000Y-47294000D03*
X129880000Y-49834000D03*
X129880000Y-52374000D03*
X129880000Y-54914000D03*
X129880000Y-57454000D03*
X129880000Y-59994000D03*
%TD*%
D27*
%TO.C,rgb2*%
X186250000Y-36050000D03*
X186250000Y-32750000D03*
X191150000Y-32750000D03*
X191150000Y-36050000D03*
%TD*%
%TO.C,rgb4*%
X135050000Y-109550000D03*
X135050000Y-106250000D03*
X139950000Y-106250000D03*
X139950000Y-109550000D03*
%TD*%
%TO.C,rgb3*%
X185650000Y-109250000D03*
X185650000Y-105950000D03*
X190550000Y-105950000D03*
X190550000Y-109250000D03*
%TD*%
%TO.C,rgb1*%
X133350000Y-38250000D03*
X133350000Y-34950000D03*
X138250000Y-34950000D03*
X138250000Y-38250000D03*
%TD*%
M02*
