M48
; DRILL file {KiCad (6.0.9-0)} date Tuesday, 20 December 2022 at 14:07:17
; FORMAT={-:-/ absolute / metric / decimal}
; #@! TF.CreationDate,2022-12-20T14:07:17+00:00
; #@! TF.GenerationSoftware,Kicad,Pcbnew,(6.0.9-0)
; #@! TF.FileFunction,NonPlated,1,2,NPTH
FMAT,2
METRIC
; #@! TA.AperFunction,NonPlated,NPTH,ComponentDrill
T1C1.200
; #@! TA.AperFunction,NonPlated,NPTH,ComponentDrill
T2C1.500
; #@! TA.AperFunction,NonPlated,NPTH,ComponentDrill
T3C1.700
; #@! TA.AperFunction,NonPlated,NPTH,ComponentDrill
T4C1.750
; #@! TA.AperFunction,NonPlated,NPTH,ComponentDrill
T5C3.988
%
G90
G05
T1
X154.28Y-44.7
X154.28Y-63.7
X154.28Y-82.7
X154.28Y-101.7
X173.28Y-44.7
X173.28Y-63.7
X173.28Y-82.7
X173.28Y-101.7
X178.5Y-113.0
X192.28Y-44.7
X192.28Y-63.7
X192.28Y-82.7
X192.28Y-101.7
T3
X154.0Y-40.5
X154.0Y-59.5
X154.0Y-78.5
X154.0Y-97.5
X165.0Y-40.5
X165.0Y-59.5
X165.0Y-78.5
X165.0Y-97.5
X173.0Y-40.5
X173.0Y-59.5
X173.0Y-78.5
X173.0Y-97.5
X184.0Y-40.5
X184.0Y-59.5
X184.0Y-78.5
X184.0Y-97.5
X192.0Y-40.5
X192.0Y-59.5
X192.0Y-78.5
X192.0Y-97.5
X203.0Y-40.5
X203.0Y-59.5
X203.0Y-78.5
X203.0Y-97.5
T4
X154.42Y-40.5
X154.42Y-59.5
X154.42Y-78.5
X154.42Y-97.5
X164.58Y-40.5
X164.58Y-59.5
X164.58Y-78.5
X164.58Y-97.5
X173.42Y-40.5
X173.42Y-59.5
X173.42Y-78.5
X173.42Y-97.5
X183.58Y-40.5
X183.58Y-59.5
X183.58Y-78.5
X183.58Y-97.5
X192.42Y-40.5
X192.42Y-59.5
X192.42Y-78.5
X192.42Y-97.5
X202.58Y-40.5
X202.58Y-59.5
X202.58Y-78.5
X202.58Y-97.5
T5
X159.5Y-40.5
X159.5Y-59.5
X159.5Y-78.5
X159.5Y-97.5
X178.5Y-40.5
X178.5Y-59.5
X178.5Y-78.5
X178.5Y-97.5
X197.5Y-40.5
X197.5Y-59.5
X197.5Y-78.5
X197.5Y-97.5
T2
G00X153.9Y-98.15
M15
G01X153.9Y-96.85
M16
G05
G00X165.1Y-98.15
M15
G01X165.1Y-96.85
M16
G05
T0
M30
