  0
SECTION
  2
HEADER
  9
$ANGBASE
  50
0.0
  9
$ANGDIR
  70
1
  9
$MEASUREMENT
  70
1
  0
ENDSEC
  0
SECTION
  2
TABLES
  0
TABLE
  2
LTYPE
  70
4
  0
LTYPE
  5
40F
  2
CONTINUOUS
  70
0
  3
Solid line
  72
65
  73
0
  40
0.0
  0
LTYPE
  5
410
  2
DASHDOT
 70
0
  3
Dash Dot ____ _ ____ _
 72
65
 73
4
 40
2.0
 49
1.25
 49
-0.25
 49
0.25
 49
-0.25
  0
LTYPE
  5
411
  2
DASHED
 70
0
  3
Dashed __ __ __ __ __
 72
65
 73
2
 40
0.75
 49
0.5
 49
-0.25
  0
LTYPE
  5
43B
  2
DOTTED
 70
0
  3
Dotted .  .  .  .
 72
65
 73
2
 40
0.2
 49
0.0
 49
-0.2
  0
ENDTAB
  0
TABLE
  2
STYLE
  70
4
  0
STYLE
  2
KICAD
  70
0
  40
0
  41
1
  42
1
  50
0
  71
0
  3
isocp.shx
  0
STYLE
  2
KICADB
  70
0
  40
0
  41
1
  42
1
  50
0
  71
0
  3
isocp.shx
  0
STYLE
  2
KICADI
  70
0
  40
0
  41
1
  42
1
  50
15
  71
0
  3
isocp.shx
  0
STYLE
  2
KICADBI
  70
0
  40
0
  41
1
  42
1
  50
15
  71
0
  3
isocp.shx
  0
ENDTAB
  0
TABLE
  2
LAYER
  70
1
  0
LAYER
  2
BLACK
  70
0
  62
7
  6
CONTINUOUS
  0
ENDTAB
  0
ENDSEC
  0
SECTION
  2
ENTITIES
0
LINE
8
BLACK
6
CONTINUOUS
10
135.8
20
-110
11
134.3
21
-110
0
LINE
8
BLACK
6
CONTINUOUS
10
134.3
20
-110
11
134.3
21
-109.1
0
LINE
8
BLACK
6
CONTINUOUS
10
134.3
20
-109.1
11
135.8
21
-109.1
0
LINE
8
BLACK
6
CONTINUOUS
10
135.8
20
-109.1
11
135.8
21
-110
0
LINE
8
BLACK
6
CONTINUOUS
10
140.7
20
-110
11
139.2
21
-110
0
LINE
8
BLACK
6
CONTINUOUS
10
139.2
20
-110
11
139.2
21
-109.1
0
LINE
8
BLACK
6
CONTINUOUS
10
139.2
20
-109.1
11
140.7
21
-109.1
0
LINE
8
BLACK
6
CONTINUOUS
10
140.7
20
-109.1
11
140.7
21
-110
0
LINE
8
BLACK
6
CONTINUOUS
10
186.4
20
-109.7
11
184.9
21
-109.7
0
LINE
8
BLACK
6
CONTINUOUS
10
184.9
20
-109.7
11
184.9
21
-108.8
0
LINE
8
BLACK
6
CONTINUOUS
10
184.9
20
-108.8
11
186.4
21
-108.8
0
LINE
8
BLACK
6
CONTINUOUS
10
186.4
20
-108.8
11
186.4
21
-109.7
0
LINE
8
BLACK
6
CONTINUOUS
10
191.3
20
-109.7
11
189.8
21
-109.7
0
LINE
8
BLACK
6
CONTINUOUS
10
189.8
20
-109.7
11
189.8
21
-108.8
0
LINE
8
BLACK
6
CONTINUOUS
10
189.8
20
-108.8
11
191.3
21
-108.8
0
LINE
8
BLACK
6
CONTINUOUS
10
191.3
20
-108.8
11
191.3
21
-109.7
0
LINE
8
BLACK
6
CONTINUOUS
10
135.8
20
-106.7
11
134.3
21
-106.7
0
LINE
8
BLACK
6
CONTINUOUS
10
134.3
20
-106.7
11
134.3
21
-105.8
0
LINE
8
BLACK
6
CONTINUOUS
10
134.3
20
-105.8
11
135.8
21
-105.8
0
LINE
8
BLACK
6
CONTINUOUS
10
135.8
20
-105.8
11
135.8
21
-106.7
0
LINE
8
BLACK
6
CONTINUOUS
10
140.7
20
-106.7
11
139.2
21
-106.7
0
LINE
8
BLACK
6
CONTINUOUS
10
139.2
20
-106.7
11
139.2
21
-105.8
0
LINE
8
BLACK
6
CONTINUOUS
10
139.2
20
-105.8
11
140.7
21
-105.8
0
LINE
8
BLACK
6
CONTINUOUS
10
140.7
20
-105.8
11
140.7
21
-106.7
0
LINE
8
BLACK
6
CONTINUOUS
10
186.4
20
-106.4
11
184.9
21
-106.4
0
LINE
8
BLACK
6
CONTINUOUS
10
184.9
20
-106.4
11
184.9
21
-105.5
0
LINE
8
BLACK
6
CONTINUOUS
10
184.9
20
-105.5
11
186.4
21
-105.5
0
LINE
8
BLACK
6
CONTINUOUS
10
186.4
20
-105.5
11
186.4
21
-106.4
0
LINE
8
BLACK
6
CONTINUOUS
10
191.3
20
-106.4
11
189.8
21
-106.4
0
LINE
8
BLACK
6
CONTINUOUS
10
189.8
20
-106.4
11
189.8
21
-105.5
0
LINE
8
BLACK
6
CONTINUOUS
10
189.8
20
-105.5
11
191.3
21
-105.5
0
LINE
8
BLACK
6
CONTINUOUS
10
191.3
20
-105.5
11
191.3
21
-106.4
0
LINE
8
BLACK
6
CONTINUOUS
10
134.1
20
-38.7
11
132.6
21
-38.7
0
LINE
8
BLACK
6
CONTINUOUS
10
132.6
20
-38.7
11
132.6
21
-37.8
0
LINE
8
BLACK
6
CONTINUOUS
10
132.6
20
-37.8
11
134.1
21
-37.8
0
LINE
8
BLACK
6
CONTINUOUS
10
134.1
20
-37.8
11
134.1
21
-38.7
0
LINE
8
BLACK
6
CONTINUOUS
10
139
20
-38.7
11
137.5
21
-38.7
0
LINE
8
BLACK
6
CONTINUOUS
10
137.5
20
-38.7
11
137.5
21
-37.8
0
LINE
8
BLACK
6
CONTINUOUS
10
137.5
20
-37.8
11
139
21
-37.8
0
LINE
8
BLACK
6
CONTINUOUS
10
139
20
-37.8
11
139
21
-38.7
0
LINE
8
BLACK
6
CONTINUOUS
10
187
20
-36.5
11
185.5
21
-36.5
0
LINE
8
BLACK
6
CONTINUOUS
10
185.5
20
-36.5
11
185.5
21
-35.6
0
LINE
8
BLACK
6
CONTINUOUS
10
185.5
20
-35.6
11
187
21
-35.6
0
LINE
8
BLACK
6
CONTINUOUS
10
187
20
-35.6
11
187
21
-36.5
0
LINE
8
BLACK
6
CONTINUOUS
10
191.9
20
-36.5
11
190.4
21
-36.5
0
LINE
8
BLACK
6
CONTINUOUS
10
190.4
20
-36.5
11
190.4
21
-35.6
0
LINE
8
BLACK
6
CONTINUOUS
10
190.4
20
-35.6
11
191.9
21
-35.6
0
LINE
8
BLACK
6
CONTINUOUS
10
191.9
20
-35.6
11
191.9
21
-36.5
0
LINE
8
BLACK
6
CONTINUOUS
10
134.1
20
-35.4
11
132.6
21
-35.4
0
LINE
8
BLACK
6
CONTINUOUS
10
132.6
20
-35.4
11
132.6
21
-34.5
0
LINE
8
BLACK
6
CONTINUOUS
10
132.6
20
-34.5
11
134.1
21
-34.5
0
LINE
8
BLACK
6
CONTINUOUS
10
134.1
20
-34.5
11
134.1
21
-35.4
0
LINE
8
BLACK
6
CONTINUOUS
10
139
20
-35.4
11
137.5
21
-35.4
0
LINE
8
BLACK
6
CONTINUOUS
10
137.5
20
-35.4
11
137.5
21
-34.5
0
LINE
8
BLACK
6
CONTINUOUS
10
137.5
20
-34.5
11
139
21
-34.5
0
LINE
8
BLACK
6
CONTINUOUS
10
139
20
-34.5
11
139
21
-35.4
0
LINE
8
BLACK
6
CONTINUOUS
10
187
20
-33.2
11
185.5
21
-33.2
0
LINE
8
BLACK
6
CONTINUOUS
10
185.5
20
-33.2
11
185.5
21
-32.3
0
LINE
8
BLACK
6
CONTINUOUS
10
185.5
20
-32.3
11
187
21
-32.3
0
LINE
8
BLACK
6
CONTINUOUS
10
187
20
-32.3
11
187
21
-33.2
0
LINE
8
BLACK
6
CONTINUOUS
10
191.9
20
-33.2
11
190.4
21
-33.2
0
LINE
8
BLACK
6
CONTINUOUS
10
190.4
20
-33.2
11
190.4
21
-32.3
0
LINE
8
BLACK
6
CONTINUOUS
10
190.4
20
-32.3
11
191.9
21
-32.3
0
LINE
8
BLACK
6
CONTINUOUS
10
191.9
20
-32.3
11
191.9
21
-33.2
  0
ENDSEC
  0
EOF
