%TF.GenerationSoftware,KiCad,Pcbnew,(6.0.9-0)*%
%TF.CreationDate,2022-12-20T14:07:05+00:00*%
%TF.ProjectId,fauxmac-plus,66617578-6d61-4632-9d70-6c75732e6b69,rev?*%
%TF.SameCoordinates,Original*%
%TF.FileFunction,Legend,Top*%
%TF.FilePolarity,Positive*%
%FSLAX46Y46*%
G04 Gerber Fmt 4.6, Leading zero omitted, Abs format (unit mm)*
G04 Created by KiCad (PCBNEW (6.0.9-0)) date 2022-12-20 14:07:05*
%MOMM*%
%LPD*%
G01*
G04 APERTURE LIST*
%ADD10C,0.150000*%
%ADD11C,0.100000*%
%ADD12C,0.120000*%
%ADD13R,1.752600X1.752600*%
%ADD14C,1.752600*%
G04 APERTURE END LIST*
D10*
X135947380Y-58880952D02*
X135947380Y-58309523D01*
X136947380Y-58595238D02*
X135947380Y-58595238D01*
X136947380Y-57976190D02*
X135947380Y-57976190D01*
X136947380Y-57547619D02*
X136423571Y-57547619D01*
X136328333Y-57595238D01*
X136280714Y-57690476D01*
X136280714Y-57833333D01*
X136328333Y-57928571D01*
X136375952Y-57976190D01*
X136899761Y-56690476D02*
X136947380Y-56785714D01*
X136947380Y-56976190D01*
X136899761Y-57071428D01*
X136804523Y-57119047D01*
X136423571Y-57119047D01*
X136328333Y-57071428D01*
X136280714Y-56976190D01*
X136280714Y-56785714D01*
X136328333Y-56690476D01*
X136423571Y-56642857D01*
X136518809Y-56642857D01*
X136614047Y-57119047D01*
X136899761Y-55023809D02*
X136947380Y-55119047D01*
X136947380Y-55309523D01*
X136899761Y-55404761D01*
X136852142Y-55452380D01*
X136756904Y-55500000D01*
X136471190Y-55500000D01*
X136375952Y-55452380D01*
X136328333Y-55404761D01*
X136280714Y-55309523D01*
X136280714Y-55119047D01*
X136328333Y-55023809D01*
X136947380Y-54452380D02*
X136899761Y-54547619D01*
X136852142Y-54595238D01*
X136756904Y-54642857D01*
X136471190Y-54642857D01*
X136375952Y-54595238D01*
X136328333Y-54547619D01*
X136280714Y-54452380D01*
X136280714Y-54309523D01*
X136328333Y-54214285D01*
X136375952Y-54166666D01*
X136471190Y-54119047D01*
X136756904Y-54119047D01*
X136852142Y-54166666D01*
X136899761Y-54214285D01*
X136947380Y-54309523D01*
X136947380Y-54452380D01*
X136280714Y-53690476D02*
X136947380Y-53690476D01*
X136375952Y-53690476D02*
X136328333Y-53642857D01*
X136280714Y-53547619D01*
X136280714Y-53404761D01*
X136328333Y-53309523D01*
X136423571Y-53261904D01*
X136947380Y-53261904D01*
X136280714Y-52928571D02*
X136280714Y-52547619D01*
X135947380Y-52785714D02*
X136804523Y-52785714D01*
X136899761Y-52738095D01*
X136947380Y-52642857D01*
X136947380Y-52547619D01*
X136947380Y-52214285D02*
X136280714Y-52214285D01*
X136471190Y-52214285D02*
X136375952Y-52166666D01*
X136328333Y-52119047D01*
X136280714Y-52023809D01*
X136280714Y-51928571D01*
X136947380Y-51452380D02*
X136899761Y-51547619D01*
X136852142Y-51595238D01*
X136756904Y-51642857D01*
X136471190Y-51642857D01*
X136375952Y-51595238D01*
X136328333Y-51547619D01*
X136280714Y-51452380D01*
X136280714Y-51309523D01*
X136328333Y-51214285D01*
X136375952Y-51166666D01*
X136471190Y-51119047D01*
X136756904Y-51119047D01*
X136852142Y-51166666D01*
X136899761Y-51214285D01*
X136947380Y-51309523D01*
X136947380Y-51452380D01*
X136947380Y-50547619D02*
X136899761Y-50642857D01*
X136804523Y-50690476D01*
X135947380Y-50690476D01*
X136947380Y-50023809D02*
X136899761Y-50119047D01*
X136804523Y-50166666D01*
X135947380Y-50166666D01*
X136899761Y-49261904D02*
X136947380Y-49357142D01*
X136947380Y-49547619D01*
X136899761Y-49642857D01*
X136804523Y-49690476D01*
X136423571Y-49690476D01*
X136328333Y-49642857D01*
X136280714Y-49547619D01*
X136280714Y-49357142D01*
X136328333Y-49261904D01*
X136423571Y-49214285D01*
X136518809Y-49214285D01*
X136614047Y-49690476D01*
X136947380Y-48785714D02*
X136280714Y-48785714D01*
X136471190Y-48785714D02*
X136375952Y-48738095D01*
X136328333Y-48690476D01*
X136280714Y-48595238D01*
X136280714Y-48500000D01*
X136280714Y-46976190D02*
X137090238Y-46976190D01*
X137185476Y-47023809D01*
X137233095Y-47071428D01*
X137280714Y-47166666D01*
X137280714Y-47309523D01*
X137233095Y-47404761D01*
X136899761Y-46976190D02*
X136947380Y-47071428D01*
X136947380Y-47261904D01*
X136899761Y-47357142D01*
X136852142Y-47404761D01*
X136756904Y-47452380D01*
X136471190Y-47452380D01*
X136375952Y-47404761D01*
X136328333Y-47357142D01*
X136280714Y-47261904D01*
X136280714Y-47071428D01*
X136328333Y-46976190D01*
X136947380Y-46357142D02*
X136899761Y-46452380D01*
X136852142Y-46500000D01*
X136756904Y-46547619D01*
X136471190Y-46547619D01*
X136375952Y-46500000D01*
X136328333Y-46452380D01*
X136280714Y-46357142D01*
X136280714Y-46214285D01*
X136328333Y-46119047D01*
X136375952Y-46071428D01*
X136471190Y-46023809D01*
X136756904Y-46023809D01*
X136852142Y-46071428D01*
X136899761Y-46119047D01*
X136947380Y-46214285D01*
X136947380Y-46357142D01*
X136899761Y-45214285D02*
X136947380Y-45309523D01*
X136947380Y-45500000D01*
X136899761Y-45595238D01*
X136804523Y-45642857D01*
X136423571Y-45642857D01*
X136328333Y-45595238D01*
X136280714Y-45500000D01*
X136280714Y-45309523D01*
X136328333Y-45214285D01*
X136423571Y-45166666D01*
X136518809Y-45166666D01*
X136614047Y-45642857D01*
X136899761Y-44785714D02*
X136947380Y-44690476D01*
X136947380Y-44500000D01*
X136899761Y-44404761D01*
X136804523Y-44357142D01*
X136756904Y-44357142D01*
X136661666Y-44404761D01*
X136614047Y-44500000D01*
X136614047Y-44642857D01*
X136566428Y-44738095D01*
X136471190Y-44785714D01*
X136423571Y-44785714D01*
X136328333Y-44738095D01*
X136280714Y-44642857D01*
X136280714Y-44500000D01*
X136328333Y-44404761D01*
X136947380Y-43023809D02*
X136899761Y-43119047D01*
X136852142Y-43166666D01*
X136756904Y-43214285D01*
X136471190Y-43214285D01*
X136375952Y-43166666D01*
X136328333Y-43119047D01*
X136280714Y-43023809D01*
X136280714Y-42880952D01*
X136328333Y-42785714D01*
X136375952Y-42738095D01*
X136471190Y-42690476D01*
X136756904Y-42690476D01*
X136852142Y-42738095D01*
X136899761Y-42785714D01*
X136947380Y-42880952D01*
X136947380Y-43023809D01*
X136280714Y-42261904D02*
X136947380Y-42261904D01*
X136375952Y-42261904D02*
X136328333Y-42214285D01*
X136280714Y-42119047D01*
X136280714Y-41976190D01*
X136328333Y-41880952D01*
X136423571Y-41833333D01*
X136947380Y-41833333D01*
X136280714Y-40738095D02*
X136280714Y-40357142D01*
X135947380Y-40595238D02*
X136804523Y-40595238D01*
X136899761Y-40547619D01*
X136947380Y-40452380D01*
X136947380Y-40357142D01*
X136947380Y-40023809D02*
X135947380Y-40023809D01*
X136947380Y-39595238D02*
X136423571Y-39595238D01*
X136328333Y-39642857D01*
X136280714Y-39738095D01*
X136280714Y-39880952D01*
X136328333Y-39976190D01*
X136375952Y-40023809D01*
X136947380Y-39119047D02*
X136280714Y-39119047D01*
X135947380Y-39119047D02*
X135995000Y-39166666D01*
X136042619Y-39119047D01*
X135995000Y-39071428D01*
X135947380Y-39119047D01*
X136042619Y-39119047D01*
X136899761Y-38690476D02*
X136947380Y-38595238D01*
X136947380Y-38404761D01*
X136899761Y-38309523D01*
X136804523Y-38261904D01*
X136756904Y-38261904D01*
X136661666Y-38309523D01*
X136614047Y-38404761D01*
X136614047Y-38547619D01*
X136566428Y-38642857D01*
X136471190Y-38690476D01*
X136423571Y-38690476D01*
X136328333Y-38642857D01*
X136280714Y-38547619D01*
X136280714Y-38404761D01*
X136328333Y-38309523D01*
X136899761Y-37119047D02*
X136947380Y-37023809D01*
X136947380Y-36833333D01*
X136899761Y-36738095D01*
X136804523Y-36690476D01*
X136756904Y-36690476D01*
X136661666Y-36738095D01*
X136614047Y-36833333D01*
X136614047Y-36976190D01*
X136566428Y-37071428D01*
X136471190Y-37119047D01*
X136423571Y-37119047D01*
X136328333Y-37071428D01*
X136280714Y-36976190D01*
X136280714Y-36833333D01*
X136328333Y-36738095D01*
X136947380Y-36261904D02*
X136280714Y-36261904D01*
X135947380Y-36261904D02*
X135995000Y-36309523D01*
X136042619Y-36261904D01*
X135995000Y-36214285D01*
X135947380Y-36261904D01*
X136042619Y-36261904D01*
X136947380Y-35357142D02*
X135947380Y-35357142D01*
X136899761Y-35357142D02*
X136947380Y-35452380D01*
X136947380Y-35642857D01*
X136899761Y-35738095D01*
X136852142Y-35785714D01*
X136756904Y-35833333D01*
X136471190Y-35833333D01*
X136375952Y-35785714D01*
X136328333Y-35738095D01*
X136280714Y-35642857D01*
X136280714Y-35452380D01*
X136328333Y-35357142D01*
X136899761Y-34500000D02*
X136947380Y-34595238D01*
X136947380Y-34785714D01*
X136899761Y-34880952D01*
X136804523Y-34928571D01*
X136423571Y-34928571D01*
X136328333Y-34880952D01*
X136280714Y-34785714D01*
X136280714Y-34595238D01*
X136328333Y-34500000D01*
X136423571Y-34452380D01*
X136518809Y-34452380D01*
X136614047Y-34928571D01*
X136899761Y-33976190D02*
X136947380Y-33976190D01*
X137042619Y-34023809D01*
X137090238Y-34071428D01*
X138509761Y-56880952D02*
X138557380Y-56976190D01*
X138557380Y-57166666D01*
X138509761Y-57261904D01*
X138462142Y-57309523D01*
X138366904Y-57357142D01*
X138081190Y-57357142D01*
X137985952Y-57309523D01*
X137938333Y-57261904D01*
X137890714Y-57166666D01*
X137890714Y-56976190D01*
X137938333Y-56880952D01*
X138557380Y-56452380D02*
X137557380Y-56452380D01*
X138557380Y-56023809D02*
X138033571Y-56023809D01*
X137938333Y-56071428D01*
X137890714Y-56166666D01*
X137890714Y-56309523D01*
X137938333Y-56404761D01*
X137985952Y-56452380D01*
X138557380Y-55547619D02*
X137890714Y-55547619D01*
X137557380Y-55547619D02*
X137605000Y-55595238D01*
X137652619Y-55547619D01*
X137605000Y-55500000D01*
X137557380Y-55547619D01*
X137652619Y-55547619D01*
X137890714Y-55071428D02*
X138890714Y-55071428D01*
X137938333Y-55071428D02*
X137890714Y-54976190D01*
X137890714Y-54785714D01*
X137938333Y-54690476D01*
X137985952Y-54642857D01*
X138081190Y-54595238D01*
X138366904Y-54595238D01*
X138462142Y-54642857D01*
X138509761Y-54690476D01*
X138557380Y-54785714D01*
X138557380Y-54976190D01*
X138509761Y-55071428D01*
X137890714Y-53547619D02*
X137890714Y-53166666D01*
X138557380Y-53404761D02*
X137700238Y-53404761D01*
X137605000Y-53357142D01*
X137557380Y-53261904D01*
X137557380Y-53166666D01*
X138557380Y-52404761D02*
X138033571Y-52404761D01*
X137938333Y-52452380D01*
X137890714Y-52547619D01*
X137890714Y-52738095D01*
X137938333Y-52833333D01*
X138509761Y-52404761D02*
X138557380Y-52500000D01*
X138557380Y-52738095D01*
X138509761Y-52833333D01*
X138414523Y-52880952D01*
X138319285Y-52880952D01*
X138224047Y-52833333D01*
X138176428Y-52738095D01*
X138176428Y-52500000D01*
X138128809Y-52404761D01*
X138509761Y-51500000D02*
X138557380Y-51595238D01*
X138557380Y-51785714D01*
X138509761Y-51880952D01*
X138462142Y-51928571D01*
X138366904Y-51976190D01*
X138081190Y-51976190D01*
X137985952Y-51928571D01*
X137938333Y-51880952D01*
X137890714Y-51785714D01*
X137890714Y-51595238D01*
X137938333Y-51500000D01*
X138557380Y-51071428D02*
X137890714Y-51071428D01*
X137557380Y-51071428D02*
X137605000Y-51119047D01*
X137652619Y-51071428D01*
X137605000Y-51023809D01*
X137557380Y-51071428D01*
X137652619Y-51071428D01*
X137890714Y-50595238D02*
X138557380Y-50595238D01*
X137985952Y-50595238D02*
X137938333Y-50547619D01*
X137890714Y-50452380D01*
X137890714Y-50309523D01*
X137938333Y-50214285D01*
X138033571Y-50166666D01*
X138557380Y-50166666D01*
X137890714Y-49261904D02*
X138700238Y-49261904D01*
X138795476Y-49309523D01*
X138843095Y-49357142D01*
X138890714Y-49452380D01*
X138890714Y-49595238D01*
X138843095Y-49690476D01*
X138509761Y-49261904D02*
X138557380Y-49357142D01*
X138557380Y-49547619D01*
X138509761Y-49642857D01*
X138462142Y-49690476D01*
X138366904Y-49738095D01*
X138081190Y-49738095D01*
X137985952Y-49690476D01*
X137938333Y-49642857D01*
X137890714Y-49547619D01*
X137890714Y-49357142D01*
X137938333Y-49261904D01*
X137890714Y-47595238D02*
X138557380Y-47595238D01*
X137890714Y-48023809D02*
X138414523Y-48023809D01*
X138509761Y-47976190D01*
X138557380Y-47880952D01*
X138557380Y-47738095D01*
X138509761Y-47642857D01*
X138462142Y-47595238D01*
X137890714Y-47119047D02*
X138890714Y-47119047D01*
X137938333Y-47119047D02*
X137890714Y-47023809D01*
X137890714Y-46833333D01*
X137938333Y-46738095D01*
X137985952Y-46690476D01*
X138081190Y-46642857D01*
X138366904Y-46642857D01*
X138462142Y-46690476D01*
X138509761Y-46738095D01*
X138557380Y-46833333D01*
X138557380Y-47023809D01*
X138509761Y-47119047D01*
X137890714Y-46309523D02*
X138557380Y-46119047D01*
X138081190Y-45928571D01*
X138557380Y-45738095D01*
X137890714Y-45547619D01*
X138557380Y-44738095D02*
X138033571Y-44738095D01*
X137938333Y-44785714D01*
X137890714Y-44880952D01*
X137890714Y-45071428D01*
X137938333Y-45166666D01*
X138509761Y-44738095D02*
X138557380Y-44833333D01*
X138557380Y-45071428D01*
X138509761Y-45166666D01*
X138414523Y-45214285D01*
X138319285Y-45214285D01*
X138224047Y-45166666D01*
X138176428Y-45071428D01*
X138176428Y-44833333D01*
X138128809Y-44738095D01*
X138557380Y-44261904D02*
X137890714Y-44261904D01*
X138081190Y-44261904D02*
X137985952Y-44214285D01*
X137938333Y-44166666D01*
X137890714Y-44071428D01*
X137890714Y-43976190D01*
X138557380Y-43214285D02*
X137557380Y-43214285D01*
X138509761Y-43214285D02*
X138557380Y-43309523D01*
X138557380Y-43500000D01*
X138509761Y-43595238D01*
X138462142Y-43642857D01*
X138366904Y-43690476D01*
X138081190Y-43690476D01*
X137985952Y-43642857D01*
X137938333Y-43595238D01*
X137890714Y-43500000D01*
X137890714Y-43309523D01*
X137938333Y-43214285D01*
X138509761Y-42785714D02*
X138557380Y-42690476D01*
X138557380Y-42500000D01*
X138509761Y-42404761D01*
X138414523Y-42357142D01*
X138366904Y-42357142D01*
X138271666Y-42404761D01*
X138224047Y-42500000D01*
X138224047Y-42642857D01*
X138176428Y-42738095D01*
X138081190Y-42785714D01*
X138033571Y-42785714D01*
X137938333Y-42738095D01*
X137890714Y-42642857D01*
X137890714Y-42500000D01*
X137938333Y-42404761D01*
X137509761Y-41214285D02*
X138795476Y-42071428D01*
X138557380Y-40738095D02*
X138509761Y-40833333D01*
X138462142Y-40880952D01*
X138366904Y-40928571D01*
X138081190Y-40928571D01*
X137985952Y-40880952D01*
X137938333Y-40833333D01*
X137890714Y-40738095D01*
X137890714Y-40595238D01*
X137938333Y-40500000D01*
X137985952Y-40452380D01*
X138081190Y-40404761D01*
X138366904Y-40404761D01*
X138462142Y-40452380D01*
X138509761Y-40500000D01*
X138557380Y-40595238D01*
X138557380Y-40738095D01*
X137890714Y-39547619D02*
X138557380Y-39547619D01*
X137890714Y-39976190D02*
X138414523Y-39976190D01*
X138509761Y-39928571D01*
X138557380Y-39833333D01*
X138557380Y-39690476D01*
X138509761Y-39595238D01*
X138462142Y-39547619D01*
X137890714Y-39214285D02*
X137890714Y-38833333D01*
X137557380Y-39071428D02*
X138414523Y-39071428D01*
X138509761Y-39023809D01*
X138557380Y-38928571D01*
X138557380Y-38833333D01*
X137890714Y-38595238D02*
X138557380Y-38404761D01*
X138081190Y-38214285D01*
X138557380Y-38023809D01*
X137890714Y-37833333D01*
X138557380Y-37023809D02*
X138033571Y-37023809D01*
X137938333Y-37071428D01*
X137890714Y-37166666D01*
X137890714Y-37357142D01*
X137938333Y-37452380D01*
X138509761Y-37023809D02*
X138557380Y-37119047D01*
X138557380Y-37357142D01*
X138509761Y-37452380D01*
X138414523Y-37500000D01*
X138319285Y-37500000D01*
X138224047Y-37452380D01*
X138176428Y-37357142D01*
X138176428Y-37119047D01*
X138128809Y-37023809D01*
X138557380Y-36547619D02*
X137890714Y-36547619D01*
X138081190Y-36547619D02*
X137985952Y-36500000D01*
X137938333Y-36452380D01*
X137890714Y-36357142D01*
X137890714Y-36261904D01*
X138557380Y-35500000D02*
X137557380Y-35500000D01*
X138509761Y-35500000D02*
X138557380Y-35595238D01*
X138557380Y-35785714D01*
X138509761Y-35880952D01*
X138462142Y-35928571D01*
X138366904Y-35976190D01*
X138081190Y-35976190D01*
X137985952Y-35928571D01*
X137938333Y-35880952D01*
X137890714Y-35785714D01*
X137890714Y-35595238D01*
X137938333Y-35500000D01*
X138509761Y-35071428D02*
X138557380Y-34976190D01*
X138557380Y-34785714D01*
X138509761Y-34690476D01*
X138414523Y-34642857D01*
X138366904Y-34642857D01*
X138271666Y-34690476D01*
X138224047Y-34785714D01*
X138224047Y-34928571D01*
X138176428Y-35023809D01*
X138081190Y-35071428D01*
X138033571Y-35071428D01*
X137938333Y-35023809D01*
X137890714Y-34928571D01*
X137890714Y-34785714D01*
X137938333Y-34690476D01*
%TO.C,on/off*%
X176428571Y-31952380D02*
X176333333Y-31904761D01*
X176285714Y-31857142D01*
X176238095Y-31761904D01*
X176238095Y-31476190D01*
X176285714Y-31380952D01*
X176333333Y-31333333D01*
X176428571Y-31285714D01*
X176571428Y-31285714D01*
X176666666Y-31333333D01*
X176714285Y-31380952D01*
X176761904Y-31476190D01*
X176761904Y-31761904D01*
X176714285Y-31857142D01*
X176666666Y-31904761D01*
X176571428Y-31952380D01*
X176428571Y-31952380D01*
X177190476Y-31285714D02*
X177190476Y-31952380D01*
X177190476Y-31380952D02*
X177238095Y-31333333D01*
X177333333Y-31285714D01*
X177476190Y-31285714D01*
X177571428Y-31333333D01*
X177619047Y-31428571D01*
X177619047Y-31952380D01*
X178809523Y-30904761D02*
X177952380Y-32190476D01*
X179285714Y-31952380D02*
X179190476Y-31904761D01*
X179142857Y-31857142D01*
X179095238Y-31761904D01*
X179095238Y-31476190D01*
X179142857Y-31380952D01*
X179190476Y-31333333D01*
X179285714Y-31285714D01*
X179428571Y-31285714D01*
X179523809Y-31333333D01*
X179571428Y-31380952D01*
X179619047Y-31476190D01*
X179619047Y-31761904D01*
X179571428Y-31857142D01*
X179523809Y-31904761D01*
X179428571Y-31952380D01*
X179285714Y-31952380D01*
X179904761Y-31285714D02*
X180285714Y-31285714D01*
X180047619Y-31952380D02*
X180047619Y-31095238D01*
X180095238Y-31000000D01*
X180190476Y-30952380D01*
X180285714Y-30952380D01*
X180476190Y-31285714D02*
X180857142Y-31285714D01*
X180619047Y-31952380D02*
X180619047Y-31095238D01*
X180666666Y-31000000D01*
X180761904Y-30952380D01*
X180857142Y-30952380D01*
%TO.C,batt+*%
X150642857Y-30352380D02*
X150642857Y-29352380D01*
X150642857Y-29733333D02*
X150738095Y-29685714D01*
X150928571Y-29685714D01*
X151023809Y-29733333D01*
X151071428Y-29780952D01*
X151119047Y-29876190D01*
X151119047Y-30161904D01*
X151071428Y-30257142D01*
X151023809Y-30304761D01*
X150928571Y-30352380D01*
X150738095Y-30352380D01*
X150642857Y-30304761D01*
X151976190Y-30352380D02*
X151976190Y-29828571D01*
X151928571Y-29733333D01*
X151833333Y-29685714D01*
X151642857Y-29685714D01*
X151547619Y-29733333D01*
X151976190Y-30304761D02*
X151880952Y-30352380D01*
X151642857Y-30352380D01*
X151547619Y-30304761D01*
X151500000Y-30209523D01*
X151500000Y-30114285D01*
X151547619Y-30019047D01*
X151642857Y-29971428D01*
X151880952Y-29971428D01*
X151976190Y-29923809D01*
X152309523Y-29685714D02*
X152690476Y-29685714D01*
X152452380Y-29352380D02*
X152452380Y-30209523D01*
X152500000Y-30304761D01*
X152595238Y-30352380D01*
X152690476Y-30352380D01*
X152880952Y-29685714D02*
X153261904Y-29685714D01*
X153023809Y-29352380D02*
X153023809Y-30209523D01*
X153071428Y-30304761D01*
X153166666Y-30352380D01*
X153261904Y-30352380D01*
X153595238Y-29971428D02*
X154357142Y-29971428D01*
X153976190Y-30352380D02*
X153976190Y-29590476D01*
%TO.C,batt-*%
X150642857Y-35452380D02*
X150642857Y-34452380D01*
X150642857Y-34833333D02*
X150738095Y-34785714D01*
X150928571Y-34785714D01*
X151023809Y-34833333D01*
X151071428Y-34880952D01*
X151119047Y-34976190D01*
X151119047Y-35261904D01*
X151071428Y-35357142D01*
X151023809Y-35404761D01*
X150928571Y-35452380D01*
X150738095Y-35452380D01*
X150642857Y-35404761D01*
X151976190Y-35452380D02*
X151976190Y-34928571D01*
X151928571Y-34833333D01*
X151833333Y-34785714D01*
X151642857Y-34785714D01*
X151547619Y-34833333D01*
X151976190Y-35404761D02*
X151880952Y-35452380D01*
X151642857Y-35452380D01*
X151547619Y-35404761D01*
X151500000Y-35309523D01*
X151500000Y-35214285D01*
X151547619Y-35119047D01*
X151642857Y-35071428D01*
X151880952Y-35071428D01*
X151976190Y-35023809D01*
X152309523Y-34785714D02*
X152690476Y-34785714D01*
X152452380Y-34452380D02*
X152452380Y-35309523D01*
X152500000Y-35404761D01*
X152595238Y-35452380D01*
X152690476Y-35452380D01*
X152880952Y-34785714D02*
X153261904Y-34785714D01*
X153023809Y-34452380D02*
X153023809Y-35309523D01*
X153071428Y-35404761D01*
X153166666Y-35452380D01*
X153261904Y-35452380D01*
X153595238Y-35071428D02*
X154357142Y-35071428D01*
%TO.C,row3*%
X205476190Y-91622380D02*
X205476190Y-90955714D01*
X205476190Y-91146190D02*
X205523809Y-91050952D01*
X205571428Y-91003333D01*
X205666666Y-90955714D01*
X205761904Y-90955714D01*
X206238095Y-91622380D02*
X206142857Y-91574761D01*
X206095238Y-91527142D01*
X206047619Y-91431904D01*
X206047619Y-91146190D01*
X206095238Y-91050952D01*
X206142857Y-91003333D01*
X206238095Y-90955714D01*
X206380952Y-90955714D01*
X206476190Y-91003333D01*
X206523809Y-91050952D01*
X206571428Y-91146190D01*
X206571428Y-91431904D01*
X206523809Y-91527142D01*
X206476190Y-91574761D01*
X206380952Y-91622380D01*
X206238095Y-91622380D01*
X206904761Y-90955714D02*
X207095238Y-91622380D01*
X207285714Y-91146190D01*
X207476190Y-91622380D01*
X207666666Y-90955714D01*
X207952380Y-90622380D02*
X208571428Y-90622380D01*
X208238095Y-91003333D01*
X208380952Y-91003333D01*
X208476190Y-91050952D01*
X208523809Y-91098571D01*
X208571428Y-91193809D01*
X208571428Y-91431904D01*
X208523809Y-91527142D01*
X208476190Y-91574761D01*
X208380952Y-91622380D01*
X208095238Y-91622380D01*
X208000000Y-91574761D01*
X207952380Y-91527142D01*
%TO.C,row2*%
X205476190Y-72622380D02*
X205476190Y-71955714D01*
X205476190Y-72146190D02*
X205523809Y-72050952D01*
X205571428Y-72003333D01*
X205666666Y-71955714D01*
X205761904Y-71955714D01*
X206238095Y-72622380D02*
X206142857Y-72574761D01*
X206095238Y-72527142D01*
X206047619Y-72431904D01*
X206047619Y-72146190D01*
X206095238Y-72050952D01*
X206142857Y-72003333D01*
X206238095Y-71955714D01*
X206380952Y-71955714D01*
X206476190Y-72003333D01*
X206523809Y-72050952D01*
X206571428Y-72146190D01*
X206571428Y-72431904D01*
X206523809Y-72527142D01*
X206476190Y-72574761D01*
X206380952Y-72622380D01*
X206238095Y-72622380D01*
X206904761Y-71955714D02*
X207095238Y-72622380D01*
X207285714Y-72146190D01*
X207476190Y-72622380D01*
X207666666Y-71955714D01*
X208000000Y-71717619D02*
X208047619Y-71670000D01*
X208142857Y-71622380D01*
X208380952Y-71622380D01*
X208476190Y-71670000D01*
X208523809Y-71717619D01*
X208571428Y-71812857D01*
X208571428Y-71908095D01*
X208523809Y-72050952D01*
X207952380Y-72622380D01*
X208571428Y-72622380D01*
%TO.C,row1*%
X205476190Y-53622380D02*
X205476190Y-52955714D01*
X205476190Y-53146190D02*
X205523809Y-53050952D01*
X205571428Y-53003333D01*
X205666666Y-52955714D01*
X205761904Y-52955714D01*
X206238095Y-53622380D02*
X206142857Y-53574761D01*
X206095238Y-53527142D01*
X206047619Y-53431904D01*
X206047619Y-53146190D01*
X206095238Y-53050952D01*
X206142857Y-53003333D01*
X206238095Y-52955714D01*
X206380952Y-52955714D01*
X206476190Y-53003333D01*
X206523809Y-53050952D01*
X206571428Y-53146190D01*
X206571428Y-53431904D01*
X206523809Y-53527142D01*
X206476190Y-53574761D01*
X206380952Y-53622380D01*
X206238095Y-53622380D01*
X206904761Y-52955714D02*
X207095238Y-53622380D01*
X207285714Y-53146190D01*
X207476190Y-53622380D01*
X207666666Y-52955714D01*
X208571428Y-53622380D02*
X208000000Y-53622380D01*
X208285714Y-53622380D02*
X208285714Y-52622380D01*
X208190476Y-52765238D01*
X208095238Y-52860476D01*
X208000000Y-52908095D01*
%TO.C,gnd*%
X141409523Y-108615714D02*
X141409523Y-109425238D01*
X141361904Y-109520476D01*
X141314285Y-109568095D01*
X141219047Y-109615714D01*
X141076190Y-109615714D01*
X140980952Y-109568095D01*
X141409523Y-109234761D02*
X141314285Y-109282380D01*
X141123809Y-109282380D01*
X141028571Y-109234761D01*
X140980952Y-109187142D01*
X140933333Y-109091904D01*
X140933333Y-108806190D01*
X140980952Y-108710952D01*
X141028571Y-108663333D01*
X141123809Y-108615714D01*
X141314285Y-108615714D01*
X141409523Y-108663333D01*
X141885714Y-108615714D02*
X141885714Y-109282380D01*
X141885714Y-108710952D02*
X141933333Y-108663333D01*
X142028571Y-108615714D01*
X142171428Y-108615714D01*
X142266666Y-108663333D01*
X142314285Y-108758571D01*
X142314285Y-109282380D01*
X143219047Y-109282380D02*
X143219047Y-108282380D01*
X143219047Y-109234761D02*
X143123809Y-109282380D01*
X142933333Y-109282380D01*
X142838095Y-109234761D01*
X142790476Y-109187142D01*
X142742857Y-109091904D01*
X142742857Y-108806190D01*
X142790476Y-108710952D01*
X142838095Y-108663333D01*
X142933333Y-108615714D01*
X143123809Y-108615714D01*
X143219047Y-108663333D01*
%TO.C,dout*%
X136523809Y-109282380D02*
X136523809Y-108282380D01*
X136523809Y-109234761D02*
X136428571Y-109282380D01*
X136238095Y-109282380D01*
X136142857Y-109234761D01*
X136095238Y-109187142D01*
X136047619Y-109091904D01*
X136047619Y-108806190D01*
X136095238Y-108710952D01*
X136142857Y-108663333D01*
X136238095Y-108615714D01*
X136428571Y-108615714D01*
X136523809Y-108663333D01*
X137142857Y-109282380D02*
X137047619Y-109234761D01*
X137000000Y-109187142D01*
X136952380Y-109091904D01*
X136952380Y-108806190D01*
X137000000Y-108710952D01*
X137047619Y-108663333D01*
X137142857Y-108615714D01*
X137285714Y-108615714D01*
X137380952Y-108663333D01*
X137428571Y-108710952D01*
X137476190Y-108806190D01*
X137476190Y-109091904D01*
X137428571Y-109187142D01*
X137380952Y-109234761D01*
X137285714Y-109282380D01*
X137142857Y-109282380D01*
X138333333Y-108615714D02*
X138333333Y-109282380D01*
X137904761Y-108615714D02*
X137904761Y-109139523D01*
X137952380Y-109234761D01*
X138047619Y-109282380D01*
X138190476Y-109282380D01*
X138285714Y-109234761D01*
X138333333Y-109187142D01*
X138666666Y-108615714D02*
X139047619Y-108615714D01*
X138809523Y-108282380D02*
X138809523Y-109139523D01*
X138857142Y-109234761D01*
X138952380Y-109282380D01*
X139047619Y-109282380D01*
%TO.C,vcc*%
X131804761Y-108615714D02*
X132042857Y-109282380D01*
X132280952Y-108615714D01*
X133090476Y-109234761D02*
X132995238Y-109282380D01*
X132804761Y-109282380D01*
X132709523Y-109234761D01*
X132661904Y-109187142D01*
X132614285Y-109091904D01*
X132614285Y-108806190D01*
X132661904Y-108710952D01*
X132709523Y-108663333D01*
X132804761Y-108615714D01*
X132995238Y-108615714D01*
X133090476Y-108663333D01*
X133947619Y-109234761D02*
X133852380Y-109282380D01*
X133661904Y-109282380D01*
X133566666Y-109234761D01*
X133519047Y-109187142D01*
X133471428Y-109091904D01*
X133471428Y-108806190D01*
X133519047Y-108710952D01*
X133566666Y-108663333D01*
X133661904Y-108615714D01*
X133852380Y-108615714D01*
X133947619Y-108663333D01*
%TO.C,col0*%
X129047619Y-104574761D02*
X128952380Y-104622380D01*
X128761904Y-104622380D01*
X128666666Y-104574761D01*
X128619047Y-104527142D01*
X128571428Y-104431904D01*
X128571428Y-104146190D01*
X128619047Y-104050952D01*
X128666666Y-104003333D01*
X128761904Y-103955714D01*
X128952380Y-103955714D01*
X129047619Y-104003333D01*
X129619047Y-104622380D02*
X129523809Y-104574761D01*
X129476190Y-104527142D01*
X129428571Y-104431904D01*
X129428571Y-104146190D01*
X129476190Y-104050952D01*
X129523809Y-104003333D01*
X129619047Y-103955714D01*
X129761904Y-103955714D01*
X129857142Y-104003333D01*
X129904761Y-104050952D01*
X129952380Y-104146190D01*
X129952380Y-104431904D01*
X129904761Y-104527142D01*
X129857142Y-104574761D01*
X129761904Y-104622380D01*
X129619047Y-104622380D01*
X130523809Y-104622380D02*
X130428571Y-104574761D01*
X130380952Y-104479523D01*
X130380952Y-103622380D01*
X131095238Y-103622380D02*
X131190476Y-103622380D01*
X131285714Y-103670000D01*
X131333333Y-103717619D01*
X131380952Y-103812857D01*
X131428571Y-104003333D01*
X131428571Y-104241428D01*
X131380952Y-104431904D01*
X131333333Y-104527142D01*
X131285714Y-104574761D01*
X131190476Y-104622380D01*
X131095238Y-104622380D01*
X131000000Y-104574761D01*
X130952380Y-104527142D01*
X130904761Y-104431904D01*
X130857142Y-104241428D01*
X130857142Y-104003333D01*
X130904761Y-103812857D01*
X130952380Y-103717619D01*
X131000000Y-103670000D01*
X131095238Y-103622380D01*
%TO.C,col1*%
X136547619Y-102074761D02*
X136452380Y-102122380D01*
X136261904Y-102122380D01*
X136166666Y-102074761D01*
X136119047Y-102027142D01*
X136071428Y-101931904D01*
X136071428Y-101646190D01*
X136119047Y-101550952D01*
X136166666Y-101503333D01*
X136261904Y-101455714D01*
X136452380Y-101455714D01*
X136547619Y-101503333D01*
X137119047Y-102122380D02*
X137023809Y-102074761D01*
X136976190Y-102027142D01*
X136928571Y-101931904D01*
X136928571Y-101646190D01*
X136976190Y-101550952D01*
X137023809Y-101503333D01*
X137119047Y-101455714D01*
X137261904Y-101455714D01*
X137357142Y-101503333D01*
X137404761Y-101550952D01*
X137452380Y-101646190D01*
X137452380Y-101931904D01*
X137404761Y-102027142D01*
X137357142Y-102074761D01*
X137261904Y-102122380D01*
X137119047Y-102122380D01*
X138023809Y-102122380D02*
X137928571Y-102074761D01*
X137880952Y-101979523D01*
X137880952Y-101122380D01*
X138928571Y-102122380D02*
X138357142Y-102122380D01*
X138642857Y-102122380D02*
X138642857Y-101122380D01*
X138547619Y-101265238D01*
X138452380Y-101360476D01*
X138357142Y-101408095D01*
%TO.C,col2*%
X144047619Y-104574761D02*
X143952380Y-104622380D01*
X143761904Y-104622380D01*
X143666666Y-104574761D01*
X143619047Y-104527142D01*
X143571428Y-104431904D01*
X143571428Y-104146190D01*
X143619047Y-104050952D01*
X143666666Y-104003333D01*
X143761904Y-103955714D01*
X143952380Y-103955714D01*
X144047619Y-104003333D01*
X144619047Y-104622380D02*
X144523809Y-104574761D01*
X144476190Y-104527142D01*
X144428571Y-104431904D01*
X144428571Y-104146190D01*
X144476190Y-104050952D01*
X144523809Y-104003333D01*
X144619047Y-103955714D01*
X144761904Y-103955714D01*
X144857142Y-104003333D01*
X144904761Y-104050952D01*
X144952380Y-104146190D01*
X144952380Y-104431904D01*
X144904761Y-104527142D01*
X144857142Y-104574761D01*
X144761904Y-104622380D01*
X144619047Y-104622380D01*
X145523809Y-104622380D02*
X145428571Y-104574761D01*
X145380952Y-104479523D01*
X145380952Y-103622380D01*
X145857142Y-103717619D02*
X145904761Y-103670000D01*
X146000000Y-103622380D01*
X146238095Y-103622380D01*
X146333333Y-103670000D01*
X146380952Y-103717619D01*
X146428571Y-103812857D01*
X146428571Y-103908095D01*
X146380952Y-104050952D01*
X145809523Y-104622380D01*
X146428571Y-104622380D01*
%TO.C,J1*%
X143082380Y-64333333D02*
X143796666Y-64333333D01*
X143939523Y-64380952D01*
X144034761Y-64476190D01*
X144082380Y-64619047D01*
X144082380Y-64714285D01*
X144082380Y-63333333D02*
X144082380Y-63904761D01*
X144082380Y-63619047D02*
X143082380Y-63619047D01*
X143225238Y-63714285D01*
X143320476Y-63809523D01*
X143368095Y-63904761D01*
%TO.C,row0*%
X205476190Y-34622380D02*
X205476190Y-33955714D01*
X205476190Y-34146190D02*
X205523809Y-34050952D01*
X205571428Y-34003333D01*
X205666666Y-33955714D01*
X205761904Y-33955714D01*
X206238095Y-34622380D02*
X206142857Y-34574761D01*
X206095238Y-34527142D01*
X206047619Y-34431904D01*
X206047619Y-34146190D01*
X206095238Y-34050952D01*
X206142857Y-34003333D01*
X206238095Y-33955714D01*
X206380952Y-33955714D01*
X206476190Y-34003333D01*
X206523809Y-34050952D01*
X206571428Y-34146190D01*
X206571428Y-34431904D01*
X206523809Y-34527142D01*
X206476190Y-34574761D01*
X206380952Y-34622380D01*
X206238095Y-34622380D01*
X206904761Y-33955714D02*
X207095238Y-34622380D01*
X207285714Y-34146190D01*
X207476190Y-34622380D01*
X207666666Y-33955714D01*
X208238095Y-33622380D02*
X208333333Y-33622380D01*
X208428571Y-33670000D01*
X208476190Y-33717619D01*
X208523809Y-33812857D01*
X208571428Y-34003333D01*
X208571428Y-34241428D01*
X208523809Y-34431904D01*
X208476190Y-34527142D01*
X208428571Y-34574761D01*
X208333333Y-34622380D01*
X208238095Y-34622380D01*
X208142857Y-34574761D01*
X208095238Y-34527142D01*
X208047619Y-34431904D01*
X208000000Y-34241428D01*
X208000000Y-34003333D01*
X208047619Y-33812857D01*
X208095238Y-33717619D01*
X208142857Y-33670000D01*
X208238095Y-33622380D01*
D11*
%TO.C,U1*%
X130887333Y-52690666D02*
X130887333Y-51990666D01*
X131054000Y-51990666D01*
X131154000Y-52024000D01*
X131220666Y-52090666D01*
X131254000Y-52157333D01*
X131287333Y-52290666D01*
X131287333Y-52390666D01*
X131254000Y-52524000D01*
X131220666Y-52590666D01*
X131154000Y-52657333D01*
X131054000Y-52690666D01*
X130887333Y-52690666D01*
X131520666Y-51990666D02*
X131987333Y-51990666D01*
X131687333Y-52690666D01*
X143312666Y-59944000D02*
X143412666Y-59977333D01*
X143446000Y-60010666D01*
X143479333Y-60077333D01*
X143479333Y-60177333D01*
X143446000Y-60244000D01*
X143412666Y-60277333D01*
X143346000Y-60310666D01*
X143079333Y-60310666D01*
X143079333Y-59610666D01*
X143312666Y-59610666D01*
X143379333Y-59644000D01*
X143412666Y-59677333D01*
X143446000Y-59744000D01*
X143446000Y-59810666D01*
X143412666Y-59877333D01*
X143379333Y-59910666D01*
X143312666Y-59944000D01*
X143079333Y-59944000D01*
X144079333Y-59610666D02*
X143946000Y-59610666D01*
X143879333Y-59644000D01*
X143846000Y-59677333D01*
X143779333Y-59777333D01*
X143746000Y-59910666D01*
X143746000Y-60177333D01*
X143779333Y-60244000D01*
X143812666Y-60277333D01*
X143879333Y-60310666D01*
X144012666Y-60310666D01*
X144079333Y-60277333D01*
X144112666Y-60244000D01*
X144146000Y-60177333D01*
X144146000Y-60010666D01*
X144112666Y-59944000D01*
X144079333Y-59910666D01*
X144012666Y-59877333D01*
X143879333Y-59877333D01*
X143812666Y-59910666D01*
X143779333Y-59944000D01*
X143746000Y-60010666D01*
X131120666Y-57404000D02*
X131220666Y-57437333D01*
X131254000Y-57470666D01*
X131287333Y-57537333D01*
X131287333Y-57637333D01*
X131254000Y-57704000D01*
X131220666Y-57737333D01*
X131154000Y-57770666D01*
X130887333Y-57770666D01*
X130887333Y-57070666D01*
X131120666Y-57070666D01*
X131187333Y-57104000D01*
X131220666Y-57137333D01*
X131254000Y-57204000D01*
X131254000Y-57270666D01*
X131220666Y-57337333D01*
X131187333Y-57370666D01*
X131120666Y-57404000D01*
X130887333Y-57404000D01*
X131887333Y-57304000D02*
X131887333Y-57770666D01*
X131720666Y-57037333D02*
X131554000Y-57537333D01*
X131987333Y-57537333D01*
X130887333Y-42530666D02*
X130887333Y-41830666D01*
X131054000Y-41830666D01*
X131154000Y-41864000D01*
X131220666Y-41930666D01*
X131254000Y-41997333D01*
X131287333Y-42130666D01*
X131287333Y-42230666D01*
X131254000Y-42364000D01*
X131220666Y-42430666D01*
X131154000Y-42497333D01*
X131054000Y-42530666D01*
X130887333Y-42530666D01*
X131954000Y-42530666D02*
X131554000Y-42530666D01*
X131754000Y-42530666D02*
X131754000Y-41830666D01*
X131687333Y-41930666D01*
X131620666Y-41997333D01*
X131554000Y-42030666D01*
X143362666Y-44704000D02*
X143129333Y-44704000D01*
X143129333Y-45070666D02*
X143129333Y-44370666D01*
X143462666Y-44370666D01*
X144062666Y-44370666D02*
X143729333Y-44370666D01*
X143696000Y-44704000D01*
X143729333Y-44670666D01*
X143796000Y-44637333D01*
X143962666Y-44637333D01*
X144029333Y-44670666D01*
X144062666Y-44704000D01*
X144096000Y-44770666D01*
X144096000Y-44937333D01*
X144062666Y-45004000D01*
X144029333Y-45037333D01*
X143962666Y-45070666D01*
X143796000Y-45070666D01*
X143729333Y-45037333D01*
X143696000Y-45004000D01*
X130887333Y-34910666D02*
X130887333Y-34210666D01*
X131054000Y-34210666D01*
X131154000Y-34244000D01*
X131220666Y-34310666D01*
X131254000Y-34377333D01*
X131287333Y-34510666D01*
X131287333Y-34610666D01*
X131254000Y-34744000D01*
X131220666Y-34810666D01*
X131154000Y-34877333D01*
X131054000Y-34910666D01*
X130887333Y-34910666D01*
X131554000Y-34277333D02*
X131587333Y-34244000D01*
X131654000Y-34210666D01*
X131820666Y-34210666D01*
X131887333Y-34244000D01*
X131920666Y-34277333D01*
X131954000Y-34344000D01*
X131954000Y-34410666D01*
X131920666Y-34510666D01*
X131520666Y-34910666D01*
X131954000Y-34910666D01*
X131378666Y-39324000D02*
X131312000Y-39290666D01*
X131212000Y-39290666D01*
X131112000Y-39324000D01*
X131045333Y-39390666D01*
X131012000Y-39457333D01*
X130978666Y-39590666D01*
X130978666Y-39690666D01*
X131012000Y-39824000D01*
X131045333Y-39890666D01*
X131112000Y-39957333D01*
X131212000Y-39990666D01*
X131278666Y-39990666D01*
X131378666Y-39957333D01*
X131412000Y-39924000D01*
X131412000Y-39690666D01*
X131278666Y-39690666D01*
X131712000Y-39990666D02*
X131712000Y-39290666D01*
X132112000Y-39990666D01*
X132112000Y-39290666D01*
X132445333Y-39990666D02*
X132445333Y-39290666D01*
X132612000Y-39290666D01*
X132712000Y-39324000D01*
X132778666Y-39390666D01*
X132812000Y-39457333D01*
X132845333Y-39590666D01*
X132845333Y-39690666D01*
X132812000Y-39824000D01*
X132778666Y-39890666D01*
X132712000Y-39957333D01*
X132612000Y-39990666D01*
X132445333Y-39990666D01*
X143312666Y-52324000D02*
X143412666Y-52357333D01*
X143446000Y-52390666D01*
X143479333Y-52457333D01*
X143479333Y-52557333D01*
X143446000Y-52624000D01*
X143412666Y-52657333D01*
X143346000Y-52690666D01*
X143079333Y-52690666D01*
X143079333Y-51990666D01*
X143312666Y-51990666D01*
X143379333Y-52024000D01*
X143412666Y-52057333D01*
X143446000Y-52124000D01*
X143446000Y-52190666D01*
X143412666Y-52257333D01*
X143379333Y-52290666D01*
X143312666Y-52324000D01*
X143079333Y-52324000D01*
X144146000Y-52690666D02*
X143746000Y-52690666D01*
X143946000Y-52690666D02*
X143946000Y-51990666D01*
X143879333Y-52090666D01*
X143812666Y-52157333D01*
X143746000Y-52190666D01*
X131378666Y-36784000D02*
X131312000Y-36750666D01*
X131212000Y-36750666D01*
X131112000Y-36784000D01*
X131045333Y-36850666D01*
X131012000Y-36917333D01*
X130978666Y-37050666D01*
X130978666Y-37150666D01*
X131012000Y-37284000D01*
X131045333Y-37350666D01*
X131112000Y-37417333D01*
X131212000Y-37450666D01*
X131278666Y-37450666D01*
X131378666Y-37417333D01*
X131412000Y-37384000D01*
X131412000Y-37150666D01*
X131278666Y-37150666D01*
X131712000Y-37450666D02*
X131712000Y-36750666D01*
X132112000Y-37450666D01*
X132112000Y-36750666D01*
X132445333Y-37450666D02*
X132445333Y-36750666D01*
X132612000Y-36750666D01*
X132712000Y-36784000D01*
X132778666Y-36850666D01*
X132812000Y-36917333D01*
X132845333Y-37050666D01*
X132845333Y-37150666D01*
X132812000Y-37284000D01*
X132778666Y-37350666D01*
X132712000Y-37417333D01*
X132612000Y-37450666D01*
X132445333Y-37450666D01*
X142154666Y-39290666D02*
X142388000Y-39990666D01*
X142621333Y-39290666D01*
X143254666Y-39924000D02*
X143221333Y-39957333D01*
X143121333Y-39990666D01*
X143054666Y-39990666D01*
X142954666Y-39957333D01*
X142888000Y-39890666D01*
X142854666Y-39824000D01*
X142821333Y-39690666D01*
X142821333Y-39590666D01*
X142854666Y-39457333D01*
X142888000Y-39390666D01*
X142954666Y-39324000D01*
X143054666Y-39290666D01*
X143121333Y-39290666D01*
X143221333Y-39324000D01*
X143254666Y-39357333D01*
X143954666Y-39924000D02*
X143921333Y-39957333D01*
X143821333Y-39990666D01*
X143754666Y-39990666D01*
X143654666Y-39957333D01*
X143588000Y-39890666D01*
X143554666Y-39824000D01*
X143521333Y-39690666D01*
X143521333Y-39590666D01*
X143554666Y-39457333D01*
X143588000Y-39390666D01*
X143654666Y-39324000D01*
X143754666Y-39290666D01*
X143821333Y-39290666D01*
X143921333Y-39324000D01*
X143954666Y-39357333D01*
X143362666Y-42164000D02*
X143129333Y-42164000D01*
X143129333Y-42530666D02*
X143129333Y-41830666D01*
X143462666Y-41830666D01*
X144029333Y-42064000D02*
X144029333Y-42530666D01*
X143862666Y-41797333D02*
X143696000Y-42297333D01*
X144129333Y-42297333D01*
X131120666Y-59944000D02*
X131220666Y-59977333D01*
X131254000Y-60010666D01*
X131287333Y-60077333D01*
X131287333Y-60177333D01*
X131254000Y-60244000D01*
X131220666Y-60277333D01*
X131154000Y-60310666D01*
X130887333Y-60310666D01*
X130887333Y-59610666D01*
X131120666Y-59610666D01*
X131187333Y-59644000D01*
X131220666Y-59677333D01*
X131254000Y-59744000D01*
X131254000Y-59810666D01*
X131220666Y-59877333D01*
X131187333Y-59910666D01*
X131120666Y-59944000D01*
X130887333Y-59944000D01*
X131920666Y-59610666D02*
X131587333Y-59610666D01*
X131554000Y-59944000D01*
X131587333Y-59910666D01*
X131654000Y-59877333D01*
X131820666Y-59877333D01*
X131887333Y-59910666D01*
X131920666Y-59944000D01*
X131954000Y-60010666D01*
X131954000Y-60177333D01*
X131920666Y-60244000D01*
X131887333Y-60277333D01*
X131820666Y-60310666D01*
X131654000Y-60310666D01*
X131587333Y-60277333D01*
X131554000Y-60244000D01*
X131287333Y-50084000D02*
X131254000Y-50117333D01*
X131154000Y-50150666D01*
X131087333Y-50150666D01*
X130987333Y-50117333D01*
X130920666Y-50050666D01*
X130887333Y-49984000D01*
X130854000Y-49850666D01*
X130854000Y-49750666D01*
X130887333Y-49617333D01*
X130920666Y-49550666D01*
X130987333Y-49484000D01*
X131087333Y-49450666D01*
X131154000Y-49450666D01*
X131254000Y-49484000D01*
X131287333Y-49517333D01*
X131887333Y-49450666D02*
X131754000Y-49450666D01*
X131687333Y-49484000D01*
X131654000Y-49517333D01*
X131587333Y-49617333D01*
X131554000Y-49750666D01*
X131554000Y-50017333D01*
X131587333Y-50084000D01*
X131620666Y-50117333D01*
X131687333Y-50150666D01*
X131820666Y-50150666D01*
X131887333Y-50117333D01*
X131920666Y-50084000D01*
X131954000Y-50017333D01*
X131954000Y-49850666D01*
X131920666Y-49784000D01*
X131887333Y-49750666D01*
X131820666Y-49717333D01*
X131687333Y-49717333D01*
X131620666Y-49750666D01*
X131587333Y-49784000D01*
X131554000Y-49850666D01*
X143362666Y-49784000D02*
X143129333Y-49784000D01*
X143129333Y-50150666D02*
X143129333Y-49450666D01*
X143462666Y-49450666D01*
X143662666Y-49450666D02*
X144129333Y-49450666D01*
X143829333Y-50150666D01*
X142704666Y-37450666D02*
X142471333Y-37117333D01*
X142304666Y-37450666D02*
X142304666Y-36750666D01*
X142571333Y-36750666D01*
X142638000Y-36784000D01*
X142671333Y-36817333D01*
X142704666Y-36884000D01*
X142704666Y-36984000D01*
X142671333Y-37050666D01*
X142638000Y-37084000D01*
X142571333Y-37117333D01*
X142304666Y-37117333D01*
X142971333Y-37417333D02*
X143071333Y-37450666D01*
X143238000Y-37450666D01*
X143304666Y-37417333D01*
X143338000Y-37384000D01*
X143371333Y-37317333D01*
X143371333Y-37250666D01*
X143338000Y-37184000D01*
X143304666Y-37150666D01*
X143238000Y-37117333D01*
X143104666Y-37084000D01*
X143038000Y-37050666D01*
X143004666Y-37017333D01*
X142971333Y-36950666D01*
X142971333Y-36884000D01*
X143004666Y-36817333D01*
X143038000Y-36784000D01*
X143104666Y-36750666D01*
X143271333Y-36750666D01*
X143371333Y-36784000D01*
X143571333Y-36750666D02*
X143971333Y-36750666D01*
X143771333Y-37450666D02*
X143771333Y-36750666D01*
X143362666Y-47244000D02*
X143129333Y-47244000D01*
X143129333Y-47610666D02*
X143129333Y-46910666D01*
X143462666Y-46910666D01*
X144029333Y-46910666D02*
X143896000Y-46910666D01*
X143829333Y-46944000D01*
X143796000Y-46977333D01*
X143729333Y-47077333D01*
X143696000Y-47210666D01*
X143696000Y-47477333D01*
X143729333Y-47544000D01*
X143762666Y-47577333D01*
X143829333Y-47610666D01*
X143962666Y-47610666D01*
X144029333Y-47577333D01*
X144062666Y-47544000D01*
X144096000Y-47477333D01*
X144096000Y-47310666D01*
X144062666Y-47244000D01*
X144029333Y-47210666D01*
X143962666Y-47177333D01*
X143829333Y-47177333D01*
X143762666Y-47210666D01*
X143729333Y-47244000D01*
X143696000Y-47310666D01*
X130887333Y-32370666D02*
X130887333Y-31670666D01*
X131054000Y-31670666D01*
X131154000Y-31704000D01*
X131220666Y-31770666D01*
X131254000Y-31837333D01*
X131287333Y-31970666D01*
X131287333Y-32070666D01*
X131254000Y-32204000D01*
X131220666Y-32270666D01*
X131154000Y-32337333D01*
X131054000Y-32370666D01*
X130887333Y-32370666D01*
X131520666Y-31670666D02*
X131954000Y-31670666D01*
X131720666Y-31937333D01*
X131820666Y-31937333D01*
X131887333Y-31970666D01*
X131920666Y-32004000D01*
X131954000Y-32070666D01*
X131954000Y-32237333D01*
X131920666Y-32304000D01*
X131887333Y-32337333D01*
X131820666Y-32370666D01*
X131620666Y-32370666D01*
X131554000Y-32337333D01*
X131520666Y-32304000D01*
X143312666Y-57404000D02*
X143412666Y-57437333D01*
X143446000Y-57470666D01*
X143479333Y-57537333D01*
X143479333Y-57637333D01*
X143446000Y-57704000D01*
X143412666Y-57737333D01*
X143346000Y-57770666D01*
X143079333Y-57770666D01*
X143079333Y-57070666D01*
X143312666Y-57070666D01*
X143379333Y-57104000D01*
X143412666Y-57137333D01*
X143446000Y-57204000D01*
X143446000Y-57270666D01*
X143412666Y-57337333D01*
X143379333Y-57370666D01*
X143312666Y-57404000D01*
X143079333Y-57404000D01*
X143746000Y-57137333D02*
X143779333Y-57104000D01*
X143846000Y-57070666D01*
X144012666Y-57070666D01*
X144079333Y-57104000D01*
X144112666Y-57137333D01*
X144146000Y-57204000D01*
X144146000Y-57270666D01*
X144112666Y-57370666D01*
X143712666Y-57770666D01*
X144146000Y-57770666D01*
X143312666Y-54864000D02*
X143412666Y-54897333D01*
X143446000Y-54930666D01*
X143479333Y-54997333D01*
X143479333Y-55097333D01*
X143446000Y-55164000D01*
X143412666Y-55197333D01*
X143346000Y-55230666D01*
X143079333Y-55230666D01*
X143079333Y-54530666D01*
X143312666Y-54530666D01*
X143379333Y-54564000D01*
X143412666Y-54597333D01*
X143446000Y-54664000D01*
X143446000Y-54730666D01*
X143412666Y-54797333D01*
X143379333Y-54830666D01*
X143312666Y-54864000D01*
X143079333Y-54864000D01*
X143712666Y-54530666D02*
X144146000Y-54530666D01*
X143912666Y-54797333D01*
X144012666Y-54797333D01*
X144079333Y-54830666D01*
X144112666Y-54864000D01*
X144146000Y-54930666D01*
X144146000Y-55097333D01*
X144112666Y-55164000D01*
X144079333Y-55197333D01*
X144012666Y-55230666D01*
X143812666Y-55230666D01*
X143746000Y-55197333D01*
X143712666Y-55164000D01*
X130887333Y-47610666D02*
X130887333Y-46910666D01*
X131054000Y-46910666D01*
X131154000Y-46944000D01*
X131220666Y-47010666D01*
X131254000Y-47077333D01*
X131287333Y-47210666D01*
X131287333Y-47310666D01*
X131254000Y-47444000D01*
X131220666Y-47510666D01*
X131154000Y-47577333D01*
X131054000Y-47610666D01*
X130887333Y-47610666D01*
X131887333Y-47144000D02*
X131887333Y-47610666D01*
X131720666Y-46877333D02*
X131554000Y-47377333D01*
X131987333Y-47377333D01*
X142554666Y-34244000D02*
X142488000Y-34210666D01*
X142388000Y-34210666D01*
X142288000Y-34244000D01*
X142221333Y-34310666D01*
X142188000Y-34377333D01*
X142154666Y-34510666D01*
X142154666Y-34610666D01*
X142188000Y-34744000D01*
X142221333Y-34810666D01*
X142288000Y-34877333D01*
X142388000Y-34910666D01*
X142454666Y-34910666D01*
X142554666Y-34877333D01*
X142588000Y-34844000D01*
X142588000Y-34610666D01*
X142454666Y-34610666D01*
X142888000Y-34910666D02*
X142888000Y-34210666D01*
X143288000Y-34910666D01*
X143288000Y-34210666D01*
X143621333Y-34910666D02*
X143621333Y-34210666D01*
X143788000Y-34210666D01*
X143888000Y-34244000D01*
X143954666Y-34310666D01*
X143988000Y-34377333D01*
X144021333Y-34510666D01*
X144021333Y-34610666D01*
X143988000Y-34744000D01*
X143954666Y-34810666D01*
X143888000Y-34877333D01*
X143788000Y-34910666D01*
X143621333Y-34910666D01*
X130920666Y-54864000D02*
X131154000Y-54864000D01*
X131254000Y-55230666D02*
X130920666Y-55230666D01*
X130920666Y-54530666D01*
X131254000Y-54530666D01*
X131854000Y-54530666D02*
X131720666Y-54530666D01*
X131654000Y-54564000D01*
X131620666Y-54597333D01*
X131554000Y-54697333D01*
X131520666Y-54830666D01*
X131520666Y-55097333D01*
X131554000Y-55164000D01*
X131587333Y-55197333D01*
X131654000Y-55230666D01*
X131787333Y-55230666D01*
X131854000Y-55197333D01*
X131887333Y-55164000D01*
X131920666Y-55097333D01*
X131920666Y-54930666D01*
X131887333Y-54864000D01*
X131854000Y-54830666D01*
X131787333Y-54797333D01*
X131654000Y-54797333D01*
X131587333Y-54830666D01*
X131554000Y-54864000D01*
X131520666Y-54930666D01*
X142096666Y-32624666D02*
X141863333Y-32291333D01*
X141696666Y-32624666D02*
X141696666Y-31924666D01*
X141963333Y-31924666D01*
X142030000Y-31958000D01*
X142063333Y-31991333D01*
X142096666Y-32058000D01*
X142096666Y-32158000D01*
X142063333Y-32224666D01*
X142030000Y-32258000D01*
X141963333Y-32291333D01*
X141696666Y-32291333D01*
X142363333Y-32424666D02*
X142696666Y-32424666D01*
X142296666Y-32624666D02*
X142530000Y-31924666D01*
X142763333Y-32624666D01*
X142930000Y-31924666D02*
X143096666Y-32624666D01*
X143230000Y-32124666D01*
X143363333Y-32624666D01*
X143530000Y-31924666D01*
X130887333Y-45070666D02*
X130887333Y-44370666D01*
X131054000Y-44370666D01*
X131154000Y-44404000D01*
X131220666Y-44470666D01*
X131254000Y-44537333D01*
X131287333Y-44670666D01*
X131287333Y-44770666D01*
X131254000Y-44904000D01*
X131220666Y-44970666D01*
X131154000Y-45037333D01*
X131054000Y-45070666D01*
X130887333Y-45070666D01*
X131720666Y-44370666D02*
X131787333Y-44370666D01*
X131854000Y-44404000D01*
X131887333Y-44437333D01*
X131920666Y-44504000D01*
X131954000Y-44637333D01*
X131954000Y-44804000D01*
X131920666Y-44937333D01*
X131887333Y-45004000D01*
X131854000Y-45037333D01*
X131787333Y-45070666D01*
X131720666Y-45070666D01*
X131654000Y-45037333D01*
X131620666Y-45004000D01*
X131587333Y-44937333D01*
X131554000Y-44804000D01*
X131554000Y-44637333D01*
X131587333Y-44504000D01*
X131620666Y-44437333D01*
X131654000Y-44404000D01*
X131720666Y-44370666D01*
D10*
%TO.C,D2*%
X135452380Y-73738095D02*
X134452380Y-73738095D01*
X134452380Y-73500000D01*
X134500000Y-73357142D01*
X134595238Y-73261904D01*
X134690476Y-73214285D01*
X134880952Y-73166666D01*
X135023809Y-73166666D01*
X135214285Y-73214285D01*
X135309523Y-73261904D01*
X135404761Y-73357142D01*
X135452380Y-73500000D01*
X135452380Y-73738095D01*
X134547619Y-72785714D02*
X134500000Y-72738095D01*
X134452380Y-72642857D01*
X134452380Y-72404761D01*
X134500000Y-72309523D01*
X134547619Y-72261904D01*
X134642857Y-72214285D01*
X134738095Y-72214285D01*
X134880952Y-72261904D01*
X135452380Y-72833333D01*
X135452380Y-72214285D01*
%TO.C,D4*%
X145452380Y-73738095D02*
X144452380Y-73738095D01*
X144452380Y-73500000D01*
X144500000Y-73357142D01*
X144595238Y-73261904D01*
X144690476Y-73214285D01*
X144880952Y-73166666D01*
X145023809Y-73166666D01*
X145214285Y-73214285D01*
X145309523Y-73261904D01*
X145404761Y-73357142D01*
X145452380Y-73500000D01*
X145452380Y-73738095D01*
X144785714Y-72309523D02*
X145452380Y-72309523D01*
X144404761Y-72547619D02*
X145119047Y-72785714D01*
X145119047Y-72166666D01*
%TO.C,D11*%
X140452380Y-98714285D02*
X139452380Y-98714285D01*
X139452380Y-98476190D01*
X139500000Y-98333333D01*
X139595238Y-98238095D01*
X139690476Y-98190476D01*
X139880952Y-98142857D01*
X140023809Y-98142857D01*
X140214285Y-98190476D01*
X140309523Y-98238095D01*
X140404761Y-98333333D01*
X140452380Y-98476190D01*
X140452380Y-98714285D01*
X140452380Y-97190476D02*
X140452380Y-97761904D01*
X140452380Y-97476190D02*
X139452380Y-97476190D01*
X139595238Y-97571428D01*
X139690476Y-97666666D01*
X139738095Y-97761904D01*
X140452380Y-96238095D02*
X140452380Y-96809523D01*
X140452380Y-96523809D02*
X139452380Y-96523809D01*
X139595238Y-96619047D01*
X139690476Y-96714285D01*
X139738095Y-96809523D01*
%TO.C,D7*%
X140452380Y-85738095D02*
X139452380Y-85738095D01*
X139452380Y-85500000D01*
X139500000Y-85357142D01*
X139595238Y-85261904D01*
X139690476Y-85214285D01*
X139880952Y-85166666D01*
X140023809Y-85166666D01*
X140214285Y-85214285D01*
X140309523Y-85261904D01*
X140404761Y-85357142D01*
X140452380Y-85500000D01*
X140452380Y-85738095D01*
X139452380Y-84833333D02*
X139452380Y-84166666D01*
X140452380Y-84595238D01*
%TO.C,D9*%
X130452380Y-98238095D02*
X129452380Y-98238095D01*
X129452380Y-98000000D01*
X129500000Y-97857142D01*
X129595238Y-97761904D01*
X129690476Y-97714285D01*
X129880952Y-97666666D01*
X130023809Y-97666666D01*
X130214285Y-97714285D01*
X130309523Y-97761904D01*
X130404761Y-97857142D01*
X130452380Y-98000000D01*
X130452380Y-98238095D01*
X130452380Y-97190476D02*
X130452380Y-97000000D01*
X130404761Y-96904761D01*
X130357142Y-96857142D01*
X130214285Y-96761904D01*
X130023809Y-96714285D01*
X129642857Y-96714285D01*
X129547619Y-96761904D01*
X129500000Y-96809523D01*
X129452380Y-96904761D01*
X129452380Y-97095238D01*
X129500000Y-97190476D01*
X129547619Y-97238095D01*
X129642857Y-97285714D01*
X129880952Y-97285714D01*
X129976190Y-97238095D01*
X130023809Y-97190476D01*
X130071428Y-97095238D01*
X130071428Y-96904761D01*
X130023809Y-96809523D01*
X129976190Y-96761904D01*
X129880952Y-96714285D01*
%TO.C,D10*%
X135452380Y-98714285D02*
X134452380Y-98714285D01*
X134452380Y-98476190D01*
X134500000Y-98333333D01*
X134595238Y-98238095D01*
X134690476Y-98190476D01*
X134880952Y-98142857D01*
X135023809Y-98142857D01*
X135214285Y-98190476D01*
X135309523Y-98238095D01*
X135404761Y-98333333D01*
X135452380Y-98476190D01*
X135452380Y-98714285D01*
X135452380Y-97190476D02*
X135452380Y-97761904D01*
X135452380Y-97476190D02*
X134452380Y-97476190D01*
X134595238Y-97571428D01*
X134690476Y-97666666D01*
X134738095Y-97761904D01*
X134452380Y-96571428D02*
X134452380Y-96476190D01*
X134500000Y-96380952D01*
X134547619Y-96333333D01*
X134642857Y-96285714D01*
X134833333Y-96238095D01*
X135071428Y-96238095D01*
X135261904Y-96285714D01*
X135357142Y-96333333D01*
X135404761Y-96380952D01*
X135452380Y-96476190D01*
X135452380Y-96571428D01*
X135404761Y-96666666D01*
X135357142Y-96714285D01*
X135261904Y-96761904D01*
X135071428Y-96809523D01*
X134833333Y-96809523D01*
X134642857Y-96761904D01*
X134547619Y-96714285D01*
X134500000Y-96666666D01*
X134452380Y-96571428D01*
%TO.C,D1*%
X130452380Y-73738095D02*
X129452380Y-73738095D01*
X129452380Y-73500000D01*
X129500000Y-73357142D01*
X129595238Y-73261904D01*
X129690476Y-73214285D01*
X129880952Y-73166666D01*
X130023809Y-73166666D01*
X130214285Y-73214285D01*
X130309523Y-73261904D01*
X130404761Y-73357142D01*
X130452380Y-73500000D01*
X130452380Y-73738095D01*
X130452380Y-72214285D02*
X130452380Y-72785714D01*
X130452380Y-72500000D02*
X129452380Y-72500000D01*
X129595238Y-72595238D01*
X129690476Y-72690476D01*
X129738095Y-72785714D01*
%TO.C,D3*%
X140452380Y-73738095D02*
X139452380Y-73738095D01*
X139452380Y-73500000D01*
X139500000Y-73357142D01*
X139595238Y-73261904D01*
X139690476Y-73214285D01*
X139880952Y-73166666D01*
X140023809Y-73166666D01*
X140214285Y-73214285D01*
X140309523Y-73261904D01*
X140404761Y-73357142D01*
X140452380Y-73500000D01*
X140452380Y-73738095D01*
X139452380Y-72833333D02*
X139452380Y-72214285D01*
X139833333Y-72547619D01*
X139833333Y-72404761D01*
X139880952Y-72309523D01*
X139928571Y-72261904D01*
X140023809Y-72214285D01*
X140261904Y-72214285D01*
X140357142Y-72261904D01*
X140404761Y-72309523D01*
X140452380Y-72404761D01*
X140452380Y-72690476D01*
X140404761Y-72785714D01*
X140357142Y-72833333D01*
%TO.C,D12*%
X145452380Y-98714285D02*
X144452380Y-98714285D01*
X144452380Y-98476190D01*
X144500000Y-98333333D01*
X144595238Y-98238095D01*
X144690476Y-98190476D01*
X144880952Y-98142857D01*
X145023809Y-98142857D01*
X145214285Y-98190476D01*
X145309523Y-98238095D01*
X145404761Y-98333333D01*
X145452380Y-98476190D01*
X145452380Y-98714285D01*
X145452380Y-97190476D02*
X145452380Y-97761904D01*
X145452380Y-97476190D02*
X144452380Y-97476190D01*
X144595238Y-97571428D01*
X144690476Y-97666666D01*
X144738095Y-97761904D01*
X144547619Y-96809523D02*
X144500000Y-96761904D01*
X144452380Y-96666666D01*
X144452380Y-96428571D01*
X144500000Y-96333333D01*
X144547619Y-96285714D01*
X144642857Y-96238095D01*
X144738095Y-96238095D01*
X144880952Y-96285714D01*
X145452380Y-96857142D01*
X145452380Y-96238095D01*
%TO.C,D8*%
X145452380Y-85738095D02*
X144452380Y-85738095D01*
X144452380Y-85500000D01*
X144500000Y-85357142D01*
X144595238Y-85261904D01*
X144690476Y-85214285D01*
X144880952Y-85166666D01*
X145023809Y-85166666D01*
X145214285Y-85214285D01*
X145309523Y-85261904D01*
X145404761Y-85357142D01*
X145452380Y-85500000D01*
X145452380Y-85738095D01*
X144880952Y-84595238D02*
X144833333Y-84690476D01*
X144785714Y-84738095D01*
X144690476Y-84785714D01*
X144642857Y-84785714D01*
X144547619Y-84738095D01*
X144500000Y-84690476D01*
X144452380Y-84595238D01*
X144452380Y-84404761D01*
X144500000Y-84309523D01*
X144547619Y-84261904D01*
X144642857Y-84214285D01*
X144690476Y-84214285D01*
X144785714Y-84261904D01*
X144833333Y-84309523D01*
X144880952Y-84404761D01*
X144880952Y-84595238D01*
X144928571Y-84690476D01*
X144976190Y-84738095D01*
X145071428Y-84785714D01*
X145261904Y-84785714D01*
X145357142Y-84738095D01*
X145404761Y-84690476D01*
X145452380Y-84595238D01*
X145452380Y-84404761D01*
X145404761Y-84309523D01*
X145357142Y-84261904D01*
X145261904Y-84214285D01*
X145071428Y-84214285D01*
X144976190Y-84261904D01*
X144928571Y-84309523D01*
X144880952Y-84404761D01*
%TO.C,D5*%
X130452380Y-85738095D02*
X129452380Y-85738095D01*
X129452380Y-85500000D01*
X129500000Y-85357142D01*
X129595238Y-85261904D01*
X129690476Y-85214285D01*
X129880952Y-85166666D01*
X130023809Y-85166666D01*
X130214285Y-85214285D01*
X130309523Y-85261904D01*
X130404761Y-85357142D01*
X130452380Y-85500000D01*
X130452380Y-85738095D01*
X129452380Y-84261904D02*
X129452380Y-84738095D01*
X129928571Y-84785714D01*
X129880952Y-84738095D01*
X129833333Y-84642857D01*
X129833333Y-84404761D01*
X129880952Y-84309523D01*
X129928571Y-84261904D01*
X130023809Y-84214285D01*
X130261904Y-84214285D01*
X130357142Y-84261904D01*
X130404761Y-84309523D01*
X130452380Y-84404761D01*
X130452380Y-84642857D01*
X130404761Y-84738095D01*
X130357142Y-84785714D01*
%TO.C,D6*%
X135452380Y-85738095D02*
X134452380Y-85738095D01*
X134452380Y-85500000D01*
X134500000Y-85357142D01*
X134595238Y-85261904D01*
X134690476Y-85214285D01*
X134880952Y-85166666D01*
X135023809Y-85166666D01*
X135214285Y-85214285D01*
X135309523Y-85261904D01*
X135404761Y-85357142D01*
X135452380Y-85500000D01*
X135452380Y-85738095D01*
X134452380Y-84309523D02*
X134452380Y-84500000D01*
X134500000Y-84595238D01*
X134547619Y-84642857D01*
X134690476Y-84738095D01*
X134880952Y-84785714D01*
X135261904Y-84785714D01*
X135357142Y-84738095D01*
X135404761Y-84690476D01*
X135452380Y-84595238D01*
X135452380Y-84404761D01*
X135404761Y-84309523D01*
X135357142Y-84261904D01*
X135261904Y-84214285D01*
X135023809Y-84214285D01*
X134928571Y-84261904D01*
X134880952Y-84309523D01*
X134833333Y-84404761D01*
X134833333Y-84595238D01*
X134880952Y-84690476D01*
X134928571Y-84738095D01*
X135023809Y-84785714D01*
%TO.C,H1*%
X125738095Y-25752380D02*
X125738095Y-24752380D01*
X125738095Y-25228571D02*
X126309523Y-25228571D01*
X126309523Y-25752380D02*
X126309523Y-24752380D01*
X127309523Y-25752380D02*
X126738095Y-25752380D01*
X127023809Y-25752380D02*
X127023809Y-24752380D01*
X126928571Y-24895238D01*
X126833333Y-24990476D01*
X126738095Y-25038095D01*
%TO.C,H2*%
X207238095Y-25752380D02*
X207238095Y-24752380D01*
X207238095Y-25228571D02*
X207809523Y-25228571D01*
X207809523Y-25752380D02*
X207809523Y-24752380D01*
X208238095Y-24847619D02*
X208285714Y-24800000D01*
X208380952Y-24752380D01*
X208619047Y-24752380D01*
X208714285Y-24800000D01*
X208761904Y-24847619D01*
X208809523Y-24942857D01*
X208809523Y-25038095D01*
X208761904Y-25180952D01*
X208190476Y-25752380D01*
X208809523Y-25752380D01*
%TO.C,H3*%
X207238095Y-109752380D02*
X207238095Y-108752380D01*
X207238095Y-109228571D02*
X207809523Y-109228571D01*
X207809523Y-109752380D02*
X207809523Y-108752380D01*
X208190476Y-108752380D02*
X208809523Y-108752380D01*
X208476190Y-109133333D01*
X208619047Y-109133333D01*
X208714285Y-109180952D01*
X208761904Y-109228571D01*
X208809523Y-109323809D01*
X208809523Y-109561904D01*
X208761904Y-109657142D01*
X208714285Y-109704761D01*
X208619047Y-109752380D01*
X208333333Y-109752380D01*
X208238095Y-109704761D01*
X208190476Y-109657142D01*
%TO.C,H4*%
X125738095Y-109752380D02*
X125738095Y-108752380D01*
X125738095Y-109228571D02*
X126309523Y-109228571D01*
X126309523Y-109752380D02*
X126309523Y-108752380D01*
X127214285Y-109085714D02*
X127214285Y-109752380D01*
X126976190Y-108704761D02*
X126738095Y-109419047D01*
X127357142Y-109419047D01*
D12*
%TO.C,enc1*%
X159500000Y-98000000D02*
X159500000Y-97000000D01*
X159000000Y-97500000D02*
X160000000Y-97500000D01*
%TO.C,D2*%
X136120000Y-75310000D02*
X136120000Y-71070000D01*
X133880000Y-75310000D02*
X136120000Y-75310000D01*
X135000000Y-70420000D02*
X135000000Y-71070000D01*
X135000000Y-75960000D02*
X135000000Y-75310000D01*
X133880000Y-74470000D02*
X136120000Y-74470000D01*
X133880000Y-74590000D02*
X136120000Y-74590000D01*
X136120000Y-71070000D02*
X133880000Y-71070000D01*
X133880000Y-74710000D02*
X136120000Y-74710000D01*
X133880000Y-71070000D02*
X133880000Y-75310000D01*
%TO.C,D4*%
X146120000Y-75310000D02*
X146120000Y-71070000D01*
X146120000Y-71070000D02*
X143880000Y-71070000D01*
X143880000Y-74590000D02*
X146120000Y-74590000D01*
X145000000Y-75960000D02*
X145000000Y-75310000D01*
X143880000Y-71070000D02*
X143880000Y-75310000D01*
X143880000Y-75310000D02*
X146120000Y-75310000D01*
X143880000Y-74470000D02*
X146120000Y-74470000D01*
X145000000Y-70420000D02*
X145000000Y-71070000D01*
X143880000Y-74710000D02*
X146120000Y-74710000D01*
%TO.C,D11*%
X138880000Y-99090000D02*
X141120000Y-99090000D01*
X138880000Y-99810000D02*
X141120000Y-99810000D01*
X140000000Y-94920000D02*
X140000000Y-95570000D01*
X141120000Y-99810000D02*
X141120000Y-95570000D01*
X141120000Y-95570000D02*
X138880000Y-95570000D01*
X140000000Y-100460000D02*
X140000000Y-99810000D01*
X138880000Y-95570000D02*
X138880000Y-99810000D01*
X138880000Y-98970000D02*
X141120000Y-98970000D01*
X138880000Y-99210000D02*
X141120000Y-99210000D01*
%TO.C,D7*%
X140000000Y-87960000D02*
X140000000Y-87310000D01*
X140000000Y-82420000D02*
X140000000Y-83070000D01*
X138880000Y-83070000D02*
X138880000Y-87310000D01*
X138880000Y-86590000D02*
X141120000Y-86590000D01*
X138880000Y-87310000D02*
X141120000Y-87310000D01*
X138880000Y-86710000D02*
X141120000Y-86710000D01*
X141120000Y-87310000D02*
X141120000Y-83070000D01*
X138880000Y-86470000D02*
X141120000Y-86470000D01*
X141120000Y-83070000D02*
X138880000Y-83070000D01*
%TO.C,D9*%
X130000000Y-94920000D02*
X130000000Y-95570000D01*
X128880000Y-99210000D02*
X131120000Y-99210000D01*
X131120000Y-95570000D02*
X128880000Y-95570000D01*
X128880000Y-95570000D02*
X128880000Y-99810000D01*
X131120000Y-99810000D02*
X131120000Y-95570000D01*
X128880000Y-98970000D02*
X131120000Y-98970000D01*
X130000000Y-100460000D02*
X130000000Y-99810000D01*
X128880000Y-99090000D02*
X131120000Y-99090000D01*
X128880000Y-99810000D02*
X131120000Y-99810000D01*
%TO.C,D10*%
X135000000Y-100460000D02*
X135000000Y-99810000D01*
X133880000Y-99210000D02*
X136120000Y-99210000D01*
X136120000Y-99810000D02*
X136120000Y-95570000D01*
X133880000Y-98970000D02*
X136120000Y-98970000D01*
X133880000Y-99810000D02*
X136120000Y-99810000D01*
X136120000Y-95570000D02*
X133880000Y-95570000D01*
X135000000Y-94920000D02*
X135000000Y-95570000D01*
X133880000Y-95570000D02*
X133880000Y-99810000D01*
X133880000Y-99090000D02*
X136120000Y-99090000D01*
%TO.C,D1*%
X131120000Y-71070000D02*
X128880000Y-71070000D01*
X130000000Y-70420000D02*
X130000000Y-71070000D01*
X128880000Y-74470000D02*
X131120000Y-74470000D01*
X131120000Y-75310000D02*
X131120000Y-71070000D01*
X128880000Y-71070000D02*
X128880000Y-75310000D01*
X128880000Y-74590000D02*
X131120000Y-74590000D01*
X130000000Y-75960000D02*
X130000000Y-75310000D01*
X128880000Y-75310000D02*
X131120000Y-75310000D01*
X128880000Y-74710000D02*
X131120000Y-74710000D01*
%TO.C,D3*%
X140000000Y-75960000D02*
X140000000Y-75310000D01*
X141120000Y-75310000D02*
X141120000Y-71070000D01*
X138880000Y-74470000D02*
X141120000Y-74470000D01*
X138880000Y-74710000D02*
X141120000Y-74710000D01*
X138880000Y-71070000D02*
X138880000Y-75310000D01*
X140000000Y-70420000D02*
X140000000Y-71070000D01*
X141120000Y-71070000D02*
X138880000Y-71070000D01*
X138880000Y-74590000D02*
X141120000Y-74590000D01*
X138880000Y-75310000D02*
X141120000Y-75310000D01*
%TO.C,D12*%
X143880000Y-99090000D02*
X146120000Y-99090000D01*
X145000000Y-94920000D02*
X145000000Y-95570000D01*
X146120000Y-95570000D02*
X143880000Y-95570000D01*
X146120000Y-99810000D02*
X146120000Y-95570000D01*
X143880000Y-99210000D02*
X146120000Y-99210000D01*
X143880000Y-99810000D02*
X146120000Y-99810000D01*
X143880000Y-98970000D02*
X146120000Y-98970000D01*
X143880000Y-95570000D02*
X143880000Y-99810000D01*
X145000000Y-100460000D02*
X145000000Y-99810000D01*
%TO.C,D8*%
X146120000Y-83070000D02*
X143880000Y-83070000D01*
X146120000Y-87310000D02*
X146120000Y-83070000D01*
X143880000Y-87310000D02*
X146120000Y-87310000D01*
X143880000Y-86590000D02*
X146120000Y-86590000D01*
X143880000Y-86710000D02*
X146120000Y-86710000D01*
X145000000Y-82420000D02*
X145000000Y-83070000D01*
X143880000Y-83070000D02*
X143880000Y-87310000D01*
X145000000Y-87960000D02*
X145000000Y-87310000D01*
X143880000Y-86470000D02*
X146120000Y-86470000D01*
%TO.C,D5*%
X128880000Y-83070000D02*
X128880000Y-87310000D01*
X128880000Y-86470000D02*
X131120000Y-86470000D01*
X131120000Y-87310000D02*
X131120000Y-83070000D01*
X128880000Y-87310000D02*
X131120000Y-87310000D01*
X128880000Y-86710000D02*
X131120000Y-86710000D01*
X130000000Y-87960000D02*
X130000000Y-87310000D01*
X130000000Y-82420000D02*
X130000000Y-83070000D01*
X131120000Y-83070000D02*
X128880000Y-83070000D01*
X128880000Y-86590000D02*
X131120000Y-86590000D01*
%TO.C,D6*%
X135000000Y-87960000D02*
X135000000Y-87310000D01*
X133880000Y-86590000D02*
X136120000Y-86590000D01*
X136120000Y-83070000D02*
X133880000Y-83070000D01*
X133880000Y-86710000D02*
X136120000Y-86710000D01*
X135000000Y-82420000D02*
X135000000Y-83070000D01*
X136120000Y-87310000D02*
X136120000Y-83070000D01*
X133880000Y-87310000D02*
X136120000Y-87310000D01*
X133880000Y-83070000D02*
X133880000Y-87310000D01*
X133880000Y-86470000D02*
X136120000Y-86470000D01*
%TD*%
D13*
%TO.C,U1*%
X145120000Y-32054000D03*
D14*
X145120000Y-34594000D03*
X145120000Y-37134000D03*
X145120000Y-39674000D03*
X145120000Y-42214000D03*
X145120000Y-44754000D03*
X145120000Y-47294000D03*
X145120000Y-49834000D03*
X145120000Y-52374000D03*
X145120000Y-54914000D03*
X145120000Y-57454000D03*
X145120000Y-59994000D03*
X129880000Y-32054000D03*
X129880000Y-34594000D03*
X129880000Y-37134000D03*
X129880000Y-39674000D03*
X129880000Y-42214000D03*
X129880000Y-44754000D03*
X129880000Y-47294000D03*
X129880000Y-49834000D03*
X129880000Y-52374000D03*
X129880000Y-54914000D03*
X129880000Y-57454000D03*
X129880000Y-59994000D03*
%TD*%
M02*
