%TF.GenerationSoftware,KiCad,Pcbnew,(6.0.10-0)*%
%TF.CreationDate,2023-01-20T12:37:15+00:00*%
%TF.ProjectId,fauxmac-plus,66617578-6d61-4632-9d70-6c75732e6b69,rev?*%
%TF.SameCoordinates,Original*%
%TF.FileFunction,Legend,Bot*%
%TF.FilePolarity,Positive*%
%FSLAX46Y46*%
G04 Gerber Fmt 4.6, Leading zero omitted, Abs format (unit mm)*
G04 Created by KiCad (PCBNEW (6.0.10-0)) date 2023-01-20 12:37:15*
%MOMM*%
%LPD*%
G01*
G04 APERTURE LIST*
%ADD10C,0.150000*%
%ADD11C,0.203200*%
%ADD12C,0.100000*%
%ADD13C,0.120000*%
%ADD14R,1.752600X1.752600*%
%ADD15C,1.752600*%
G04 APERTURE END LIST*
D10*
%TO.C,K1*%
X160238095Y-44127380D02*
X160238095Y-43127380D01*
X159666666Y-44127380D02*
X160095238Y-43555952D01*
X159666666Y-43127380D02*
X160238095Y-43698809D01*
X158714285Y-44127380D02*
X159285714Y-44127380D01*
X159000000Y-44127380D02*
X159000000Y-43127380D01*
X159095238Y-43270238D01*
X159190476Y-43365476D01*
X159285714Y-43413095D01*
%TO.C,K2*%
X179238095Y-44127380D02*
X179238095Y-43127380D01*
X178666666Y-44127380D02*
X179095238Y-43555952D01*
X178666666Y-43127380D02*
X179238095Y-43698809D01*
X178285714Y-43222619D02*
X178238095Y-43175000D01*
X178142857Y-43127380D01*
X177904761Y-43127380D01*
X177809523Y-43175000D01*
X177761904Y-43222619D01*
X177714285Y-43317857D01*
X177714285Y-43413095D01*
X177761904Y-43555952D01*
X178333333Y-44127380D01*
X177714285Y-44127380D01*
%TO.C,K3*%
X198238095Y-44127380D02*
X198238095Y-43127380D01*
X197666666Y-44127380D02*
X198095238Y-43555952D01*
X197666666Y-43127380D02*
X198238095Y-43698809D01*
X197333333Y-43127380D02*
X196714285Y-43127380D01*
X197047619Y-43508333D01*
X196904761Y-43508333D01*
X196809523Y-43555952D01*
X196761904Y-43603571D01*
X196714285Y-43698809D01*
X196714285Y-43936904D01*
X196761904Y-44032142D01*
X196809523Y-44079761D01*
X196904761Y-44127380D01*
X197190476Y-44127380D01*
X197285714Y-44079761D01*
X197333333Y-44032142D01*
%TO.C,K4*%
X160238095Y-63127380D02*
X160238095Y-62127380D01*
X159666666Y-63127380D02*
X160095238Y-62555952D01*
X159666666Y-62127380D02*
X160238095Y-62698809D01*
X158809523Y-62460714D02*
X158809523Y-63127380D01*
X159047619Y-62079761D02*
X159285714Y-62794047D01*
X158666666Y-62794047D01*
%TO.C,K5*%
X179238095Y-63127380D02*
X179238095Y-62127380D01*
X178666666Y-63127380D02*
X179095238Y-62555952D01*
X178666666Y-62127380D02*
X179238095Y-62698809D01*
X177761904Y-62127380D02*
X178238095Y-62127380D01*
X178285714Y-62603571D01*
X178238095Y-62555952D01*
X178142857Y-62508333D01*
X177904761Y-62508333D01*
X177809523Y-62555952D01*
X177761904Y-62603571D01*
X177714285Y-62698809D01*
X177714285Y-62936904D01*
X177761904Y-63032142D01*
X177809523Y-63079761D01*
X177904761Y-63127380D01*
X178142857Y-63127380D01*
X178238095Y-63079761D01*
X178285714Y-63032142D01*
%TO.C,K6*%
X198238095Y-63127380D02*
X198238095Y-62127380D01*
X197666666Y-63127380D02*
X198095238Y-62555952D01*
X197666666Y-62127380D02*
X198238095Y-62698809D01*
X196809523Y-62127380D02*
X197000000Y-62127380D01*
X197095238Y-62175000D01*
X197142857Y-62222619D01*
X197238095Y-62365476D01*
X197285714Y-62555952D01*
X197285714Y-62936904D01*
X197238095Y-63032142D01*
X197190476Y-63079761D01*
X197095238Y-63127380D01*
X196904761Y-63127380D01*
X196809523Y-63079761D01*
X196761904Y-63032142D01*
X196714285Y-62936904D01*
X196714285Y-62698809D01*
X196761904Y-62603571D01*
X196809523Y-62555952D01*
X196904761Y-62508333D01*
X197095238Y-62508333D01*
X197190476Y-62555952D01*
X197238095Y-62603571D01*
X197285714Y-62698809D01*
%TO.C,K7*%
X160238095Y-82127380D02*
X160238095Y-81127380D01*
X159666666Y-82127380D02*
X160095238Y-81555952D01*
X159666666Y-81127380D02*
X160238095Y-81698809D01*
X159333333Y-81127380D02*
X158666666Y-81127380D01*
X159095238Y-82127380D01*
%TO.C,K8*%
X179238095Y-82127380D02*
X179238095Y-81127380D01*
X178666666Y-82127380D02*
X179095238Y-81555952D01*
X178666666Y-81127380D02*
X179238095Y-81698809D01*
X178095238Y-81555952D02*
X178190476Y-81508333D01*
X178238095Y-81460714D01*
X178285714Y-81365476D01*
X178285714Y-81317857D01*
X178238095Y-81222619D01*
X178190476Y-81175000D01*
X178095238Y-81127380D01*
X177904761Y-81127380D01*
X177809523Y-81175000D01*
X177761904Y-81222619D01*
X177714285Y-81317857D01*
X177714285Y-81365476D01*
X177761904Y-81460714D01*
X177809523Y-81508333D01*
X177904761Y-81555952D01*
X178095238Y-81555952D01*
X178190476Y-81603571D01*
X178238095Y-81651190D01*
X178285714Y-81746428D01*
X178285714Y-81936904D01*
X178238095Y-82032142D01*
X178190476Y-82079761D01*
X178095238Y-82127380D01*
X177904761Y-82127380D01*
X177809523Y-82079761D01*
X177761904Y-82032142D01*
X177714285Y-81936904D01*
X177714285Y-81746428D01*
X177761904Y-81651190D01*
X177809523Y-81603571D01*
X177904761Y-81555952D01*
%TO.C,K9*%
X198238095Y-82127380D02*
X198238095Y-81127380D01*
X197666666Y-82127380D02*
X198095238Y-81555952D01*
X197666666Y-81127380D02*
X198238095Y-81698809D01*
X197190476Y-82127380D02*
X197000000Y-82127380D01*
X196904761Y-82079761D01*
X196857142Y-82032142D01*
X196761904Y-81889285D01*
X196714285Y-81698809D01*
X196714285Y-81317857D01*
X196761904Y-81222619D01*
X196809523Y-81175000D01*
X196904761Y-81127380D01*
X197095238Y-81127380D01*
X197190476Y-81175000D01*
X197238095Y-81222619D01*
X197285714Y-81317857D01*
X197285714Y-81555952D01*
X197238095Y-81651190D01*
X197190476Y-81698809D01*
X197095238Y-81746428D01*
X196904761Y-81746428D01*
X196809523Y-81698809D01*
X196761904Y-81651190D01*
X196714285Y-81555952D01*
%TO.C,K10*%
X160714285Y-101127380D02*
X160714285Y-100127380D01*
X160142857Y-101127380D02*
X160571428Y-100555952D01*
X160142857Y-100127380D02*
X160714285Y-100698809D01*
X159190476Y-101127380D02*
X159761904Y-101127380D01*
X159476190Y-101127380D02*
X159476190Y-100127380D01*
X159571428Y-100270238D01*
X159666666Y-100365476D01*
X159761904Y-100413095D01*
X158571428Y-100127380D02*
X158476190Y-100127380D01*
X158380952Y-100175000D01*
X158333333Y-100222619D01*
X158285714Y-100317857D01*
X158238095Y-100508333D01*
X158238095Y-100746428D01*
X158285714Y-100936904D01*
X158333333Y-101032142D01*
X158380952Y-101079761D01*
X158476190Y-101127380D01*
X158571428Y-101127380D01*
X158666666Y-101079761D01*
X158714285Y-101032142D01*
X158761904Y-100936904D01*
X158809523Y-100746428D01*
X158809523Y-100508333D01*
X158761904Y-100317857D01*
X158714285Y-100222619D01*
X158666666Y-100175000D01*
X158571428Y-100127380D01*
%TO.C,K11*%
X179714285Y-101127380D02*
X179714285Y-100127380D01*
X179142857Y-101127380D02*
X179571428Y-100555952D01*
X179142857Y-100127380D02*
X179714285Y-100698809D01*
X178190476Y-101127380D02*
X178761904Y-101127380D01*
X178476190Y-101127380D02*
X178476190Y-100127380D01*
X178571428Y-100270238D01*
X178666666Y-100365476D01*
X178761904Y-100413095D01*
X177238095Y-101127380D02*
X177809523Y-101127380D01*
X177523809Y-101127380D02*
X177523809Y-100127380D01*
X177619047Y-100270238D01*
X177714285Y-100365476D01*
X177809523Y-100413095D01*
%TO.C,K12*%
X198714285Y-101127380D02*
X198714285Y-100127380D01*
X198142857Y-101127380D02*
X198571428Y-100555952D01*
X198142857Y-100127380D02*
X198714285Y-100698809D01*
X197190476Y-101127380D02*
X197761904Y-101127380D01*
X197476190Y-101127380D02*
X197476190Y-100127380D01*
X197571428Y-100270238D01*
X197666666Y-100365476D01*
X197761904Y-100413095D01*
X196809523Y-100222619D02*
X196761904Y-100175000D01*
X196666666Y-100127380D01*
X196428571Y-100127380D01*
X196333333Y-100175000D01*
X196285714Y-100222619D01*
X196238095Y-100317857D01*
X196238095Y-100413095D01*
X196285714Y-100555952D01*
X196857142Y-101127380D01*
X196238095Y-101127380D01*
%TO.C,reset*%
X180119047Y-109702380D02*
X180119047Y-109035714D01*
X180119047Y-109226190D02*
X180071428Y-109130952D01*
X180023809Y-109083333D01*
X179928571Y-109035714D01*
X179833333Y-109035714D01*
X179119047Y-109654761D02*
X179214285Y-109702380D01*
X179404761Y-109702380D01*
X179500000Y-109654761D01*
X179547619Y-109559523D01*
X179547619Y-109178571D01*
X179500000Y-109083333D01*
X179404761Y-109035714D01*
X179214285Y-109035714D01*
X179119047Y-109083333D01*
X179071428Y-109178571D01*
X179071428Y-109273809D01*
X179547619Y-109369047D01*
X178690476Y-109654761D02*
X178595238Y-109702380D01*
X178404761Y-109702380D01*
X178309523Y-109654761D01*
X178261904Y-109559523D01*
X178261904Y-109511904D01*
X178309523Y-109416666D01*
X178404761Y-109369047D01*
X178547619Y-109369047D01*
X178642857Y-109321428D01*
X178690476Y-109226190D01*
X178690476Y-109178571D01*
X178642857Y-109083333D01*
X178547619Y-109035714D01*
X178404761Y-109035714D01*
X178309523Y-109083333D01*
X177452380Y-109654761D02*
X177547619Y-109702380D01*
X177738095Y-109702380D01*
X177833333Y-109654761D01*
X177880952Y-109559523D01*
X177880952Y-109178571D01*
X177833333Y-109083333D01*
X177738095Y-109035714D01*
X177547619Y-109035714D01*
X177452380Y-109083333D01*
X177404761Y-109178571D01*
X177404761Y-109273809D01*
X177880952Y-109369047D01*
X177119047Y-109035714D02*
X176738095Y-109035714D01*
X176976190Y-108702380D02*
X176976190Y-109559523D01*
X176928571Y-109654761D01*
X176833333Y-109702380D01*
X176738095Y-109702380D01*
D11*
%TO.C,U1*%
X138074523Y-41415714D02*
X136804523Y-41415714D01*
X136804523Y-41996285D01*
X136865000Y-42141428D01*
X136925476Y-42214000D01*
X137046428Y-42286571D01*
X137227857Y-42286571D01*
X137348809Y-42214000D01*
X137409285Y-42141428D01*
X137469761Y-41996285D01*
X137469761Y-41415714D01*
X138074523Y-42939714D02*
X137227857Y-42939714D01*
X137469761Y-42939714D02*
X137348809Y-43012285D01*
X137288333Y-43084857D01*
X137227857Y-43230000D01*
X137227857Y-43375142D01*
X138074523Y-44100857D02*
X138014047Y-43955714D01*
X137953571Y-43883142D01*
X137832619Y-43810571D01*
X137469761Y-43810571D01*
X137348809Y-43883142D01*
X137288333Y-43955714D01*
X137227857Y-44100857D01*
X137227857Y-44318571D01*
X137288333Y-44463714D01*
X137348809Y-44536285D01*
X137469761Y-44608857D01*
X137832619Y-44608857D01*
X137953571Y-44536285D01*
X138014047Y-44463714D01*
X138074523Y-44318571D01*
X138074523Y-44100857D01*
X138074523Y-45262000D02*
X136804523Y-45262000D01*
X137711666Y-45770000D01*
X136804523Y-46278000D01*
X138074523Y-46278000D01*
X138074523Y-47003714D02*
X137227857Y-47003714D01*
X136804523Y-47003714D02*
X136865000Y-46931142D01*
X136925476Y-47003714D01*
X136865000Y-47076285D01*
X136804523Y-47003714D01*
X136925476Y-47003714D01*
X138014047Y-48382571D02*
X138074523Y-48237428D01*
X138074523Y-47947142D01*
X138014047Y-47802000D01*
X137953571Y-47729428D01*
X137832619Y-47656857D01*
X137469761Y-47656857D01*
X137348809Y-47729428D01*
X137288333Y-47802000D01*
X137227857Y-47947142D01*
X137227857Y-48237428D01*
X137288333Y-48382571D01*
X138074523Y-49035714D02*
X137227857Y-49035714D01*
X137469761Y-49035714D02*
X137348809Y-49108285D01*
X137288333Y-49180857D01*
X137227857Y-49326000D01*
X137227857Y-49471142D01*
X138074523Y-50196857D02*
X138014047Y-50051714D01*
X137953571Y-49979142D01*
X137832619Y-49906571D01*
X137469761Y-49906571D01*
X137348809Y-49979142D01*
X137288333Y-50051714D01*
X137227857Y-50196857D01*
X137227857Y-50414571D01*
X137288333Y-50559714D01*
X137348809Y-50632285D01*
X137469761Y-50704857D01*
X137832619Y-50704857D01*
X137953571Y-50632285D01*
X138014047Y-50559714D01*
X138074523Y-50414571D01*
X138074523Y-50196857D01*
D12*
X131520666Y-50084000D02*
X131554000Y-50117333D01*
X131654000Y-50150666D01*
X131720666Y-50150666D01*
X131820666Y-50117333D01*
X131887333Y-50050666D01*
X131920666Y-49984000D01*
X131954000Y-49850666D01*
X131954000Y-49750666D01*
X131920666Y-49617333D01*
X131887333Y-49550666D01*
X131820666Y-49484000D01*
X131720666Y-49450666D01*
X131654000Y-49450666D01*
X131554000Y-49484000D01*
X131520666Y-49517333D01*
X130920666Y-49450666D02*
X131054000Y-49450666D01*
X131120666Y-49484000D01*
X131154000Y-49517333D01*
X131220666Y-49617333D01*
X131254000Y-49750666D01*
X131254000Y-50017333D01*
X131220666Y-50084000D01*
X131187333Y-50117333D01*
X131120666Y-50150666D01*
X130987333Y-50150666D01*
X130920666Y-50117333D01*
X130887333Y-50084000D01*
X130854000Y-50017333D01*
X130854000Y-49850666D01*
X130887333Y-49784000D01*
X130920666Y-49750666D01*
X130987333Y-49717333D01*
X131120666Y-49717333D01*
X131187333Y-49750666D01*
X131220666Y-49784000D01*
X131254000Y-49850666D01*
X131687333Y-57404000D02*
X131587333Y-57437333D01*
X131554000Y-57470666D01*
X131520666Y-57537333D01*
X131520666Y-57637333D01*
X131554000Y-57704000D01*
X131587333Y-57737333D01*
X131654000Y-57770666D01*
X131920666Y-57770666D01*
X131920666Y-57070666D01*
X131687333Y-57070666D01*
X131620666Y-57104000D01*
X131587333Y-57137333D01*
X131554000Y-57204000D01*
X131554000Y-57270666D01*
X131587333Y-57337333D01*
X131620666Y-57370666D01*
X131687333Y-57404000D01*
X131920666Y-57404000D01*
X130920666Y-57304000D02*
X130920666Y-57770666D01*
X131087333Y-57037333D02*
X131254000Y-57537333D01*
X130820666Y-57537333D01*
X143829333Y-47244000D02*
X144062666Y-47244000D01*
X144062666Y-47610666D02*
X144062666Y-46910666D01*
X143729333Y-46910666D01*
X143162666Y-46910666D02*
X143296000Y-46910666D01*
X143362666Y-46944000D01*
X143396000Y-46977333D01*
X143462666Y-47077333D01*
X143496000Y-47210666D01*
X143496000Y-47477333D01*
X143462666Y-47544000D01*
X143429333Y-47577333D01*
X143362666Y-47610666D01*
X143229333Y-47610666D01*
X143162666Y-47577333D01*
X143129333Y-47544000D01*
X143096000Y-47477333D01*
X143096000Y-47310666D01*
X143129333Y-47244000D01*
X143162666Y-47210666D01*
X143229333Y-47177333D01*
X143362666Y-47177333D01*
X143429333Y-47210666D01*
X143462666Y-47244000D01*
X143496000Y-47310666D01*
X143829333Y-42164000D02*
X144062666Y-42164000D01*
X144062666Y-42530666D02*
X144062666Y-41830666D01*
X143729333Y-41830666D01*
X143162666Y-42064000D02*
X143162666Y-42530666D01*
X143329333Y-41797333D02*
X143496000Y-42297333D01*
X143062666Y-42297333D01*
X143829333Y-44704000D02*
X144062666Y-44704000D01*
X144062666Y-45070666D02*
X144062666Y-44370666D01*
X143729333Y-44370666D01*
X143129333Y-44370666D02*
X143462666Y-44370666D01*
X143496000Y-44704000D01*
X143462666Y-44670666D01*
X143396000Y-44637333D01*
X143229333Y-44637333D01*
X143162666Y-44670666D01*
X143129333Y-44704000D01*
X143096000Y-44770666D01*
X143096000Y-44937333D01*
X143129333Y-45004000D01*
X143162666Y-45037333D01*
X143229333Y-45070666D01*
X143396000Y-45070666D01*
X143462666Y-45037333D01*
X143496000Y-45004000D01*
X143879333Y-54864000D02*
X143779333Y-54897333D01*
X143746000Y-54930666D01*
X143712666Y-54997333D01*
X143712666Y-55097333D01*
X143746000Y-55164000D01*
X143779333Y-55197333D01*
X143846000Y-55230666D01*
X144112666Y-55230666D01*
X144112666Y-54530666D01*
X143879333Y-54530666D01*
X143812666Y-54564000D01*
X143779333Y-54597333D01*
X143746000Y-54664000D01*
X143746000Y-54730666D01*
X143779333Y-54797333D01*
X143812666Y-54830666D01*
X143879333Y-54864000D01*
X144112666Y-54864000D01*
X143479333Y-54530666D02*
X143046000Y-54530666D01*
X143279333Y-54797333D01*
X143179333Y-54797333D01*
X143112666Y-54830666D01*
X143079333Y-54864000D01*
X143046000Y-54930666D01*
X143046000Y-55097333D01*
X143079333Y-55164000D01*
X143112666Y-55197333D01*
X143179333Y-55230666D01*
X143379333Y-55230666D01*
X143446000Y-55197333D01*
X143479333Y-55164000D01*
X131920666Y-42530666D02*
X131920666Y-41830666D01*
X131754000Y-41830666D01*
X131654000Y-41864000D01*
X131587333Y-41930666D01*
X131554000Y-41997333D01*
X131520666Y-42130666D01*
X131520666Y-42230666D01*
X131554000Y-42364000D01*
X131587333Y-42430666D01*
X131654000Y-42497333D01*
X131754000Y-42530666D01*
X131920666Y-42530666D01*
X130854000Y-42530666D02*
X131254000Y-42530666D01*
X131054000Y-42530666D02*
X131054000Y-41830666D01*
X131120666Y-41930666D01*
X131187333Y-41997333D01*
X131254000Y-42030666D01*
X143621333Y-34244000D02*
X143688000Y-34210666D01*
X143788000Y-34210666D01*
X143888000Y-34244000D01*
X143954666Y-34310666D01*
X143988000Y-34377333D01*
X144021333Y-34510666D01*
X144021333Y-34610666D01*
X143988000Y-34744000D01*
X143954666Y-34810666D01*
X143888000Y-34877333D01*
X143788000Y-34910666D01*
X143721333Y-34910666D01*
X143621333Y-34877333D01*
X143588000Y-34844000D01*
X143588000Y-34610666D01*
X143721333Y-34610666D01*
X143288000Y-34910666D02*
X143288000Y-34210666D01*
X142888000Y-34910666D01*
X142888000Y-34210666D01*
X142554666Y-34910666D02*
X142554666Y-34210666D01*
X142388000Y-34210666D01*
X142288000Y-34244000D01*
X142221333Y-34310666D01*
X142188000Y-34377333D01*
X142154666Y-34510666D01*
X142154666Y-34610666D01*
X142188000Y-34744000D01*
X142221333Y-34810666D01*
X142288000Y-34877333D01*
X142388000Y-34910666D01*
X142554666Y-34910666D01*
X132445333Y-36784000D02*
X132512000Y-36750666D01*
X132612000Y-36750666D01*
X132712000Y-36784000D01*
X132778666Y-36850666D01*
X132812000Y-36917333D01*
X132845333Y-37050666D01*
X132845333Y-37150666D01*
X132812000Y-37284000D01*
X132778666Y-37350666D01*
X132712000Y-37417333D01*
X132612000Y-37450666D01*
X132545333Y-37450666D01*
X132445333Y-37417333D01*
X132412000Y-37384000D01*
X132412000Y-37150666D01*
X132545333Y-37150666D01*
X132112000Y-37450666D02*
X132112000Y-36750666D01*
X131712000Y-37450666D01*
X131712000Y-36750666D01*
X131378666Y-37450666D02*
X131378666Y-36750666D01*
X131212000Y-36750666D01*
X131112000Y-36784000D01*
X131045333Y-36850666D01*
X131012000Y-36917333D01*
X130978666Y-37050666D01*
X130978666Y-37150666D01*
X131012000Y-37284000D01*
X131045333Y-37350666D01*
X131112000Y-37417333D01*
X131212000Y-37450666D01*
X131378666Y-37450666D01*
X131920666Y-47610666D02*
X131920666Y-46910666D01*
X131754000Y-46910666D01*
X131654000Y-46944000D01*
X131587333Y-47010666D01*
X131554000Y-47077333D01*
X131520666Y-47210666D01*
X131520666Y-47310666D01*
X131554000Y-47444000D01*
X131587333Y-47510666D01*
X131654000Y-47577333D01*
X131754000Y-47610666D01*
X131920666Y-47610666D01*
X130920666Y-47144000D02*
X130920666Y-47610666D01*
X131087333Y-46877333D02*
X131254000Y-47377333D01*
X130820666Y-47377333D01*
X143829333Y-49784000D02*
X144062666Y-49784000D01*
X144062666Y-50150666D02*
X144062666Y-49450666D01*
X143729333Y-49450666D01*
X143529333Y-49450666D02*
X143062666Y-49450666D01*
X143362666Y-50150666D01*
X143879333Y-52324000D02*
X143779333Y-52357333D01*
X143746000Y-52390666D01*
X143712666Y-52457333D01*
X143712666Y-52557333D01*
X143746000Y-52624000D01*
X143779333Y-52657333D01*
X143846000Y-52690666D01*
X144112666Y-52690666D01*
X144112666Y-51990666D01*
X143879333Y-51990666D01*
X143812666Y-52024000D01*
X143779333Y-52057333D01*
X143746000Y-52124000D01*
X143746000Y-52190666D01*
X143779333Y-52257333D01*
X143812666Y-52290666D01*
X143879333Y-52324000D01*
X144112666Y-52324000D01*
X143046000Y-52690666D02*
X143446000Y-52690666D01*
X143246000Y-52690666D02*
X143246000Y-51990666D01*
X143312666Y-52090666D01*
X143379333Y-52157333D01*
X143446000Y-52190666D01*
X131920666Y-32370666D02*
X131920666Y-31670666D01*
X131754000Y-31670666D01*
X131654000Y-31704000D01*
X131587333Y-31770666D01*
X131554000Y-31837333D01*
X131520666Y-31970666D01*
X131520666Y-32070666D01*
X131554000Y-32204000D01*
X131587333Y-32270666D01*
X131654000Y-32337333D01*
X131754000Y-32370666D01*
X131920666Y-32370666D01*
X131287333Y-31670666D02*
X130854000Y-31670666D01*
X131087333Y-31937333D01*
X130987333Y-31937333D01*
X130920666Y-31970666D01*
X130887333Y-32004000D01*
X130854000Y-32070666D01*
X130854000Y-32237333D01*
X130887333Y-32304000D01*
X130920666Y-32337333D01*
X130987333Y-32370666D01*
X131187333Y-32370666D01*
X131254000Y-32337333D01*
X131287333Y-32304000D01*
X131920666Y-34910666D02*
X131920666Y-34210666D01*
X131754000Y-34210666D01*
X131654000Y-34244000D01*
X131587333Y-34310666D01*
X131554000Y-34377333D01*
X131520666Y-34510666D01*
X131520666Y-34610666D01*
X131554000Y-34744000D01*
X131587333Y-34810666D01*
X131654000Y-34877333D01*
X131754000Y-34910666D01*
X131920666Y-34910666D01*
X131254000Y-34277333D02*
X131220666Y-34244000D01*
X131154000Y-34210666D01*
X130987333Y-34210666D01*
X130920666Y-34244000D01*
X130887333Y-34277333D01*
X130854000Y-34344000D01*
X130854000Y-34410666D01*
X130887333Y-34510666D01*
X131287333Y-34910666D01*
X130854000Y-34910666D01*
X131920666Y-45070666D02*
X131920666Y-44370666D01*
X131754000Y-44370666D01*
X131654000Y-44404000D01*
X131587333Y-44470666D01*
X131554000Y-44537333D01*
X131520666Y-44670666D01*
X131520666Y-44770666D01*
X131554000Y-44904000D01*
X131587333Y-44970666D01*
X131654000Y-45037333D01*
X131754000Y-45070666D01*
X131920666Y-45070666D01*
X131087333Y-44370666D02*
X131020666Y-44370666D01*
X130954000Y-44404000D01*
X130920666Y-44437333D01*
X130887333Y-44504000D01*
X130854000Y-44637333D01*
X130854000Y-44804000D01*
X130887333Y-44937333D01*
X130920666Y-45004000D01*
X130954000Y-45037333D01*
X131020666Y-45070666D01*
X131087333Y-45070666D01*
X131154000Y-45037333D01*
X131187333Y-45004000D01*
X131220666Y-44937333D01*
X131254000Y-44804000D01*
X131254000Y-44637333D01*
X131220666Y-44504000D01*
X131187333Y-44437333D01*
X131154000Y-44404000D01*
X131087333Y-44370666D01*
X131687333Y-59944000D02*
X131587333Y-59977333D01*
X131554000Y-60010666D01*
X131520666Y-60077333D01*
X131520666Y-60177333D01*
X131554000Y-60244000D01*
X131587333Y-60277333D01*
X131654000Y-60310666D01*
X131920666Y-60310666D01*
X131920666Y-59610666D01*
X131687333Y-59610666D01*
X131620666Y-59644000D01*
X131587333Y-59677333D01*
X131554000Y-59744000D01*
X131554000Y-59810666D01*
X131587333Y-59877333D01*
X131620666Y-59910666D01*
X131687333Y-59944000D01*
X131920666Y-59944000D01*
X130887333Y-59610666D02*
X131220666Y-59610666D01*
X131254000Y-59944000D01*
X131220666Y-59910666D01*
X131154000Y-59877333D01*
X130987333Y-59877333D01*
X130920666Y-59910666D01*
X130887333Y-59944000D01*
X130854000Y-60010666D01*
X130854000Y-60177333D01*
X130887333Y-60244000D01*
X130920666Y-60277333D01*
X130987333Y-60310666D01*
X131154000Y-60310666D01*
X131220666Y-60277333D01*
X131254000Y-60244000D01*
X144021333Y-39290666D02*
X143788000Y-39990666D01*
X143554666Y-39290666D01*
X142921333Y-39924000D02*
X142954666Y-39957333D01*
X143054666Y-39990666D01*
X143121333Y-39990666D01*
X143221333Y-39957333D01*
X143288000Y-39890666D01*
X143321333Y-39824000D01*
X143354666Y-39690666D01*
X143354666Y-39590666D01*
X143321333Y-39457333D01*
X143288000Y-39390666D01*
X143221333Y-39324000D01*
X143121333Y-39290666D01*
X143054666Y-39290666D01*
X142954666Y-39324000D01*
X142921333Y-39357333D01*
X142221333Y-39924000D02*
X142254666Y-39957333D01*
X142354666Y-39990666D01*
X142421333Y-39990666D01*
X142521333Y-39957333D01*
X142588000Y-39890666D01*
X142621333Y-39824000D01*
X142654666Y-39690666D01*
X142654666Y-39590666D01*
X142621333Y-39457333D01*
X142588000Y-39390666D01*
X142521333Y-39324000D01*
X142421333Y-39290666D01*
X142354666Y-39290666D01*
X142254666Y-39324000D01*
X142221333Y-39357333D01*
X132445333Y-39324000D02*
X132512000Y-39290666D01*
X132612000Y-39290666D01*
X132712000Y-39324000D01*
X132778666Y-39390666D01*
X132812000Y-39457333D01*
X132845333Y-39590666D01*
X132845333Y-39690666D01*
X132812000Y-39824000D01*
X132778666Y-39890666D01*
X132712000Y-39957333D01*
X132612000Y-39990666D01*
X132545333Y-39990666D01*
X132445333Y-39957333D01*
X132412000Y-39924000D01*
X132412000Y-39690666D01*
X132545333Y-39690666D01*
X132112000Y-39990666D02*
X132112000Y-39290666D01*
X131712000Y-39990666D01*
X131712000Y-39290666D01*
X131378666Y-39990666D02*
X131378666Y-39290666D01*
X131212000Y-39290666D01*
X131112000Y-39324000D01*
X131045333Y-39390666D01*
X131012000Y-39457333D01*
X130978666Y-39590666D01*
X130978666Y-39690666D01*
X131012000Y-39824000D01*
X131045333Y-39890666D01*
X131112000Y-39957333D01*
X131212000Y-39990666D01*
X131378666Y-39990666D01*
X143879333Y-59944000D02*
X143779333Y-59977333D01*
X143746000Y-60010666D01*
X143712666Y-60077333D01*
X143712666Y-60177333D01*
X143746000Y-60244000D01*
X143779333Y-60277333D01*
X143846000Y-60310666D01*
X144112666Y-60310666D01*
X144112666Y-59610666D01*
X143879333Y-59610666D01*
X143812666Y-59644000D01*
X143779333Y-59677333D01*
X143746000Y-59744000D01*
X143746000Y-59810666D01*
X143779333Y-59877333D01*
X143812666Y-59910666D01*
X143879333Y-59944000D01*
X144112666Y-59944000D01*
X143112666Y-59610666D02*
X143246000Y-59610666D01*
X143312666Y-59644000D01*
X143346000Y-59677333D01*
X143412666Y-59777333D01*
X143446000Y-59910666D01*
X143446000Y-60177333D01*
X143412666Y-60244000D01*
X143379333Y-60277333D01*
X143312666Y-60310666D01*
X143179333Y-60310666D01*
X143112666Y-60277333D01*
X143079333Y-60244000D01*
X143046000Y-60177333D01*
X143046000Y-60010666D01*
X143079333Y-59944000D01*
X143112666Y-59910666D01*
X143179333Y-59877333D01*
X143312666Y-59877333D01*
X143379333Y-59910666D01*
X143412666Y-59944000D01*
X143446000Y-60010666D01*
X131920666Y-52690666D02*
X131920666Y-51990666D01*
X131754000Y-51990666D01*
X131654000Y-52024000D01*
X131587333Y-52090666D01*
X131554000Y-52157333D01*
X131520666Y-52290666D01*
X131520666Y-52390666D01*
X131554000Y-52524000D01*
X131587333Y-52590666D01*
X131654000Y-52657333D01*
X131754000Y-52690666D01*
X131920666Y-52690666D01*
X131287333Y-51990666D02*
X130820666Y-51990666D01*
X131120666Y-52690666D01*
X131887333Y-54864000D02*
X131654000Y-54864000D01*
X131554000Y-55230666D02*
X131887333Y-55230666D01*
X131887333Y-54530666D01*
X131554000Y-54530666D01*
X130954000Y-54530666D02*
X131087333Y-54530666D01*
X131154000Y-54564000D01*
X131187333Y-54597333D01*
X131254000Y-54697333D01*
X131287333Y-54830666D01*
X131287333Y-55097333D01*
X131254000Y-55164000D01*
X131220666Y-55197333D01*
X131154000Y-55230666D01*
X131020666Y-55230666D01*
X130954000Y-55197333D01*
X130920666Y-55164000D01*
X130887333Y-55097333D01*
X130887333Y-54930666D01*
X130920666Y-54864000D01*
X130954000Y-54830666D01*
X131020666Y-54797333D01*
X131154000Y-54797333D01*
X131220666Y-54830666D01*
X131254000Y-54864000D01*
X131287333Y-54930666D01*
X143063333Y-32624666D02*
X143296666Y-32291333D01*
X143463333Y-32624666D02*
X143463333Y-31924666D01*
X143196666Y-31924666D01*
X143130000Y-31958000D01*
X143096666Y-31991333D01*
X143063333Y-32058000D01*
X143063333Y-32158000D01*
X143096666Y-32224666D01*
X143130000Y-32258000D01*
X143196666Y-32291333D01*
X143463333Y-32291333D01*
X142796666Y-32424666D02*
X142463333Y-32424666D01*
X142863333Y-32624666D02*
X142630000Y-31924666D01*
X142396666Y-32624666D01*
X142230000Y-31924666D02*
X142063333Y-32624666D01*
X141930000Y-32124666D01*
X141796666Y-32624666D01*
X141630000Y-31924666D01*
X143879333Y-57404000D02*
X143779333Y-57437333D01*
X143746000Y-57470666D01*
X143712666Y-57537333D01*
X143712666Y-57637333D01*
X143746000Y-57704000D01*
X143779333Y-57737333D01*
X143846000Y-57770666D01*
X144112666Y-57770666D01*
X144112666Y-57070666D01*
X143879333Y-57070666D01*
X143812666Y-57104000D01*
X143779333Y-57137333D01*
X143746000Y-57204000D01*
X143746000Y-57270666D01*
X143779333Y-57337333D01*
X143812666Y-57370666D01*
X143879333Y-57404000D01*
X144112666Y-57404000D01*
X143446000Y-57137333D02*
X143412666Y-57104000D01*
X143346000Y-57070666D01*
X143179333Y-57070666D01*
X143112666Y-57104000D01*
X143079333Y-57137333D01*
X143046000Y-57204000D01*
X143046000Y-57270666D01*
X143079333Y-57370666D01*
X143479333Y-57770666D01*
X143046000Y-57770666D01*
X143471333Y-37450666D02*
X143704666Y-37117333D01*
X143871333Y-37450666D02*
X143871333Y-36750666D01*
X143604666Y-36750666D01*
X143538000Y-36784000D01*
X143504666Y-36817333D01*
X143471333Y-36884000D01*
X143471333Y-36984000D01*
X143504666Y-37050666D01*
X143538000Y-37084000D01*
X143604666Y-37117333D01*
X143871333Y-37117333D01*
X143204666Y-37417333D02*
X143104666Y-37450666D01*
X142938000Y-37450666D01*
X142871333Y-37417333D01*
X142838000Y-37384000D01*
X142804666Y-37317333D01*
X142804666Y-37250666D01*
X142838000Y-37184000D01*
X142871333Y-37150666D01*
X142938000Y-37117333D01*
X143071333Y-37084000D01*
X143138000Y-37050666D01*
X143171333Y-37017333D01*
X143204666Y-36950666D01*
X143204666Y-36884000D01*
X143171333Y-36817333D01*
X143138000Y-36784000D01*
X143071333Y-36750666D01*
X142904666Y-36750666D01*
X142804666Y-36784000D01*
X142604666Y-36750666D02*
X142204666Y-36750666D01*
X142404666Y-37450666D02*
X142404666Y-36750666D01*
D10*
%TO.C,rgb2*%
X190152380Y-38352380D02*
X190152380Y-37685714D01*
X190152380Y-37876190D02*
X190104761Y-37780952D01*
X190057142Y-37733333D01*
X189961904Y-37685714D01*
X189866666Y-37685714D01*
X189104761Y-37685714D02*
X189104761Y-38495238D01*
X189152380Y-38590476D01*
X189200000Y-38638095D01*
X189295238Y-38685714D01*
X189438095Y-38685714D01*
X189533333Y-38638095D01*
X189104761Y-38304761D02*
X189200000Y-38352380D01*
X189390476Y-38352380D01*
X189485714Y-38304761D01*
X189533333Y-38257142D01*
X189580952Y-38161904D01*
X189580952Y-37876190D01*
X189533333Y-37780952D01*
X189485714Y-37733333D01*
X189390476Y-37685714D01*
X189200000Y-37685714D01*
X189104761Y-37733333D01*
X188628571Y-38352380D02*
X188628571Y-37352380D01*
X188628571Y-37733333D02*
X188533333Y-37685714D01*
X188342857Y-37685714D01*
X188247619Y-37733333D01*
X188200000Y-37780952D01*
X188152380Y-37876190D01*
X188152380Y-38161904D01*
X188200000Y-38257142D01*
X188247619Y-38304761D01*
X188342857Y-38352380D01*
X188533333Y-38352380D01*
X188628571Y-38304761D01*
X187771428Y-37447619D02*
X187723809Y-37400000D01*
X187628571Y-37352380D01*
X187390476Y-37352380D01*
X187295238Y-37400000D01*
X187247619Y-37447619D01*
X187200000Y-37542857D01*
X187200000Y-37638095D01*
X187247619Y-37780952D01*
X187819047Y-38352380D01*
X187200000Y-38352380D01*
X184264285Y-36452380D02*
X184835714Y-36452380D01*
X184550000Y-36452380D02*
X184550000Y-35452380D01*
X184645238Y-35595238D01*
X184740476Y-35690476D01*
X184835714Y-35738095D01*
%TO.C,rgb4*%
X138952380Y-111852380D02*
X138952380Y-111185714D01*
X138952380Y-111376190D02*
X138904761Y-111280952D01*
X138857142Y-111233333D01*
X138761904Y-111185714D01*
X138666666Y-111185714D01*
X137904761Y-111185714D02*
X137904761Y-111995238D01*
X137952380Y-112090476D01*
X138000000Y-112138095D01*
X138095238Y-112185714D01*
X138238095Y-112185714D01*
X138333333Y-112138095D01*
X137904761Y-111804761D02*
X138000000Y-111852380D01*
X138190476Y-111852380D01*
X138285714Y-111804761D01*
X138333333Y-111757142D01*
X138380952Y-111661904D01*
X138380952Y-111376190D01*
X138333333Y-111280952D01*
X138285714Y-111233333D01*
X138190476Y-111185714D01*
X138000000Y-111185714D01*
X137904761Y-111233333D01*
X137428571Y-111852380D02*
X137428571Y-110852380D01*
X137428571Y-111233333D02*
X137333333Y-111185714D01*
X137142857Y-111185714D01*
X137047619Y-111233333D01*
X137000000Y-111280952D01*
X136952380Y-111376190D01*
X136952380Y-111661904D01*
X137000000Y-111757142D01*
X137047619Y-111804761D01*
X137142857Y-111852380D01*
X137333333Y-111852380D01*
X137428571Y-111804761D01*
X136095238Y-111185714D02*
X136095238Y-111852380D01*
X136333333Y-110804761D02*
X136571428Y-111519047D01*
X135952380Y-111519047D01*
X133064285Y-109952380D02*
X133635714Y-109952380D01*
X133350000Y-109952380D02*
X133350000Y-108952380D01*
X133445238Y-109095238D01*
X133540476Y-109190476D01*
X133635714Y-109238095D01*
%TO.C,rgb3*%
X189552380Y-111552380D02*
X189552380Y-110885714D01*
X189552380Y-111076190D02*
X189504761Y-110980952D01*
X189457142Y-110933333D01*
X189361904Y-110885714D01*
X189266666Y-110885714D01*
X188504761Y-110885714D02*
X188504761Y-111695238D01*
X188552380Y-111790476D01*
X188600000Y-111838095D01*
X188695238Y-111885714D01*
X188838095Y-111885714D01*
X188933333Y-111838095D01*
X188504761Y-111504761D02*
X188600000Y-111552380D01*
X188790476Y-111552380D01*
X188885714Y-111504761D01*
X188933333Y-111457142D01*
X188980952Y-111361904D01*
X188980952Y-111076190D01*
X188933333Y-110980952D01*
X188885714Y-110933333D01*
X188790476Y-110885714D01*
X188600000Y-110885714D01*
X188504761Y-110933333D01*
X188028571Y-111552380D02*
X188028571Y-110552380D01*
X188028571Y-110933333D02*
X187933333Y-110885714D01*
X187742857Y-110885714D01*
X187647619Y-110933333D01*
X187600000Y-110980952D01*
X187552380Y-111076190D01*
X187552380Y-111361904D01*
X187600000Y-111457142D01*
X187647619Y-111504761D01*
X187742857Y-111552380D01*
X187933333Y-111552380D01*
X188028571Y-111504761D01*
X187219047Y-110552380D02*
X186600000Y-110552380D01*
X186933333Y-110933333D01*
X186790476Y-110933333D01*
X186695238Y-110980952D01*
X186647619Y-111028571D01*
X186600000Y-111123809D01*
X186600000Y-111361904D01*
X186647619Y-111457142D01*
X186695238Y-111504761D01*
X186790476Y-111552380D01*
X187076190Y-111552380D01*
X187171428Y-111504761D01*
X187219047Y-111457142D01*
X183664285Y-109652380D02*
X184235714Y-109652380D01*
X183950000Y-109652380D02*
X183950000Y-108652380D01*
X184045238Y-108795238D01*
X184140476Y-108890476D01*
X184235714Y-108938095D01*
%TO.C,rgb1*%
X137252380Y-40552380D02*
X137252380Y-39885714D01*
X137252380Y-40076190D02*
X137204761Y-39980952D01*
X137157142Y-39933333D01*
X137061904Y-39885714D01*
X136966666Y-39885714D01*
X136204761Y-39885714D02*
X136204761Y-40695238D01*
X136252380Y-40790476D01*
X136300000Y-40838095D01*
X136395238Y-40885714D01*
X136538095Y-40885714D01*
X136633333Y-40838095D01*
X136204761Y-40504761D02*
X136300000Y-40552380D01*
X136490476Y-40552380D01*
X136585714Y-40504761D01*
X136633333Y-40457142D01*
X136680952Y-40361904D01*
X136680952Y-40076190D01*
X136633333Y-39980952D01*
X136585714Y-39933333D01*
X136490476Y-39885714D01*
X136300000Y-39885714D01*
X136204761Y-39933333D01*
X135728571Y-40552380D02*
X135728571Y-39552380D01*
X135728571Y-39933333D02*
X135633333Y-39885714D01*
X135442857Y-39885714D01*
X135347619Y-39933333D01*
X135300000Y-39980952D01*
X135252380Y-40076190D01*
X135252380Y-40361904D01*
X135300000Y-40457142D01*
X135347619Y-40504761D01*
X135442857Y-40552380D01*
X135633333Y-40552380D01*
X135728571Y-40504761D01*
X134300000Y-40552380D02*
X134871428Y-40552380D01*
X134585714Y-40552380D02*
X134585714Y-39552380D01*
X134680952Y-39695238D01*
X134776190Y-39790476D01*
X134871428Y-39838095D01*
X131364285Y-38652380D02*
X131935714Y-38652380D01*
X131650000Y-38652380D02*
X131650000Y-37652380D01*
X131745238Y-37795238D01*
X131840476Y-37890476D01*
X131935714Y-37938095D01*
D13*
%TO.C,rgb2*%
X192350000Y-31650000D02*
X192350000Y-32800000D01*
X185050000Y-37150000D02*
X192350000Y-37150000D01*
X185050000Y-31650000D02*
X192350000Y-31650000D01*
%TO.C,rgb4*%
X141150000Y-105150000D02*
X141150000Y-106300000D01*
X133850000Y-110650000D02*
X141150000Y-110650000D01*
X133850000Y-105150000D02*
X141150000Y-105150000D01*
%TO.C,rgb3*%
X184450000Y-110350000D02*
X191750000Y-110350000D01*
X191750000Y-104850000D02*
X191750000Y-106000000D01*
X184450000Y-104850000D02*
X191750000Y-104850000D01*
%TO.C,rgb1*%
X132150000Y-33850000D02*
X139450000Y-33850000D01*
X139450000Y-33850000D02*
X139450000Y-35000000D01*
X132150000Y-39350000D02*
X139450000Y-39350000D01*
%TD*%
D14*
%TO.C,U1*%
X145120000Y-32054000D03*
D15*
X145120000Y-34594000D03*
X145120000Y-37134000D03*
X145120000Y-39674000D03*
X145120000Y-42214000D03*
X145120000Y-44754000D03*
X145120000Y-47294000D03*
X145120000Y-49834000D03*
X145120000Y-52374000D03*
X145120000Y-54914000D03*
X145120000Y-57454000D03*
X145120000Y-59994000D03*
X129880000Y-32054000D03*
X129880000Y-34594000D03*
X129880000Y-37134000D03*
X129880000Y-39674000D03*
X129880000Y-42214000D03*
X129880000Y-44754000D03*
X129880000Y-47294000D03*
X129880000Y-49834000D03*
X129880000Y-52374000D03*
X129880000Y-54914000D03*
X129880000Y-57454000D03*
X129880000Y-59994000D03*
%TD*%
M02*
